{"glyphs":{"0":{"ha":1260,"x_min":0,"x_max":0,"o":"m 471 972 b 82 606 189 972 82 871 l 82 367 b 471 0 82 101 189 0 l 790 0 b 1179 367 1072 0 1179 101 l 1179 606 b 790 972 1179 871 1072 972 z m 290 592 b 471 781 290 739 328 781 l 790 781 b 971 592 932 781 971 739 l 971 381 b 790 192 971 233 932 192 l 471 192 b 290 381 328 192 290 233 z "},"1":{"ha":469,"x_min":0,"x_max":0,"o":"m 63 972 b 32 942 43 972 32 963 l 32 811 b 63 781 32 790 43 781 l 140 781 b 169 751 160 781 169 772 l 169 31 b 200 0 169 10 179 0 l 346 0 b 378 31 367 0 378 10 l 378 854 b 249 972 378 935 340 972 z "},"2":{"ha":1199,"x_min":0,"x_max":0,"o":"m 144 972 b 113 942 124 972 113 963 l 113 811 b 144 781 113 790 124 781 l 843 781 b 917 703 892 781 917 756 l 917 658 b 843 581 917 606 893 581 l 319 581 b 78 332 164 581 78 490 l 78 118 b 206 0 78 36 114 0 l 1093 0 b 1124 31 1113 0 1124 10 l 1124 161 b 1093 192 1124 182 1113 192 l 314 192 b 286 221 294 192 286 201 l 286 322 b 358 401 286 375 308 401 l 882 401 b 1125 649 1036 401 1125 492 l 1125 746 b 879 972 1125 889 1039 972 z "},"3":{"ha":1171,"x_min":0,"x_max":0,"o":"m 100 972 b 69 942 79 972 69 963 l 69 813 b 100 781 69 792 79 781 l 779 781 b 879 696 851 781 879 754 l 879 654 b 764 581 879 600 854 581 l 108 581 b 78 550 88 581 78 569 l 78 432 b 108 401 78 413 88 401 l 764 401 b 881 322 854 401 881 381 l 881 278 b 782 192 881 218 853 192 l 100 192 b 69 160 79 192 69 181 l 69 31 b 100 0 69 10 79 0 l 844 0 b 1090 240 1018 0 1090 83 l 1090 321 b 1001 500 1090 403 1061 463 b 1083 676 1056 540 1083 599 l 1083 743 b 819 972 1083 901 1007 972 z "},"4":{"ha":1257,"x_min":0,"x_max":0,"o":"m 104 511 b 50 397 64 483 50 453 l 50 271 b 139 186 50 219 82 186 l 867 186 l 867 31 b 897 0 867 10 876 0 l 1044 0 b 1075 31 1065 0 1075 10 l 1075 186 l 1189 186 b 1219 217 1208 186 1219 197 l 1219 343 b 1189 374 1219 363 1208 374 l 1075 374 l 1075 831 b 954 972 1075 938 1039 972 l 854 972 b 715 931 790 972 763 963 z m 279 383 l 279 394 b 288 411 279 401 282 407 l 817 776 b 846 788 828 783 836 788 l 856 788 b 867 774 863 788 867 783 l 867 374 l 290 374 b 279 383 283 374 279 378 z "},"5":{"ha":1199,"x_min":0,"x_max":0,"o":"m 206 972 b 78 854 114 972 78 936 l 78 519 b 206 401 78 438 114 401 l 847 401 b 919 324 897 401 919 376 l 919 269 b 847 192 919 217 896 192 l 110 192 b 79 161 89 192 79 182 l 79 31 b 110 0 79 10 89 0 l 879 0 b 1125 226 1039 0 1125 83 l 1125 343 b 882 581 1125 497 1039 581 l 311 581 b 282 610 292 581 282 590 l 282 751 b 311 781 282 772 292 781 l 1058 781 b 1089 811 1078 781 1089 790 l 1089 942 b 1058 972 1089 963 1078 972 z "},"6":{"ha":1206,"x_min":0,"x_max":0,"o":"m 471 972 b 82 606 189 972 82 871 l 82 367 b 471 0 82 101 189 0 l 875 0 b 1128 235 1051 0 1128 81 l 1128 336 b 885 583 1128 497 1053 583 l 290 583 l 290 599 b 471 781 290 744 326 781 l 1060 781 b 1090 811 1079 781 1090 790 l 1090 942 b 1060 972 1090 963 1079 972 z m 290 407 l 839 407 b 919 336 899 407 919 389 l 919 265 b 838 189 919 210 897 189 l 471 189 b 290 368 325 189 290 225 z "},"7":{"ha":1151,"x_min":0,"x_max":0,"o":"m 63 972 b 32 942 43 972 32 963 l 32 817 b 63 786 32 796 43 786 l 854 786 b 865 775 861 786 865 782 l 865 767 b 856 744 865 758 861 751 l 190 38 b 204 0 176 24 183 0 l 399 0 b 458 26 426 0 438 6 l 1049 663 b 1103 792 1090 708 1103 735 l 1103 888 b 1014 972 1103 939 1071 972 z "},"8":{"ha":1256,"x_min":0,"x_max":0,"o":"m 351 972 b 88 743 165 972 88 901 l 88 676 b 174 497 88 597 118 536 b 82 321 111 461 82 403 l 82 240 b 326 0 82 83 153 0 l 929 0 b 1175 240 1104 0 1175 83 l 1175 321 b 1082 497 1175 403 1144 461 b 1168 676 1138 536 1168 597 l 1168 743 b 904 972 1168 901 1090 972 z m 290 328 b 407 407 290 388 319 407 l 849 407 b 967 328 938 407 967 388 l 967 268 b 865 190 967 211 940 190 l 390 190 b 290 268 315 190 290 210 z m 290 700 b 392 782 290 757 319 782 l 864 782 b 965 700 936 782 965 757 l 965 649 b 849 575 965 593 936 575 l 407 575 b 290 649 319 575 290 593 z "},"9":{"ha":1206,"x_min":0,"x_max":0,"o":"m 342 972 b 78 722 163 972 78 892 l 78 631 b 332 393 78 474 165 393 l 917 393 l 917 374 b 736 192 917 228 879 192 l 142 192 b 110 161 121 192 110 182 l 110 31 b 142 0 110 10 121 0 l 736 0 b 1125 367 1018 0 1125 101 l 1125 606 b 736 972 1125 871 1018 972 z m 285 647 l 285 710 b 365 783 285 764 306 783 l 736 783 b 917 604 882 783 917 747 l 917 569 l 365 569 b 285 647 306 569 285 593 z "},"\u0000":{"ha":0,"x_min":0,"x_max":0,"o":""}," ":{"ha":465,"x_min":0,"x_max":0,"o":""},"\u0017":{"ha":465,"x_min":0,"x_max":0,"o":""},"!":{"ha":369,"x_min":0,"x_max":0,"o":"m 117 194 b 86 164 96 194 86 185 l 86 31 b 117 0 86 10 96 0 l 253 0 b 283 31 274 0 283 10 l 283 164 b 253 194 283 185 274 194 z m 107 1021 b 76 989 86 1021 75 1010 l 114 364 b 144 333 115 343 124 333 l 225 333 b 256 364 246 333 254 343 l 293 989 b 263 1021 294 1010 283 1021 z "},"\"":{"ha":682,"x_min":0,"x_max":0,"o":"m 114 1042 b 88 1004 94 1042 86 1029 l 119 639 b 150 608 122 617 132 608 l 226 608 b 257 639 244 608 254 617 l 289 1004 b 263 1042 290 1029 282 1042 z m 419 1042 b 393 1004 400 1042 392 1029 l 425 639 b 456 608 428 617 438 608 l 532 608 b 563 639 550 608 560 617 l 594 1004 b 568 1042 596 1029 588 1042 z "},"#":{"ha":1185,"x_min":0,"x_max":0,"o":"m 108 747 b 83 722 92 747 83 739 l 83 639 b 108 614 83 622 92 614 l 296 614 l 296 358 l 108 358 b 83 333 92 358 83 350 l 83 250 b 108 225 83 233 92 225 l 296 225 l 296 25 b 321 0 296 8 304 0 l 404 0 b 429 25 421 0 429 8 l 429 225 l 758 225 l 758 25 b 783 0 758 8 767 0 l 865 0 b 890 25 882 0 890 8 l 890 225 l 1078 225 b 1103 250 1094 225 1103 233 l 1103 333 b 1078 358 1103 350 1094 358 l 890 358 l 890 614 l 1078 614 b 1103 639 1094 614 1103 622 l 1103 722 b 1078 747 1103 739 1094 747 l 890 747 l 890 947 b 865 972 890 964 882 972 l 783 972 b 758 947 767 972 758 964 l 758 747 l 429 747 l 429 947 b 404 972 429 964 421 972 l 321 972 b 296 947 304 972 296 964 l 296 747 z m 429 358 l 429 614 l 758 614 l 758 358 z "},"$":{"ha":1133,"x_min":0,"x_max":0,"o":"m 538 1056 b 513 1031 521 1056 513 1047 l 513 926 l 301 926 b 86 710 151 926 86 850 l 86 642 b 301 411 86 493 158 411 l 513 411 l 513 238 l 111 238 b 86 210 94 238 86 228 l 86 81 b 111 53 86 63 94 53 l 513 53 l 513 -58 b 538 -83 513 -75 521 -83 l 611 -83 b 636 -58 628 -83 636 -75 l 636 53 l 846 53 b 1064 271 997 53 1064 131 l 1064 357 b 847 583 1064 504 993 583 l 636 583 l 636 742 l 1006 742 b 1031 769 1022 742 1031 751 l 1031 899 b 1006 926 1031 917 1022 926 l 636 926 l 636 1031 b 611 1056 636 1047 628 1056 z m 636 411 l 806 411 b 867 354 851 411 867 397 l 867 300 b 808 238 867 254 851 238 l 636 238 z m 283 631 l 283 682 b 346 742 283 721 306 742 l 513 742 l 513 583 l 349 583 b 283 631 307 583 283 599 z "},"%":{"ha":1585,"x_min":0,"x_max":0,"o":"m 1139 972 b 1103 958 1119 972 1110 968 l 353 25 b 363 0 343 14 347 0 l 447 0 b 485 14 468 0 476 4 l 1235 947 b 1225 972 1244 958 1240 972 z m 1113 535 b 900 333 958 535 900 479 l 900 201 b 1113 0 900 56 958 0 l 1289 0 b 1503 201 1444 0 1503 56 l 1503 333 b 1289 535 1503 479 1444 535 z m 294 972 b 82 771 140 972 82 917 l 82 639 b 294 438 82 493 140 438 l 471 438 b 685 639 626 438 685 493 l 685 771 b 471 972 685 917 626 972 z m 1022 322 b 1119 424 1022 401 1044 424 l 1283 424 b 1381 322 1360 424 1381 401 l 1381 213 b 1283 111 1381 133 1360 111 l 1119 111 b 1022 213 1044 111 1022 133 z m 204 760 b 301 861 204 839 226 861 l 465 861 b 563 760 542 861 563 839 l 563 650 b 465 549 563 571 542 549 l 301 549 b 204 650 226 549 204 571 z "},"&":{"ha":1214,"x_min":0,"x_max":0,"o":"m 329 1068 b 190 899 236 1068 190 1008 l 190 814 b 269 635 190 736 213 689 l 319 586 l 185 517 b 57 281 99 472 57 394 l 57 200 b 239 0 57 67 122 0 l 500 0 b 740 107 626 0 667 21 l 781 156 l 928 17 b 969 0 940 6 951 0 l 1171 0 b 1186 39 1190 0 1200 25 l 901 300 l 1144 589 b 1125 631 1161 610 1151 631 l 964 631 b 925 614 944 631 935 626 l 765 426 l 631 550 l 694 583 b 819 814 790 632 819 689 l 819 925 b 672 1068 819 1013 768 1068 z m 467 182 l 336 182 b 263 249 281 182 263 197 l 263 288 b 325 393 263 340 281 371 l 456 460 l 643 283 l 608 243 b 467 182 569 196 539 182 z m 389 810 l 389 843 b 436 888 389 875 401 888 l 583 888 b 628 851 611 888 628 874 l 628 799 b 576 718 628 758 617 738 l 493 676 l 422 742 b 389 810 397 765 389 781 z "},"'":{"ha":376,"x_min":0,"x_max":0,"o":"m 114 1042 b 88 1004 94 1042 86 1029 l 119 639 b 150 608 122 617 132 608 l 226 608 b 257 639 244 608 254 617 l 289 1004 b 263 1042 290 1029 282 1042 z "},"(":{"ha":629,"x_min":0,"x_max":0,"o":"m 522 1244 b 185 704 293 1244 185 1097 l 185 233 b 522 -306 185 -160 293 -306 l 556 -306 b 572 -287 567 -306 572 -300 l 572 -193 b 556 -174 572 -179 567 -174 l 522 -174 b 318 233 393 -174 318 -83 l 318 704 b 522 1113 318 1022 393 1113 l 556 1113 b 572 1131 567 1113 572 1118 l 572 1225 b 556 1244 572 1238 567 1244 z "},")":{"ha":629,"x_min":0,"x_max":0,"o":"m 107 -306 b 444 235 336 -306 444 -158 l 444 706 b 107 1244 444 1099 336 1244 l 74 1244 b 57 1226 63 1244 57 1239 l 57 1132 b 74 1113 57 1118 63 1113 l 107 1113 b 311 706 236 1113 311 1022 l 311 235 b 107 -174 311 -83 236 -174 l 74 -174 b 57 -192 63 -174 57 -179 l 57 -286 b 74 -306 57 -299 63 -306 z "},"*":{"ha":808,"x_min":0,"x_max":0,"o":"m 82 831 b 56 821 67 835 60 832 l 26 733 b 43 708 22 721 28 713 l 331 633 l 142 404 b 143 376 132 393 132 383 l 217 321 b 244 331 226 315 236 318 l 406 581 l 565 331 b 593 324 574 317 582 315 l 668 378 b 668 406 678 383 676 393 l 479 635 l 767 710 b 782 733 782 715 788 722 l 756 822 b 728 831 750 833 742 838 l 450 722 l 468 1019 b 451 1042 469 1035 464 1042 l 358 1042 b 342 1019 346 1042 340 1035 l 360 721 z "},"+":{"ha":853,"x_min":0,"x_max":0,"o":"m 383 853 b 358 828 367 853 358 844 l 358 553 l 83 553 b 58 528 67 553 58 544 l 58 444 b 83 419 58 428 67 419 l 358 419 l 358 143 b 383 118 358 126 367 118 l 467 118 b 492 143 483 118 492 126 l 492 419 l 768 419 b 793 444 785 419 793 428 l 793 528 b 768 553 793 544 785 553 l 492 553 l 492 828 b 467 853 492 844 483 853 z "},",":{"ha":372,"x_min":0,"x_max":0,"o":"m 118 194 b 88 164 97 194 88 185 l 88 29 b 118 -1 88 8 97 -1 l 142 -1 l 104 -207 b 131 -239 101 -228 107 -239 l 186 -239 b 224 -207 208 -239 217 -231 l 275 -18 b 285 47 283 11 285 24 l 285 164 b 254 194 285 185 275 194 z "},"-":{"ha":529,"x_min":0,"x_max":0,"o":"m 56 553 b 31 528 39 553 31 544 l 31 428 b 56 403 31 411 39 403 l 474 403 b 499 428 490 403 499 411 l 499 528 b 474 553 499 544 490 553 z "},".":{"ha":372,"x_min":0,"x_max":0,"o":"m 118 194 b 88 164 97 194 88 185 l 88 31 b 118 0 88 10 97 0 l 254 0 b 285 31 275 0 285 10 l 285 164 b 254 194 285 185 275 194 z "},"/":{"ha":575,"x_min":0,"x_max":0,"o":"m 451 1132 b 425 1110 433 1132 429 1125 l 8 -179 b 25 -204 3 -194 11 -204 l 122 -204 b 149 -182 140 -204 144 -197 l 565 1107 b 549 1132 571 1122 563 1132 z "},":":{"ha":372,"x_min":0,"x_max":0,"o":"m 118 306 b 88 275 97 306 88 296 l 88 142 b 118 111 88 121 97 111 l 254 111 b 285 142 275 111 285 121 l 285 275 b 254 306 285 296 275 306 z m 118 721 b 88 690 97 721 88 711 l 88 557 b 118 526 88 536 97 526 l 254 526 b 285 557 275 526 285 536 l 285 690 b 254 721 285 711 275 721 z "},";":{"ha":372,"x_min":0,"x_max":0,"o":"m 118 306 b 88 275 97 306 88 296 l 88 140 b 118 110 88 119 97 110 l 142 110 l 104 -96 b 131 -128 101 -117 107 -128 l 186 -128 b 224 -96 208 -128 217 -119 l 275 93 b 285 158 283 122 285 135 l 285 275 b 254 306 285 296 275 306 z m 118 721 b 88 690 97 721 88 711 l 88 557 b 118 526 88 536 97 526 l 254 526 b 285 557 275 526 285 536 l 285 690 b 254 721 285 711 275 721 z "},"<":{"ha":853,"x_min":0,"x_max":0,"o":"m 119 610 b 58 529 75 593 58 572 l 58 446 b 119 367 58 403 75 382 l 758 132 b 793 154 776 125 793 133 l 793 238 b 774 267 793 254 788 263 l 224 468 b 213 483 215 471 213 475 l 213 492 b 224 508 213 500 215 506 l 774 708 b 793 738 788 713 793 721 l 793 822 b 758 844 793 842 776 851 z "},"=":{"ha":853,"x_min":0,"x_max":0,"o":"m 83 388 b 58 363 67 388 58 379 l 58 279 b 83 254 58 263 67 254 l 768 254 b 793 279 785 254 793 263 l 793 363 b 768 388 793 379 785 388 z m 83 719 b 58 694 67 719 58 711 l 58 613 b 83 588 58 596 67 588 l 768 588 b 793 613 785 588 793 596 l 793 694 b 768 719 793 711 785 719 z "},">":{"ha":853,"x_min":0,"x_max":0,"o":"m 732 365 b 793 446 776 382 793 403 l 793 529 b 732 608 793 572 776 593 l 93 843 b 58 821 75 850 58 842 l 58 738 b 78 708 58 721 64 713 l 628 507 b 639 492 636 504 639 500 l 639 483 b 628 467 639 475 636 469 l 78 267 b 58 238 64 263 58 254 l 58 153 b 93 131 58 133 75 124 z "},"?":{"ha":876,"x_min":0,"x_max":0,"o":"m 292 194 b 261 164 272 194 261 185 l 261 31 b 292 0 261 10 272 0 l 429 0 b 460 31 449 0 460 10 l 460 164 b 429 194 460 185 449 194 z m 71 1021 b 40 990 51 1021 40 1011 l 40 865 b 71 835 40 844 51 835 l 565 835 b 624 788 611 835 624 822 l 624 751 b 582 678 624 715 613 694 l 350 556 b 289 436 303 529 288 492 l 290 368 b 329 333 290 343 300 333 l 390 333 b 432 368 421 333 429 340 l 436 403 b 472 460 439 432 449 449 l 704 569 b 831 775 800 614 831 664 l 831 833 b 642 1021 831 958 771 1021 z "},"@":{"ha":1215,"x_min":0,"x_max":0,"o":"m 336 869 b 82 608 165 869 82 782 l 82 57 b 443 -306 82 -185 203 -306 l 1104 -306 b 1126 -283 1121 -306 1126 -300 l 1126 -160 b 1104 -137 1126 -144 1121 -137 l 442 -137 b 257 57 313 -137 257 -79 l 257 594 b 369 719 257 683 289 719 l 840 719 b 976 590 935 719 976 681 l 976 557 l 661 557 b 457 360 526 557 457 490 l 457 233 b 665 39 457 104 526 39 l 913 39 b 1133 285 1068 39 1133 110 l 1133 596 b 851 869 1133 778 1039 869 z m 868 172 l 699 172 b 610 260 636 172 610 200 l 610 339 b 699 428 610 400 638 428 l 976 428 l 976 290 b 868 172 976 206 946 172 z "},"A":{"ha":1354,"x_min":0,"x_max":0,"o":"m 626 972 b 481 867 568 972 525 951 l 25 32 b 42 0 15 13 19 0 l 224 0 b 256 17 242 0 249 4 l 346 186 l 1011 186 l 1103 17 b 1135 0 1108 4 1117 0 l 1311 0 b 1328 32 1333 0 1338 13 l 868 867 b 708 972 822 951 781 972 z m 443 367 l 657 765 b 672 775 661 772 665 775 l 681 775 b 697 765 688 775 693 772 l 913 367 z "},"B":{"ha":1276,"x_min":0,"x_max":0,"o":"m 135 972 b 93 931 107 972 93 958 l 93 42 b 135 0 93 14 107 0 l 958 0 b 1204 240 1133 0 1204 83 l 1204 321 b 1110 501 1204 404 1174 464 b 1197 676 1167 539 1197 597 l 1197 743 b 933 972 1197 901 1121 972 z m 304 408 l 874 408 b 994 328 964 408 994 388 l 994 282 b 892 194 994 221 963 194 l 322 194 b 304 214 310 194 304 200 z m 304 576 l 304 758 b 322 778 304 772 310 778 l 890 778 b 993 692 961 778 993 750 l 993 650 b 874 576 993 596 964 576 z "},"C":{"ha":1183,"x_min":0,"x_max":0,"o":"m 471 972 b 82 606 189 972 82 872 l 82 367 b 471 0 82 100 189 0 l 1096 0 b 1126 31 1117 0 1126 10 l 1126 167 b 1096 197 1126 188 1117 197 l 478 197 b 293 388 335 197 293 240 l 293 585 b 478 775 293 732 335 775 l 1096 775 b 1126 806 1117 775 1126 785 l 1126 942 b 1096 972 1126 963 1117 972 z "},"D":{"ha":1289,"x_min":0,"x_max":0,"o":"m 135 972 b 93 931 107 972 93 958 l 93 42 b 135 0 93 14 107 0 l 783 0 b 1208 392 1085 0 1208 121 l 1208 581 b 783 972 1208 851 1085 972 z m 304 758 b 322 776 304 771 310 776 l 778 776 b 997 563 942 776 997 726 l 997 410 b 778 196 997 246 942 196 l 322 196 b 304 214 310 196 304 201 z "},"E":{"ha":1181,"x_min":0,"x_max":0,"o":"m 471 972 b 82 606 189 972 82 871 l 82 367 b 471 0 82 101 189 0 l 1082 0 b 1113 31 1101 0 1113 10 l 1113 165 b 1082 196 1113 185 1101 196 l 472 196 b 292 382 329 196 292 236 l 292 399 l 1074 399 b 1104 429 1093 399 1104 408 l 1104 553 b 1074 583 1104 574 1093 583 l 292 583 l 292 590 b 472 776 292 736 329 776 l 1082 776 b 1113 807 1101 776 1113 788 l 1113 942 b 1082 972 1113 963 1101 972 z "},"F":{"ha":1158,"x_min":0,"x_max":0,"o":"m 471 972 b 82 606 189 972 82 872 l 82 31 b 113 0 82 10 92 0 l 263 0 b 293 31 283 0 293 10 l 293 385 l 1074 385 b 1104 415 1093 385 1104 394 l 1104 539 b 1074 569 1104 558 1093 569 l 293 569 l 293 590 b 478 776 293 736 335 776 l 1082 776 b 1113 807 1101 776 1113 788 l 1113 942 b 1082 972 1113 963 1101 972 z "},"G":{"ha":1286,"x_min":0,"x_max":0,"o":"m 471 972 b 82 606 189 972 82 872 l 82 367 b 471 0 82 100 189 0 l 1031 0 b 1203 213 1143 0 1203 57 l 1203 543 b 1161 585 1203 571 1189 585 l 582 585 b 551 554 563 585 551 574 l 551 432 b 582 401 551 411 563 401 l 989 401 b 1006 382 1000 401 1006 396 l 1006 279 b 936 196 1006 217 985 196 l 478 196 b 293 385 335 196 293 238 l 293 585 b 478 775 293 732 335 775 l 1174 775 b 1204 806 1193 775 1204 785 l 1204 942 b 1174 972 1204 963 1193 972 z "},"H":{"ha":1258,"x_min":0,"x_max":0,"o":"m 985 972 b 954 942 965 972 954 963 l 954 585 l 304 585 l 304 942 b 274 972 304 963 294 972 l 124 972 b 93 942 103 972 93 963 l 93 31 b 124 0 93 10 103 0 l 274 0 b 304 31 294 0 304 10 l 304 396 l 954 396 l 954 31 b 985 0 954 10 965 0 l 1135 0 b 1167 31 1156 0 1167 10 l 1167 942 b 1135 972 1167 963 1156 972 z "},"I":{"ha":397,"x_min":0,"x_max":0,"o":"m 124 972 b 93 942 103 972 93 963 l 93 31 b 124 0 93 10 103 0 l 274 0 b 304 31 294 0 304 10 l 304 942 b 274 972 304 963 294 972 z "},"J":{"ha":1085,"x_min":0,"x_max":0,"o":"m 814 972 b 783 942 793 972 783 963 l 783 388 b 599 197 783 240 742 197 l 63 197 b 32 167 43 197 32 188 l 32 31 b 63 0 32 10 43 0 l 607 0 b 996 367 889 0 996 101 l 996 942 b 964 972 996 963 985 972 z "},"K":{"ha":1186,"x_min":0,"x_max":0,"o":"m 124 972 b 93 942 103 972 93 963 l 93 31 b 124 0 93 10 103 0 l 274 0 b 304 31 294 0 304 10 l 304 404 l 515 404 b 669 347 606 404 633 394 l 926 18 b 967 0 936 4 944 0 l 1143 0 b 1161 36 1167 0 1172 25 l 876 397 b 771 497 842 442 808 474 b 854 590 797 519 824 550 l 1124 939 b 1107 972 1135 953 1128 972 l 933 972 b 893 954 910 972 903 968 l 651 635 b 497 579 615 588 592 579 l 304 579 l 304 942 b 274 972 304 963 294 972 z "},"L":{"ha":1113,"x_min":0,"x_max":0,"o":"m 121 972 b 90 942 100 972 90 963 l 90 367 b 479 0 90 100 197 0 l 1049 0 b 1079 31 1068 0 1079 10 l 1079 167 b 1049 197 1079 188 1068 197 l 486 197 b 301 388 343 197 301 240 l 301 942 b 271 972 301 963 292 972 z "},"M":{"ha":1658,"x_min":0,"x_max":0,"o":"m 214 972 b 93 828 118 972 93 938 l 93 31 b 124 0 93 10 103 0 l 269 0 b 300 31 290 0 300 10 l 300 756 b 313 769 300 765 304 769 l 325 769 b 343 758 335 769 339 767 l 614 136 b 792 0 657 32 701 0 l 871 0 b 1049 136 961 0 1007 32 l 1317 758 b 1336 769 1319 767 1325 769 l 1349 769 b 1358 756 1356 769 1358 765 l 1358 31 b 1389 0 1358 10 1369 0 l 1535 0 b 1567 31 1556 0 1567 10 l 1567 828 b 1444 972 1567 936 1540 972 l 1290 972 b 1143 867 1207 972 1178 956 l 860 200 b 840 188 857 192 850 188 l 824 188 b 804 200 815 188 808 192 l 519 867 b 371 972 483 956 453 972 z "},"N":{"ha":1358,"x_min":0,"x_max":0,"o":"m 217 972 b 93 828 129 972 93 938 l 93 31 b 124 0 93 10 103 0 l 272 0 b 303 31 292 0 303 10 l 303 756 b 314 769 303 765 306 769 l 326 769 b 344 760 335 769 339 767 l 857 82 b 1017 0 900 21 917 0 l 1140 0 b 1265 144 1228 0 1265 35 l 1265 942 b 1235 972 1265 963 1256 972 l 1086 972 b 1056 942 1065 972 1056 963 l 1056 217 b 1044 203 1056 207 1051 203 l 1032 203 b 1014 213 1024 203 1018 206 l 503 890 b 342 972 458 951 442 972 z "},"O":{"ha":1369,"x_min":0,"x_max":0,"o":"m 471 972 b 82 606 189 972 82 871 l 82 367 b 471 0 82 101 189 0 l 899 0 b 1288 367 1181 0 1288 100 l 1288 606 b 899 972 1288 872 1181 972 z m 293 590 b 478 776 293 736 333 776 l 890 776 b 1075 590 1035 776 1075 736 l 1075 382 b 890 196 1075 236 1035 196 l 478 196 b 293 382 333 196 293 236 z "},"P":{"ha":1224,"x_min":0,"x_max":0,"o":"m 135 972 b 93 931 107 972 93 958 l 93 31 b 124 0 93 10 103 0 l 274 0 b 304 31 294 0 304 10 l 304 293 l 879 293 b 1178 583 1092 293 1178 396 l 1178 688 b 879 972 1178 874 1092 972 z m 304 485 l 304 761 b 322 778 304 772 310 778 l 836 778 b 965 657 931 778 965 740 l 965 604 b 836 485 965 522 931 485 z "},"Q":{"ha":1369,"x_min":0,"x_max":0,"o":"m 471 972 b 82 606 189 972 82 871 l 82 390 b 471 24 82 125 189 24 l 775 24 l 938 -208 b 976 -226 946 -221 954 -226 l 1156 -226 b 1174 -190 1179 -226 1182 -203 l 1014 31 b 1288 390 1210 57 1288 164 l 1288 606 b 899 972 1288 872 1181 972 z m 293 590 b 478 776 293 736 333 776 l 890 776 b 1075 590 1035 776 1075 736 l 1075 406 b 890 219 1075 260 1035 219 l 478 219 b 293 406 333 219 293 260 z "},"R":{"ha":1257,"x_min":0,"x_max":0,"o":"m 135 972 b 93 931 107 972 93 958 l 93 31 b 124 0 93 10 103 0 l 274 0 b 304 31 294 0 304 10 l 304 300 l 744 300 l 965 18 b 1004 0 975 6 982 0 l 1190 0 b 1208 36 1213 0 1219 22 l 976 324 b 1178 607 1114 351 1178 446 l 1178 688 b 879 972 1178 879 1086 972 z m 304 483 l 304 763 b 322 778 304 774 310 778 l 836 778 b 965 658 929 778 965 743 l 965 600 b 836 483 965 517 931 483 z "},"S":{"ha":1190,"x_min":0,"x_max":0,"o":"m 321 972 b 76 746 161 972 76 889 l 76 643 b 318 399 76 488 163 399 l 839 399 b 911 328 890 399 911 378 l 911 271 b 838 196 911 219 886 196 l 108 196 b 78 165 88 196 78 185 l 78 31 b 108 0 78 10 88 0 l 878 0 b 1124 226 1038 0 1124 83 l 1124 339 b 881 583 1124 494 1036 583 l 361 583 b 288 654 310 583 288 604 l 288 701 b 361 776 288 753 311 776 l 1057 776 b 1088 807 1076 776 1088 788 l 1088 942 b 1057 972 1088 963 1076 972 z "},"T":{"ha":1213,"x_min":0,"x_max":0,"o":"m 63 972 b 32 942 43 972 32 963 l 32 806 b 63 775 32 785 43 775 l 500 775 l 500 31 b 531 0 500 10 511 0 l 682 0 b 711 31 703 0 711 10 l 711 775 l 1149 775 b 1181 806 1169 775 1181 785 l 1181 942 b 1149 972 1181 963 1169 972 z "},"U":{"ha":1357,"x_min":0,"x_max":0,"o":"m 121 972 b 90 942 100 972 90 963 l 90 367 b 479 0 90 100 197 0 l 878 0 b 1267 367 1160 0 1267 100 l 1267 942 b 1236 972 1267 963 1257 972 l 1085 972 b 1054 942 1065 972 1054 963 l 1054 388 b 871 197 1054 240 1014 197 l 486 197 b 301 388 343 197 301 240 l 301 942 b 271 972 301 963 292 972 z "},"V":{"ha":1354,"x_min":0,"x_max":0,"o":"m 42 972 b 25 940 19 972 15 958 l 485 106 b 644 0 529 21 572 0 l 726 0 b 874 106 785 0 828 21 l 1328 940 b 1311 972 1338 958 1333 972 l 1132 972 b 1100 954 1114 972 1107 968 l 699 207 b 682 197 694 200 689 197 l 675 197 b 658 207 668 197 663 200 l 254 954 b 222 972 247 968 240 972 z "},"W":{"ha":1810,"x_min":0,"x_max":0,"o":"m 42 972 b 31 940 26 972 25 960 l 289 106 b 404 0 314 21 342 0 l 569 0 b 675 106 624 0 650 22 l 889 765 b 900 775 890 772 894 775 l 907 775 b 917 765 913 775 915 772 l 1131 106 b 1238 0 1156 24 1183 0 l 1410 0 b 1517 106 1464 0 1492 24 l 1778 940 b 1767 972 1783 958 1779 972 l 1583 972 b 1563 954 1574 972 1567 968 l 1338 207 b 1325 197 1335 200 1332 197 l 1319 197 b 1307 207 1313 197 1310 200 l 1082 892 b 972 972 1064 951 1033 972 l 825 972 b 722 892 772 972 740 951 l 501 207 b 490 197 499 200 496 197 l 483 197 b 472 207 478 197 475 200 l 243 954 b 224 972 239 968 235 972 z "},"X":{"ha":1239,"x_min":0,"x_max":0,"o":"m 981 972 b 936 953 958 972 947 965 l 635 639 l 338 953 b 293 972 326 965 315 972 l 90 972 b 76 936 65 972 64 949 l 485 507 l 32 36 b 44 0 19 24 19 0 l 239 0 b 283 19 261 0 271 7 l 615 369 l 946 19 b 992 0 958 7 969 0 l 1193 0 b 1207 36 1218 0 1219 24 l 765 501 l 1188 936 b 1174 972 1200 949 1199 972 z "},"Y":{"ha":1246,"x_min":0,"x_max":0,"o":"m 33 972 b 19 944 17 972 10 958 l 514 297 l 514 31 b 546 0 514 11 525 0 l 694 0 b 726 31 715 0 726 11 l 726 297 l 1225 944 b 1213 972 1235 958 1229 972 l 1026 972 b 993 956 1011 972 1003 968 l 626 471 l 261 956 b 228 972 253 968 244 972 z "},"Z":{"ha":1186,"x_min":0,"x_max":0,"o":"m 107 972 b 76 942 86 972 76 963 l 76 807 b 107 776 76 788 86 776 l 863 776 b 876 765 871 776 876 772 l 876 754 b 864 733 876 744 872 739 l 132 357 b 67 240 76 331 67 308 l 67 106 b 176 0 67 33 101 0 l 1076 0 b 1107 31 1096 0 1107 10 l 1107 165 b 1076 196 1107 185 1096 196 l 313 196 b 299 207 304 196 299 200 l 299 218 b 311 239 299 228 301 235 l 1046 615 b 1115 733 1103 643 1115 665 l 1115 867 b 1004 972 1114 939 1081 972 z "},"[":{"ha":629,"x_min":0,"x_max":0,"o":"m 304 1244 b 192 1119 226 1244 192 1206 l 192 -182 b 304 -307 192 -268 226 -307 l 556 -307 b 572 -287 567 -307 572 -300 l 572 -192 b 556 -174 572 -179 567 -174 l 357 -174 b 325 -135 335 -174 325 -161 l 325 1072 b 357 1111 325 1099 335 1111 l 556 1111 b 572 1129 567 1111 572 1117 l 572 1225 b 556 1244 572 1238 567 1244 z "},"\\":{"ha":575,"x_min":0,"x_max":0,"o":"m 25 1132 b 8 1107 11 1132 3 1122 l 426 -182 b 453 -204 432 -197 435 -204 l 549 -204 b 565 -179 563 -204 571 -194 l 147 1110 b 121 1132 142 1125 139 1132 z "},"]":{"ha":629,"x_min":0,"x_max":0,"o":"m 325 -307 b 438 -182 403 -307 438 -268 l 438 1119 b 325 1244 438 1206 403 1244 l 74 1244 b 57 1225 63 1244 57 1238 l 57 1129 b 74 1111 57 1117 63 1111 l 272 1111 b 304 1072 294 1111 304 1099 l 304 -135 b 272 -174 304 -161 294 -174 l 74 -174 b 57 -192 63 -174 57 -179 l 57 -287 b 74 -307 57 -300 63 -307 z "},"^":{"ha":853,"x_min":0,"x_max":0,"o":"m 383 972 b 304 910 344 972 321 957 l 68 257 b 92 222 63 238 71 222 l 175 222 b 206 242 193 222 200 228 l 406 807 b 422 817 408 815 413 817 l 429 817 b 444 807 438 817 442 815 l 646 242 b 676 222 650 228 658 222 l 758 222 b 782 257 779 222 788 238 l 546 910 b 467 972 529 957 507 972 z "},"_":{"ha":892,"x_min":0,"x_max":0,"o":"m 33 -100 b 8 -125 17 -100 8 -108 l 8 -208 b 33 -233 8 -225 17 -233 l 860 -233 b 885 -208 876 -233 885 -225 l 885 -125 b 860 -100 885 -108 876 -100 z "},"`":{"ha":546,"x_min":0,"x_max":0,"o":"m 139 1133 b 118 1100 119 1133 106 1122 l 261 844 b 303 813 274 824 282 813 l 410 813 b 431 846 431 813 440 825 l 304 1101 b 261 1133 294 1121 283 1133 z "},"a":{"ha":1096,"x_min":0,"x_max":0,"o":"m 106 763 b 81 738 89 763 81 754 l 81 615 b 106 590 81 599 89 590 l 685 590 b 838 469 804 590 838 558 l 838 456 l 271 456 b 57 264 121 456 57 393 l 57 197 b 271 0 57 54 111 0 l 932 0 b 1035 111 1014 0 1035 22 l 1035 482 b 704 763 1035 686 950 763 z m 794 165 l 329 165 b 253 225 269 165 253 178 l 253 254 b 329 313 253 296 269 313 l 838 313 l 838 211 b 794 165 838 178 825 165 z "},"b":{"ha":1210,"x_min":0,"x_max":0,"o":"m 115 1042 b 85 1011 94 1042 85 1032 l 85 281 b 414 0 85 74 171 0 l 803 0 b 1133 281 1046 0 1133 74 l 1133 482 b 803 763 1133 689 1046 763 l 282 763 l 282 1011 b 251 1042 282 1032 272 1042 z m 282 590 l 783 590 b 936 443 904 590 936 560 l 936 319 b 783 172 936 201 904 172 l 433 172 b 282 319 314 172 282 201 z "},"c":{"ha":1013,"x_min":0,"x_max":0,"o":"m 385 763 b 54 482 139 763 54 686 l 54 281 b 385 0 54 75 139 0 l 943 0 b 968 25 960 0 968 8 l 968 147 b 943 172 968 164 960 172 l 404 172 b 253 319 283 172 253 203 l 253 443 b 404 590 253 560 283 590 l 943 590 b 968 615 960 590 968 599 l 968 738 b 943 763 968 754 960 763 z "},"d":{"ha":1210,"x_min":0,"x_max":0,"o":"m 406 763 b 76 482 161 763 76 686 l 76 281 b 406 0 76 75 161 0 l 794 0 b 1125 281 1040 0 1125 75 l 1125 1011 b 1094 1042 1125 1032 1115 1042 l 958 1042 b 928 1011 939 1042 928 1032 l 928 763 z m 775 172 l 425 172 b 274 319 306 172 274 201 l 274 443 b 425 590 274 561 306 590 l 928 590 l 928 319 b 775 172 928 201 894 172 z "},"e":{"ha":1096,"x_min":0,"x_max":0,"o":"m 388 763 b 57 482 142 763 57 686 l 57 281 b 388 0 57 75 142 0 l 986 0 b 1011 25 1003 0 1011 8 l 1011 147 b 986 172 1011 164 1003 172 l 407 172 b 254 289 288 172 254 201 l 254 314 l 956 314 b 1035 392 1011 314 1035 335 l 1035 535 b 794 763 1035 707 981 763 z m 254 457 l 254 485 b 407 597 254 572 283 597 l 754 597 b 839 529 822 597 839 583 l 839 481 b 815 457 839 465 832 457 z "},"f":{"ha":681,"x_min":0,"x_max":0,"o":"m 49 763 b 24 738 32 763 24 754 l 24 617 b 49 592 24 600 32 592 l 182 592 l 182 31 b 213 0 182 10 193 0 l 349 0 b 381 31 369 0 381 10 l 381 592 l 624 592 b 649 617 640 592 649 600 l 649 738 b 624 763 649 754 640 763 l 381 763 l 381 790 b 496 897 381 869 407 897 l 632 897 b 657 922 649 897 657 906 l 657 1043 b 632 1068 657 1060 649 1068 l 463 1068 b 182 790 247 1068 182 996 l 182 763 z "},"g":{"ha":1210,"x_min":0,"x_max":0,"o":"m 406 763 b 76 479 163 763 76 688 l 76 333 b 406 36 76 121 168 36 l 928 36 l 928 15 b 775 -135 928 -106 896 -135 l 140 -135 b 115 -160 124 -135 115 -143 l 115 -282 b 140 -307 115 -299 124 -307 l 794 -307 b 1125 -24 1039 -307 1125 -232 l 1125 482 b 794 763 1125 688 1038 763 z m 274 336 l 274 468 b 425 592 274 565 307 592 l 775 592 b 928 464 894 592 928 565 l 928 203 l 425 203 b 274 336 311 203 274 235 z "},"h":{"ha":1221,"x_min":0,"x_max":0,"o":"m 119 1042 b 89 1011 99 1042 89 1032 l 89 31 b 119 0 89 10 99 0 l 256 0 b 286 31 275 0 286 10 l 286 586 l 796 586 b 939 433 911 586 939 557 l 939 31 b 969 0 939 10 950 0 l 1106 0 b 1136 31 1126 0 1136 10 l 1136 482 b 806 763 1136 686 1051 763 l 286 763 l 286 1011 b 256 1042 286 1032 275 1042 z "},"i":{"ha":375,"x_min":0,"x_max":0,"o":"m 119 763 b 89 732 99 763 89 751 l 89 31 b 119 0 89 10 99 0 l 256 0 b 286 31 275 0 286 10 l 286 732 b 256 763 286 751 275 763 z m 119 1044 b 89 1014 99 1044 89 1035 l 89 882 b 119 850 89 861 99 850 l 256 850 b 286 882 276 850 286 861 l 286 1014 b 256 1044 286 1035 276 1044 z "},"j":{"ha":392,"x_min":0,"x_max":0,"o":"m 139 763 b 107 732 118 763 107 751 l 107 11 b -31 -135 107 -106 81 -135 l -121 -135 b -146 -160 -137 -135 -146 -143 l -146 -282 b -121 -307 -146 -299 -137 -307 l -11 -307 b 306 -28 225 -307 306 -232 l 306 732 b 275 763 306 751 294 763 z m 139 1044 b 108 1014 118 1044 108 1035 l 108 882 b 139 850 108 861 118 850 l 275 850 b 306 882 296 850 306 861 l 306 1014 b 275 1044 306 1035 296 1044 z "},"k":{"ha":1103,"x_min":0,"x_max":0,"o":"m 118 0 l 254 0 b 285 31 275 0 285 10 l 285 308 l 553 308 b 685 253 628 308 650 299 l 856 19 b 897 0 867 4 875 0 l 1061 0 b 1076 35 1081 0 1088 18 l 879 301 b 782 392 851 339 821 369 b 867 479 813 413 839 442 l 1046 725 b 1032 763 1058 743 1053 763 l 874 763 b 832 739 853 763 844 757 l 676 519 b 540 465 642 472 625 465 l 285 465 l 285 1011 b 254 1042 285 1032 275 1042 l 118 1042 b 88 1011 97 1042 88 1032 l 88 31 b 118 0 88 10 97 0 z "},"l":{"ha":375,"x_min":0,"x_max":0,"o":"m 119 1042 b 89 1011 99 1042 89 1032 l 89 31 b 119 0 89 10 99 0 l 256 0 b 286 31 275 0 286 10 l 286 1011 b 256 1042 286 1032 275 1042 z "},"m":{"ha":1538,"x_min":0,"x_max":0,"o":"m 414 763 b 85 482 169 763 85 686 l 85 31 b 115 0 85 10 94 0 l 251 0 b 282 31 272 0 282 10 l 282 433 b 433 586 282 551 314 586 l 669 586 l 669 31 b 700 0 669 10 679 0 l 836 0 b 867 31 857 0 867 10 l 867 586 l 1113 586 b 1256 433 1228 586 1256 557 l 1256 31 b 1286 0 1256 10 1265 0 l 1422 0 b 1453 31 1443 0 1453 10 l 1453 482 b 1124 763 1453 686 1368 763 z "},"n":{"ha":1228,"x_min":0,"x_max":0,"o":"m 414 763 b 85 482 169 763 85 686 l 85 31 b 115 0 85 10 94 0 l 251 0 b 282 31 272 0 282 10 l 282 433 b 433 586 282 551 314 586 l 803 586 b 946 433 918 586 946 557 l 946 31 b 976 0 946 10 957 0 l 1113 0 b 1143 31 1133 0 1143 10 l 1143 482 b 813 763 1143 686 1058 763 z "},"o":{"ha":1206,"x_min":0,"x_max":0,"o":"m 406 763 b 76 482 163 763 76 689 l 76 281 b 406 0 76 74 163 0 l 799 0 b 1129 281 1042 0 1129 74 l 1129 482 b 799 763 1129 689 1042 763 z m 274 447 b 425 592 274 563 304 592 l 779 592 b 932 447 901 592 932 563 l 932 315 b 779 169 932 199 901 169 l 425 169 b 274 315 304 169 274 199 z "},"p":{"ha":1210,"x_min":0,"x_max":0,"o":"m 414 763 b 85 482 171 763 85 689 l 85 -276 b 115 -307 85 -297 94 -307 l 251 -307 b 282 -276 272 -307 282 -297 l 282 0 l 803 0 b 1133 281 1046 0 1133 74 l 1133 482 b 803 763 1133 689 1046 763 z m 282 172 l 282 443 b 433 590 282 560 314 590 l 783 590 b 936 443 904 590 936 560 l 936 319 b 783 172 936 201 904 172 z "},"q":{"ha":1210,"x_min":0,"x_max":0,"o":"m 406 763 b 76 482 163 763 76 689 l 76 281 b 406 0 76 74 163 0 l 928 0 l 928 -276 b 958 -307 928 -297 939 -307 l 1094 -307 b 1125 -276 1115 -307 1125 -297 l 1125 482 b 794 763 1125 689 1038 763 z m 274 319 l 274 443 b 425 590 274 560 306 590 l 775 590 b 928 443 896 590 928 560 l 928 172 l 425 172 b 274 319 306 172 274 201 z "},"r":{"ha":853,"x_min":0,"x_max":0,"o":"m 414 763 b 85 482 169 763 85 686 l 85 31 b 115 0 85 10 94 0 l 251 0 b 282 31 272 0 282 10 l 282 443 b 433 590 282 560 313 590 l 803 590 b 828 615 819 590 828 599 l 828 738 b 803 763 828 754 819 763 z "},"s":{"ha":1088,"x_min":0,"x_max":0,"o":"m 289 763 b 71 572 136 763 71 694 l 71 511 b 288 317 71 382 140 317 l 756 317 b 832 265 810 317 832 301 l 832 228 b 756 169 832 182 814 169 l 96 169 b 71 144 79 169 71 161 l 71 25 b 96 0 71 8 79 0 l 807 0 b 1025 194 963 0 1025 67 l 1025 272 b 808 465 1025 400 956 465 l 342 465 b 264 518 285 465 264 479 l 264 539 b 342 593 264 579 283 593 l 968 593 b 993 618 985 593 993 601 l 993 738 b 968 763 993 754 985 763 z "},"t":{"ha":681,"x_min":0,"x_max":0,"o":"m 49 763 b 24 738 32 763 24 754 l 24 617 b 49 592 24 600 32 592 l 181 592 l 181 276 b 463 0 181 72 247 0 l 632 0 b 657 25 649 0 657 8 l 657 146 b 632 171 657 163 649 171 l 496 171 b 379 276 406 171 379 199 l 379 592 l 624 592 b 649 617 640 592 649 600 l 649 738 b 624 763 649 754 640 763 l 379 763 l 379 946 b 349 978 379 967 368 978 l 211 978 b 181 946 192 978 181 967 l 181 763 z "},"u":{"ha":1217,"x_min":0,"x_max":0,"o":"m 115 763 b 85 732 94 763 85 751 l 85 281 b 414 0 85 75 169 0 l 801 0 b 1132 281 1047 0 1132 75 l 1132 732 b 1101 763 1132 751 1122 763 l 965 763 b 935 732 946 763 935 751 l 935 328 b 782 176 935 210 901 176 l 425 176 b 282 328 310 176 282 206 l 282 732 b 251 763 282 751 272 763 z "},"v":{"ha":1153,"x_min":0,"x_max":0,"o":"m 42 763 b 24 728 22 763 13 746 l 407 63 b 522 0 432 17 460 0 l 635 0 b 751 63 696 0 726 17 l 1132 728 b 1113 763 1140 746 1132 763 l 960 763 b 928 743 943 763 935 757 l 600 169 b 586 161 596 161 593 161 l 579 161 b 565 169 572 161 571 161 l 236 743 b 203 763 229 757 219 763 z "},"w":{"ha":1618,"x_min":0,"x_max":0,"o":"m 49 763 b 25 728 28 763 18 751 l 240 86 b 347 0 264 21 286 0 l 518 0 b 611 86 569 0 589 24 l 792 593 b 803 601 793 599 796 601 l 813 601 b 825 593 819 601 822 599 l 1001 86 b 1094 0 1022 22 1043 0 l 1264 0 b 1371 86 1325 0 1349 21 l 1593 728 b 1571 763 1601 751 1592 763 l 1426 763 b 1394 740 1407 763 1399 756 l 1200 169 b 1189 160 1197 163 1194 160 l 1181 160 b 1168 169 1174 160 1169 163 l 986 696 b 896 763 969 744 949 763 l 726 763 b 638 696 674 763 654 744 l 451 169 b 439 160 449 163 444 160 l 429 160 b 418 169 424 160 419 163 l 229 740 b 197 763 225 756 215 763 z "},"x":{"ha":1099,"x_min":0,"x_max":0,"o":"m 78 763 b 63 726 54 763 47 740 l 419 393 l 29 36 b 44 0 14 21 19 0 l 221 0 b 260 15 239 0 249 4 l 540 281 l 825 15 b 865 0 836 4 847 0 l 1054 0 b 1068 36 1078 0 1083 21 l 692 388 l 1058 726 b 1043 763 1074 740 1068 763 l 868 763 b 828 746 850 763 840 757 l 569 501 l 307 746 b 267 763 296 757 286 763 z "},"y":{"ha":1122,"x_min":0,"x_max":0,"o":"m 939 763 b 906 743 922 763 914 757 l 583 175 b 544 207 563 178 557 186 l 236 743 b 203 763 229 757 219 763 l 42 763 b 24 728 22 763 14 744 l 399 81 b 496 21 421 39 447 24 l 431 -93 b 360 -125 418 -117 397 -125 l 260 -125 b 235 -150 243 -125 235 -133 l 235 -282 b 260 -307 235 -299 243 -307 l 357 -307 b 576 -212 474 -307 540 -278 l 1110 728 b 1092 763 1119 744 1111 763 z "},"z":{"ha":1018,"x_min":0,"x_max":0,"o":"m 93 763 b 68 738 76 763 68 754 l 68 617 b 93 592 68 600 76 592 l 739 592 b 751 582 747 592 751 588 l 751 572 b 740 553 751 561 749 556 l 124 314 b 61 215 74 294 61 274 l 61 86 b 157 0 61 26 90 0 l 925 0 b 950 25 942 0 950 8 l 950 146 b 925 171 950 163 942 171 l 279 171 b 267 181 271 171 267 174 l 267 190 b 278 210 267 200 269 207 l 894 450 b 957 549 944 468 957 490 l 957 676 b 861 763 957 735 928 763 z "},"{":{"ha":629,"x_min":0,"x_max":0,"o":"m 463 1244 b 231 993 301 1244 231 1171 l 231 611 b 161 535 231 557 211 535 l 99 535 b 74 510 82 535 74 526 l 74 425 b 99 400 74 408 82 400 l 161 400 b 231 325 211 400 231 378 l 231 -56 b 463 -307 231 -233 301 -307 l 556 -307 b 572 -287 567 -307 572 -300 l 572 -192 b 556 -174 572 -179 567 -174 l 468 -174 b 364 -56 393 -174 364 -143 l 364 321 b 300 467 364 383 339 433 b 364 614 339 501 364 553 l 364 993 b 468 1111 364 1081 393 1111 l 556 1111 b 572 1129 567 1111 572 1117 l 572 1225 b 556 1244 572 1238 567 1244 z "},"|":{"ha":588,"x_min":0,"x_max":0,"o":"m 253 1132 b 228 1107 236 1132 228 1124 l 228 -178 b 253 -203 228 -194 236 -203 l 336 -203 b 361 -178 353 -203 361 -194 l 361 1107 b 336 1132 361 1124 353 1132 z "},"}":{"ha":629,"x_min":0,"x_max":0,"o":"m 167 -307 b 399 -56 328 -307 399 -233 l 399 326 b 468 403 399 381 418 403 l 531 403 b 556 428 547 403 556 411 l 556 513 b 531 538 556 529 547 538 l 468 538 b 399 613 418 538 399 560 l 399 993 b 167 1244 399 1171 328 1244 l 74 1244 b 57 1225 63 1244 57 1238 l 57 1129 b 74 1111 57 1117 63 1111 l 161 1111 b 265 993 236 1111 265 1081 l 265 617 b 329 471 265 554 290 504 b 265 324 290 436 265 385 l 265 -56 b 161 -174 265 -143 236 -174 l 74 -174 b 57 -192 63 -174 57 -179 l 57 -287 b 74 -307 57 -300 63 -307 z "},"~":{"ha":853,"x_min":0,"x_max":0,"o":"m 58 449 b 83 424 58 431 67 424 b 126 446 101 424 111 432 b 250 496 171 485 203 496 b 408 451 306 496 356 481 b 607 393 471 418 536 393 b 793 489 660 393 793 415 l 793 569 b 768 594 793 588 785 594 b 724 572 749 594 740 586 b 600 524 679 535 647 524 b 447 567 546 524 501 539 b 243 626 381 600 314 626 b 58 529 189 626 58 604 z "}," ":{"ha":465,"x_min":0,"x_max":0,"o":""},"¡":{"ha":369,"x_min":0,"x_max":0,"o":"m 253 521 b 283 551 274 521 283 531 l 283 685 b 253 715 283 706 274 715 l 117 715 b 86 685 96 715 86 706 l 86 551 b 117 521 86 531 96 521 z m 263 -306 b 293 -274 283 -306 294 -294 l 256 351 b 225 382 254 372 246 382 l 144 382 b 114 351 124 382 115 372 l 76 -274 b 107 -306 75 -294 86 -306 z "},"¢":{"ha":1133,"x_min":0,"x_max":0,"o":"m 575 1056 b 550 1031 558 1056 550 1047 l 550 926 l 406 926 b 69 622 156 926 69 844 l 69 357 b 406 53 69 135 156 53 l 550 53 l 550 -58 b 575 -83 550 -75 558 -83 l 649 -83 b 674 -58 665 -83 674 -75 l 674 53 l 981 53 b 1007 81 999 53 1007 63 l 1007 217 b 981 244 1007 235 999 244 l 674 244 l 674 735 l 981 735 b 1007 763 999 735 1007 744 l 1007 899 b 981 926 1007 917 999 926 l 674 926 l 674 1031 b 649 1056 674 1047 665 1056 z m 276 399 l 276 581 b 425 735 276 706 304 735 l 550 735 l 550 244 l 425 244 b 276 399 304 244 276 274 z "},"£":{"ha":922,"x_min":0,"x_max":0,"o":"m 64 556 b 39 531 47 556 39 547 l 39 457 b 64 432 39 440 47 432 l 199 432 l 199 192 l 63 192 b 32 161 43 192 32 182 l 32 31 b 63 0 32 10 43 0 l 849 0 b 879 31 869 0 879 10 l 879 161 b 849 192 879 182 869 192 l 407 192 l 407 432 l 707 432 b 732 457 724 432 732 440 l 732 531 b 707 556 732 547 724 556 l 407 556 l 407 672 b 508 781 407 757 429 781 l 832 781 b 864 811 853 781 864 790 l 864 942 b 832 972 864 963 853 972 l 465 972 b 199 690 272 972 199 896 l 199 556 z "},"¤":{"ha":1033,"x_min":0,"x_max":0,"o":"m 358 826 b 278 819 326 826 300 824 l 200 897 b 164 897 188 908 176 908 l 106 839 b 106 803 94 826 94 815 l 182 726 b 176 668 178 710 176 690 l 176 301 b 182 244 176 281 178 261 l 106 169 b 106 133 94 157 94 144 l 164 75 b 200 75 176 64 188 64 l 275 151 b 358 143 299 146 325 143 l 672 143 b 758 151 707 143 735 146 l 835 75 b 869 75 846 64 857 64 l 928 133 b 928 169 939 144 939 157 l 851 246 b 856 301 854 263 856 281 l 856 668 b 850 726 856 690 854 710 l 928 803 b 928 839 939 815 939 826 l 869 897 b 833 897 857 908 846 908 l 756 818 b 672 826 733 824 706 826 z m 383 700 l 628 700 b 724 619 706 700 724 683 l 724 351 b 650 269 724 286 708 269 l 383 269 b 308 351 325 269 308 286 l 308 619 b 383 700 308 683 325 700 z "},"¥":{"ha":1071,"x_min":0,"x_max":0,"o":"m 153 528 b 128 503 136 528 128 519 l 128 429 b 153 404 128 413 136 404 l 428 404 l 428 286 l 153 286 b 128 261 136 286 128 278 l 128 186 b 153 161 128 169 136 161 l 428 161 l 428 31 b 457 0 428 10 439 0 l 608 0 b 636 31 628 0 636 10 l 636 161 l 917 161 b 942 186 933 161 942 169 l 942 261 b 917 286 942 278 933 286 l 636 286 l 636 404 l 917 404 b 942 429 933 404 942 413 l 942 503 b 917 528 942 519 933 528 l 706 528 l 1011 944 b 999 972 1019 957 1013 972 l 825 972 b 794 956 810 972 803 968 l 536 594 l 282 956 b 251 972 274 967 265 972 l 69 972 b 57 944 56 972 49 957 l 360 528 z "},"¦":{"ha":588,"x_min":0,"x_max":0,"o":"m 253 382 b 228 357 236 382 228 374 l 228 -178 b 253 -203 228 -194 236 -203 l 336 -203 b 361 -178 353 -203 361 -194 l 361 357 b 336 382 361 374 353 382 z m 253 1132 b 228 1107 236 1132 228 1124 l 228 572 b 253 547 228 556 236 547 l 336 547 b 361 572 353 547 361 556 l 361 1107 b 336 1132 361 1124 353 1132 z "},"§":{"ha":1018,"x_min":0,"x_max":0,"o":"m 157 1043 b 61 956 90 1043 61 1015 l 61 831 b 124 732 61 772 72 750 l 740 492 b 750 472 749 489 750 483 l 750 463 b 739 453 750 456 747 453 l 158 453 b 63 367 92 453 63 425 l 63 239 b 125 140 63 182 75 160 l 742 -97 b 753 -117 750 -100 753 -106 l 753 -126 b 740 -136 753 -133 749 -136 l 94 -136 b 69 -161 78 -136 69 -144 l 69 -282 b 94 -307 69 -299 78 -307 l 863 -307 b 958 -221 929 -307 958 -281 l 958 -100 b 896 4 958 -39 946 -14 l 279 243 b 268 261 271 246 268 251 l 268 272 b 279 282 268 279 272 282 l 860 282 b 957 368 926 282 957 308 l 957 494 b 894 593 957 553 944 575 l 276 833 b 267 853 269 836 267 842 l 267 863 b 279 872 267 869 271 872 l 925 872 b 950 897 942 872 950 881 l 950 1018 b 925 1043 950 1035 942 1043 z "},"¨":{"ha":760,"x_min":0,"x_max":0,"o":"m 118 1044 b 88 1014 97 1044 88 1035 l 88 882 b 118 850 88 861 97 850 l 254 850 b 285 882 275 850 285 861 l 285 1014 b 254 1044 285 1035 275 1044 z m 506 1044 b 475 1014 485 1044 475 1035 l 475 882 b 506 850 475 861 485 850 l 642 850 b 672 882 663 850 672 861 l 672 1014 b 642 1044 672 1035 663 1044 z "},"©":{"ha":1369,"x_min":0,"x_max":0,"o":"m 594 746 b 394 557 450 746 394 693 l 394 435 b 594 244 394 297 450 244 l 917 244 b 931 260 926 244 931 250 l 931 325 b 917 340 931 335 926 340 l 599 340 b 496 444 521 340 496 364 l 496 547 b 599 651 496 626 521 651 l 917 651 b 931 665 926 651 931 656 l 931 731 b 917 746 931 740 926 746 z m 471 972 b 82 606 189 972 82 871 l 82 367 b 471 0 82 101 189 0 l 899 0 b 1288 367 1181 0 1288 100 l 1288 606 b 899 972 1288 872 1181 972 z m 188 604 b 471 867 188 796 264 867 l 897 867 b 1182 604 1106 867 1182 797 l 1182 368 b 897 106 1182 175 1106 106 l 471 106 b 188 368 264 106 188 176 z "},"ª":{"ha":650,"x_min":0,"x_max":0,"o":"m 82 972 b 68 958 72 972 68 968 l 68 863 b 82 847 68 853 72 847 l 385 847 b 464 779 446 847 464 829 l 464 758 l 174 758 b 56 657 88 758 56 726 l 56 542 b 174 431 56 461 86 431 l 536 431 b 593 493 581 431 593 443 l 593 814 b 411 972 593 929 546 972 z m 444 551 l 221 551 b 182 590 193 551 182 563 l 182 618 b 221 654 182 642 193 654 l 464 654 l 464 575 b 444 551 464 557 458 551 z "},"«":{"ha":743,"x_min":0,"x_max":0,"o":"m 236 763 b 199 739 218 763 206 753 l 61 454 b 44 389 49 428 44 414 l 44 374 b 61 308 44 349 49 335 l 199 24 b 236 0 206 8 218 0 l 342 0 b 363 29 363 0 371 14 l 208 344 b 200 375 203 354 200 364 l 200 388 b 208 418 200 397 203 408 l 363 733 b 342 763 371 749 363 763 z m 568 763 b 531 739 550 763 538 753 l 393 454 b 376 389 381 428 376 414 l 376 374 b 393 308 376 349 381 335 l 531 24 b 568 0 538 8 550 0 l 674 0 b 694 29 694 0 703 14 l 540 344 b 532 375 535 354 532 364 l 532 388 b 540 418 532 397 535 408 l 694 733 b 674 763 703 749 694 763 z "},"¬":{"ha":853,"x_min":0,"x_max":0,"o":"m 83 764 b 58 739 67 764 58 756 l 58 656 b 83 631 58 639 67 631 l 660 631 l 660 25 b 685 0 660 8 668 0 l 768 0 b 793 25 785 0 793 8 l 793 735 b 764 764 793 754 783 764 z "},"­":{"ha":529,"x_min":0,"x_max":0,"o":"m 56 553 b 31 528 39 553 31 544 l 31 428 b 56 403 31 411 39 403 l 474 403 b 499 428 490 403 499 411 l 499 528 b 474 553 499 544 490 553 z "},"®":{"ha":1369,"x_min":0,"x_max":0,"o":"m 471 972 b 82 606 189 972 82 871 l 82 367 b 471 0 82 101 189 0 l 899 0 b 1288 367 1181 0 1288 100 l 1288 606 b 899 972 1288 872 1181 972 z m 431 746 b 408 725 415 746 408 739 l 408 260 b 424 244 408 250 414 244 l 496 244 b 510 260 506 244 510 250 l 510 406 l 751 406 l 863 260 b 893 244 871 247 875 244 l 969 244 b 979 265 985 244 985 257 l 857 417 b 965 558 933 429 965 476 l 965 599 b 811 746 965 696 921 746 z m 188 604 b 471 867 188 796 264 867 l 897 867 b 1182 604 1106 867 1182 797 l 1182 368 b 897 106 1182 175 1106 106 l 471 106 b 188 368 264 106 188 176 z m 510 486 l 510 646 b 519 654 510 651 514 654 l 792 654 b 863 586 843 654 863 632 l 863 556 b 790 486 863 508 843 486 z "},"¯":{"ha":888,"x_min":0,"x_max":0,"o":"m 118 1019 b 88 989 97 1019 88 1010 l 88 908 b 118 878 88 888 97 878 l 769 878 b 800 908 790 878 800 888 l 800 989 b 769 1019 800 1010 790 1019 z "},"°":{"ha":721,"x_min":0,"x_max":0,"o":"m 275 972 b 74 781 129 972 74 919 l 74 657 b 275 465 74 518 129 465 l 443 465 b 646 657 590 465 646 518 l 646 781 b 443 972 646 919 590 972 z m 206 757 b 294 844 206 829 221 844 l 424 844 b 513 757 497 844 513 829 l 513 681 b 424 593 513 608 497 593 l 294 593 b 206 681 221 593 206 608 z "},"±":{"ha":853,"x_min":0,"x_max":0,"o":"m 83 133 b 58 108 67 133 58 125 l 58 25 b 83 0 58 8 67 0 l 768 0 b 793 25 785 0 793 8 l 793 108 b 768 133 793 125 785 133 z m 383 931 b 358 906 367 931 358 922 l 358 631 l 83 631 b 58 606 67 631 58 622 l 58 522 b 83 497 58 506 67 497 l 358 497 l 358 221 b 383 196 358 204 367 196 l 467 196 b 492 221 483 196 492 204 l 492 497 l 768 497 b 793 522 785 497 793 506 l 793 606 b 768 631 793 622 785 631 l 492 631 l 492 906 b 467 931 492 922 483 931 z "},"²":{"ha":708,"x_min":0,"x_max":0,"o":"m 104 972 b 86 954 92 972 86 967 l 86 878 b 104 861 86 867 92 861 l 483 861 b 519 821 507 861 519 849 l 519 796 b 485 756 519 768 508 756 l 200 756 b 67 622 113 756 67 708 l 67 501 b 138 438 67 457 86 438 l 624 438 b 642 456 636 438 642 443 l 642 532 b 624 549 642 543 636 549 l 201 549 b 189 561 193 549 189 553 l 189 617 b 225 658 189 646 200 658 l 508 658 b 643 790 596 658 643 707 l 643 847 b 507 972 643 926 596 972 z "},"³":{"ha":693,"x_min":0,"x_max":0,"o":"m 79 972 b 63 956 67 972 63 967 l 63 878 b 79 861 63 867 67 861 l 454 861 b 500 818 486 861 500 849 l 500 801 b 454 757 500 769 489 757 l 85 757 b 67 740 72 757 67 751 l 67 676 b 85 660 67 665 72 660 l 454 660 b 500 611 489 660 500 646 l 500 592 b 454 549 500 561 488 549 l 79 549 b 63 532 68 549 63 543 l 63 456 b 79 438 63 443 68 438 l 496 438 b 624 569 588 438 624 482 l 624 614 b 578 714 624 657 608 692 b 619 810 604 736 619 769 l 619 846 b 481 972 619 935 581 972 z "},"´":{"ha":546,"x_min":0,"x_max":0,"o":"m 283 1133 b 240 1101 264 1133 251 1124 l 115 846 b 136 813 106 826 114 813 l 242 813 b 283 844 260 813 269 819 l 426 1100 b 407 1133 436 1119 428 1133 z "},"¶":{"ha":1114,"x_min":0,"x_max":0,"o":"m 360 1042 b 85 801 154 1042 85 978 l 85 629 b 360 388 85 451 154 388 l 525 388 l 525 -281 b 550 -307 525 -299 533 -307 l 681 -307 b 708 -281 699 -307 708 -299 l 708 924 b 586 1042 708 1003 667 1042 z m 872 1042 b 846 1015 854 1042 846 1033 l 846 -281 b 872 -307 846 -299 854 -307 l 1001 -307 b 1028 -281 1019 -307 1028 -299 l 1028 1015 b 1001 1042 1028 1033 1019 1042 z m 267 658 l 267 778 b 371 882 267 861 288 882 l 476 882 b 525 832 510 882 525 865 l 525 547 l 364 547 b 267 658 286 547 267 571 z "},"·":{"ha":372,"x_min":0,"x_max":0,"o":"m 118 585 b 88 554 97 585 88 575 l 88 421 b 118 390 88 400 97 390 l 254 390 b 285 421 275 390 285 400 l 285 554 b 254 585 285 575 275 585 z "},"¸":{"ha":439,"x_min":0,"x_max":0,"o":"m 196 -57 b 163 -89 176 -57 164 -68 l 140 -346 b 172 -378 139 -367 150 -378 l 251 -378 b 286 -346 271 -378 281 -368 l 346 -93 b 321 -57 351 -69 342 -57 z "},"¹":{"ha":338,"x_min":0,"x_max":0,"o":"m 58 972 b 42 954 47 972 42 967 l 42 878 b 58 861 42 867 47 861 l 113 861 b 136 838 128 861 136 854 l 136 456 b 153 438 136 443 142 438 l 239 438 b 257 456 251 438 257 443 l 257 897 b 176 972 257 949 235 972 z "},"º":{"ha":711,"x_min":0,"x_max":0,"o":"m 247 972 b 67 814 113 972 67 929 l 67 589 b 247 431 67 474 113 431 l 464 431 b 646 589 599 431 646 474 l 646 814 b 464 972 646 929 599 972 z m 194 776 b 268 849 194 839 203 849 l 443 849 b 517 776 508 849 517 839 l 517 628 b 443 556 517 565 508 556 l 268 556 b 194 628 203 556 194 564 z "},"»":{"ha":743,"x_min":0,"x_max":0,"o":"m 69 763 b 49 733 49 763 40 749 l 203 418 b 210 388 207 408 210 397 l 210 374 b 203 344 210 364 207 354 l 49 29 b 69 0 40 14 49 0 l 175 0 b 213 24 193 0 204 8 l 350 308 b 367 374 363 335 367 349 l 367 390 b 350 454 367 414 363 428 l 213 739 b 175 763 204 753 193 763 z m 401 763 b 381 733 381 763 372 749 l 535 418 b 542 388 539 408 542 397 l 542 374 b 535 344 542 364 539 354 l 381 29 b 401 0 372 14 381 0 l 507 0 b 544 24 525 0 536 8 l 682 308 b 699 374 694 335 699 349 l 699 390 b 682 454 699 414 694 428 l 544 739 b 507 763 536 753 525 763 z "},"¼":{"ha":1304,"x_min":0,"x_max":0,"o":"m 614 281 b 581 210 585 261 581 236 l 581 146 b 635 96 581 117 599 96 l 1024 96 l 1024 18 b 1040 0 1024 6 1029 0 l 1128 0 b 1146 18 1139 0 1146 6 l 1146 96 l 1207 96 b 1224 114 1218 96 1224 103 l 1224 185 b 1207 201 1224 196 1218 201 l 1146 201 l 1146 453 b 1075 535 1146 518 1122 535 l 1025 535 b 942 510 988 535 971 529 z m 892 972 b 856 958 872 972 863 968 l 106 25 b 115 0 96 14 100 0 l 200 0 b 238 14 221 0 229 4 l 988 947 b 978 972 997 958 993 972 z m 144 972 b 128 954 133 972 128 967 l 128 878 b 144 861 128 867 133 861 l 199 861 b 222 838 214 861 222 854 l 222 456 b 239 438 222 443 228 438 l 325 438 b 343 456 338 438 343 443 l 343 897 b 263 972 343 949 321 972 z m 715 208 l 715 215 b 722 229 715 222 717 226 l 989 418 b 1010 425 997 424 1001 425 l 1015 425 b 1024 415 1019 425 1024 422 l 1024 201 l 722 201 b 715 208 718 201 715 204 z "},"½":{"ha":1389,"x_min":0,"x_max":0,"o":"m 769 535 b 751 517 757 535 751 529 l 751 440 b 769 424 751 429 757 424 l 1149 424 b 1185 383 1172 424 1185 411 l 1185 358 b 1150 318 1185 331 1174 318 l 865 318 b 732 185 778 318 732 271 l 732 64 b 803 0 732 19 751 0 l 1289 0 b 1307 18 1301 0 1307 6 l 1307 94 b 1289 111 1307 106 1301 111 l 867 111 b 854 124 858 111 854 115 l 854 179 b 890 221 854 208 865 221 l 1174 221 b 1308 353 1261 221 1308 269 l 1308 410 b 1172 535 1308 489 1261 535 z m 144 972 b 128 954 133 972 128 967 l 128 878 b 144 861 128 867 133 861 l 199 861 b 222 838 214 861 222 854 l 222 456 b 239 438 222 443 228 438 l 325 438 b 343 456 338 438 343 443 l 343 897 b 263 972 343 949 321 972 z m 892 972 b 856 958 872 972 863 968 l 106 25 b 115 0 96 14 100 0 l 200 0 b 238 14 221 0 229 4 l 988 947 b 978 972 997 958 993 972 z "},"¾":{"ha":1593,"x_min":0,"x_max":0,"o":"m 901 281 b 868 210 872 261 868 236 l 868 146 b 922 96 868 117 886 96 l 1311 96 l 1311 18 b 1328 0 1311 6 1317 0 l 1415 0 b 1433 18 1426 0 1433 6 l 1433 96 l 1494 96 b 1511 114 1506 96 1511 103 l 1511 185 b 1494 201 1511 196 1506 201 l 1433 201 l 1433 453 b 1363 535 1433 518 1410 535 l 1313 535 b 1229 510 1275 535 1258 529 z m 99 972 b 82 956 86 972 82 967 l 82 878 b 99 861 82 867 86 861 l 474 861 b 519 818 506 861 519 849 l 519 801 b 474 757 519 769 508 757 l 104 757 b 86 740 92 757 86 751 l 86 676 b 104 660 86 665 92 660 l 474 660 b 519 611 508 660 519 646 l 519 592 b 474 549 519 561 507 549 l 99 549 b 82 532 88 549 82 543 l 82 456 b 99 438 82 443 88 438 l 515 438 b 643 569 607 438 643 482 l 643 614 b 597 714 643 657 628 692 b 639 810 624 736 639 769 l 639 846 b 500 972 639 935 600 972 z m 1179 972 b 1143 958 1160 972 1150 968 l 393 25 b 403 0 383 14 388 0 l 488 0 b 525 14 508 0 517 4 l 1275 947 b 1265 972 1285 958 1281 972 z m 1003 208 l 1003 215 b 1010 229 1003 222 1004 226 l 1276 418 b 1297 425 1285 424 1289 425 l 1303 425 b 1311 415 1307 425 1311 422 l 1311 201 l 1010 201 b 1003 208 1006 201 1003 204 z "},"¿":{"ha":876,"x_min":0,"x_max":0,"o":"m 582 521 b 613 551 601 521 613 531 l 613 685 b 582 715 613 706 601 715 l 444 715 b 414 685 425 715 414 706 l 414 551 b 444 521 414 531 425 521 z m 803 -306 b 833 -275 822 -306 833 -296 l 833 -150 b 803 -119 833 -129 822 -119 l 308 -119 b 250 -72 263 -119 250 -107 l 250 -36 b 292 38 250 0 261 21 l 524 160 b 585 279 571 186 586 224 l 583 347 b 544 382 583 372 574 382 l 483 382 b 442 347 453 382 444 375 l 438 313 b 401 256 435 283 425 267 l 169 146 b 43 -60 74 101 43 51 l 43 -118 b 232 -306 43 -243 103 -306 z "},"À":{"ha":1354,"x_min":0,"x_max":0,"o":"m 626 972 b 481 867 568 972 525 951 l 25 32 b 42 0 15 13 19 0 l 224 0 b 256 17 242 0 249 4 l 346 186 l 1011 186 l 1103 17 b 1135 0 1108 4 1117 0 l 1311 0 b 1328 32 1333 0 1338 13 l 868 867 b 708 972 822 951 781 972 z m 501 1272 b 481 1246 482 1272 469 1264 l 622 1040 b 664 1015 633 1024 643 1015 l 771 1015 b 790 1042 792 1015 800 1025 l 667 1247 b 624 1272 657 1263 644 1272 z m 443 367 l 657 765 b 672 775 661 772 665 775 l 681 775 b 697 765 688 775 693 772 l 913 367 z "},"Á":{"ha":1354,"x_min":0,"x_max":0,"o":"m 626 972 b 481 867 568 972 525 951 l 25 32 b 42 0 15 13 19 0 l 224 0 b 256 17 242 0 249 4 l 346 186 l 1011 186 l 1103 17 b 1135 0 1108 4 1117 0 l 1311 0 b 1328 32 1333 0 1338 13 l 868 867 b 708 972 822 951 781 972 z m 729 1272 b 686 1247 708 1272 696 1263 l 563 1042 b 583 1015 553 1025 561 1015 l 689 1015 b 732 1040 710 1015 719 1024 l 872 1246 b 853 1272 883 1264 872 1272 z m 443 367 l 657 765 b 672 775 661 772 665 775 l 681 775 b 697 765 688 775 693 772 l 913 367 z "},"Â":{"ha":1354,"x_min":0,"x_max":0,"o":"m 626 972 b 481 867 568 972 525 951 l 25 32 b 42 0 15 13 19 0 l 224 0 b 256 17 242 0 249 4 l 346 186 l 1011 186 l 1103 17 b 1135 0 1108 4 1117 0 l 1311 0 b 1328 32 1333 0 1338 13 l 868 867 b 708 972 822 951 781 972 z m 615 1272 b 556 1243 585 1272 571 1263 l 408 1043 b 426 1015 397 1028 407 1015 l 533 1015 b 576 1040 556 1015 565 1024 l 657 1160 b 675 1171 661 1168 665 1171 l 681 1171 b 699 1160 688 1171 693 1168 l 778 1040 b 822 1015 789 1024 800 1015 l 929 1015 b 947 1043 949 1015 958 1028 l 800 1243 b 739 1272 785 1263 769 1272 z m 443 367 l 657 765 b 672 775 661 772 665 775 l 681 775 b 697 765 688 775 693 772 l 913 367 z "},"Ã":{"ha":1354,"x_min":0,"x_max":0,"o":"m 626 972 b 481 867 568 972 525 951 l 25 32 b 42 0 15 13 19 0 l 224 0 b 256 17 242 0 249 4 l 346 186 l 1011 186 l 1103 17 b 1135 0 1108 4 1117 0 l 1311 0 b 1328 32 1333 0 1338 13 l 868 867 b 708 972 822 951 781 972 z m 422 1032 b 461 1063 447 1032 460 1042 b 525 1153 461 1138 469 1153 b 629 1115 569 1153 597 1142 b 858 1038 697 1061 765 1038 b 1033 1232 985 1038 1033 1083 b 1007 1272 1033 1264 1029 1272 l 929 1272 b 892 1243 906 1272 893 1264 b 828 1151 892 1167 883 1151 b 722 1189 783 1151 757 1161 b 494 1267 656 1243 586 1267 b 319 1072 368 1267 319 1221 b 344 1032 319 1042 324 1032 z m 443 367 l 657 765 b 672 775 661 772 665 775 l 681 775 b 697 765 688 775 693 772 l 913 367 z "},"Ä":{"ha":1354,"x_min":0,"x_max":0,"o":"m 626 972 b 481 867 568 972 525 951 l 25 32 b 42 0 15 13 19 0 l 224 0 b 256 17 242 0 249 4 l 346 186 l 1011 186 l 1103 17 b 1135 0 1108 4 1117 0 l 1311 0 b 1328 32 1333 0 1338 13 l 868 867 b 708 972 822 951 781 972 z m 415 1229 b 385 1204 396 1229 385 1221 l 385 1072 b 415 1047 385 1056 396 1047 l 551 1047 b 583 1072 572 1047 583 1056 l 583 1204 b 551 1229 583 1221 572 1229 z m 803 1229 b 772 1204 783 1229 772 1221 l 772 1072 b 803 1047 772 1056 783 1047 l 940 1047 b 971 1072 960 1047 971 1056 l 971 1204 b 940 1229 971 1221 960 1229 z m 443 367 l 657 765 b 672 775 661 772 665 775 l 681 775 b 697 765 688 775 693 772 l 913 367 z "},"Å":{"ha":1354,"x_min":0,"x_max":0,"o":"m 626 972 b 481 867 568 972 525 951 l 25 32 b 42 0 15 13 19 0 l 224 0 b 256 17 242 0 249 4 l 346 186 l 1011 186 l 1103 17 b 1135 0 1108 4 1117 0 l 1311 0 b 1328 32 1333 0 1338 13 l 868 867 b 708 972 822 951 781 972 z m 608 1272 b 467 1164 506 1272 467 1242 l 467 1094 b 608 986 467 1017 506 986 l 743 986 b 886 1094 846 986 886 1017 l 886 1164 b 743 1272 886 1242 846 1272 z m 443 367 l 657 765 b 672 775 661 772 665 775 l 681 775 b 697 765 688 775 693 772 l 913 367 z m 574 1149 b 628 1190 574 1185 581 1190 l 725 1190 b 779 1149 772 1190 779 1186 l 779 1108 b 725 1068 779 1072 774 1068 l 628 1068 b 574 1108 579 1068 574 1072 z "},"Æ":{"ha":1875,"x_min":0,"x_max":0,"o":"m 626 972 b 481 867 565 972 524 947 l 25 32 b 42 0 15 13 19 0 l 224 0 b 256 17 240 0 249 4 l 346 186 l 865 186 b 1229 0 911 53 1024 0 l 1774 0 b 1806 31 1794 0 1806 10 l 1806 164 b 1774 194 1806 185 1794 194 l 1233 194 b 1050 382 1089 194 1050 236 l 1050 399 l 1767 399 b 1797 429 1788 399 1797 408 l 1797 551 b 1767 583 1797 572 1788 583 l 1050 583 l 1050 776 l 1774 776 b 1806 807 1794 776 1806 786 l 1806 942 b 1774 972 1806 961 1794 972 z m 443 367 l 658 767 b 675 776 663 774 668 776 l 840 776 l 840 367 z "},"Ç":{"ha":1183,"x_min":0,"x_max":0,"o":"m 471 972 b 82 606 189 972 82 872 l 82 367 b 471 0 82 100 189 0 l 1096 0 b 1126 31 1117 0 1126 10 l 1126 167 b 1096 197 1126 188 1117 197 l 478 197 b 293 388 335 197 293 240 l 293 585 b 478 775 293 732 335 775 l 1096 775 b 1126 806 1117 775 1126 785 l 1126 942 b 1096 972 1126 963 1117 972 z m 588 -57 b 554 -89 568 -57 556 -68 l 532 -346 b 564 -378 531 -367 542 -378 l 643 -378 b 678 -346 663 -378 672 -368 l 738 -93 b 713 -57 743 -69 733 -57 z "},"È":{"ha":1181,"x_min":0,"x_max":0,"o":"m 471 972 b 82 606 189 972 82 871 l 82 367 b 471 0 82 101 189 0 l 1082 0 b 1113 31 1101 0 1113 10 l 1113 165 b 1082 196 1113 185 1101 196 l 472 196 b 292 382 329 196 292 236 l 292 399 l 1074 399 b 1104 429 1093 399 1104 408 l 1104 553 b 1074 583 1104 574 1093 583 l 292 583 l 292 590 b 472 776 292 736 329 776 l 1082 776 b 1113 807 1101 776 1113 788 l 1113 942 b 1082 972 1113 963 1101 972 z m 472 1272 b 451 1246 453 1272 440 1264 l 593 1040 b 635 1015 604 1024 614 1015 l 742 1015 b 761 1042 763 1015 771 1025 l 638 1247 b 594 1272 628 1263 615 1272 z "},"É":{"ha":1181,"x_min":0,"x_max":0,"o":"m 471 972 b 82 606 189 972 82 871 l 82 367 b 471 0 82 101 189 0 l 1082 0 b 1113 31 1101 0 1113 10 l 1113 165 b 1082 196 1113 185 1101 196 l 472 196 b 292 382 329 196 292 236 l 292 399 l 1074 399 b 1104 429 1093 399 1104 408 l 1104 553 b 1074 583 1104 574 1093 583 l 292 583 l 292 590 b 472 776 292 736 329 776 l 1082 776 b 1113 807 1101 776 1113 788 l 1113 942 b 1082 972 1113 963 1101 972 z m 700 1272 b 657 1247 679 1272 667 1263 l 533 1042 b 554 1015 524 1025 532 1015 l 660 1015 b 703 1040 681 1015 690 1024 l 843 1246 b 824 1272 854 1264 843 1272 z "},"Ê":{"ha":1181,"x_min":0,"x_max":0,"o":"m 471 972 b 82 606 189 972 82 871 l 82 367 b 471 0 82 101 189 0 l 1082 0 b 1113 31 1101 0 1113 10 l 1113 165 b 1082 196 1113 185 1101 196 l 472 196 b 292 382 329 196 292 236 l 292 399 l 1074 399 b 1104 429 1093 399 1104 408 l 1104 553 b 1074 583 1104 574 1093 583 l 292 583 l 292 590 b 472 776 292 736 329 776 l 1082 776 b 1113 807 1101 776 1113 788 l 1113 942 b 1082 972 1113 963 1101 972 z m 585 1272 b 525 1243 554 1272 540 1263 l 378 1043 b 396 1015 367 1028 376 1015 l 503 1015 b 546 1040 525 1015 535 1024 l 626 1160 b 644 1171 631 1168 635 1171 l 650 1171 b 668 1160 657 1171 663 1168 l 747 1040 b 792 1015 758 1024 769 1015 l 899 1015 b 917 1043 918 1015 928 1028 l 769 1243 b 708 1272 754 1263 739 1272 z "},"Ë":{"ha":1181,"x_min":0,"x_max":0,"o":"m 471 972 b 82 606 189 972 82 871 l 82 367 b 471 0 82 101 189 0 l 1082 0 b 1113 31 1101 0 1113 10 l 1113 165 b 1082 196 1113 185 1101 196 l 472 196 b 292 382 329 196 292 236 l 292 399 l 1074 399 b 1104 429 1093 399 1104 408 l 1104 553 b 1074 583 1104 574 1093 583 l 292 583 l 292 590 b 472 776 292 736 329 776 l 1082 776 b 1113 807 1101 776 1113 788 l 1113 942 b 1082 972 1113 963 1101 972 z m 385 1229 b 354 1204 365 1229 354 1221 l 354 1072 b 385 1047 354 1056 365 1047 l 521 1047 b 553 1072 542 1047 553 1056 l 553 1204 b 521 1229 553 1221 542 1229 z m 772 1229 b 742 1204 753 1229 742 1221 l 742 1072 b 772 1047 742 1056 753 1047 l 910 1047 b 940 1072 929 1047 940 1056 l 940 1204 b 910 1229 940 1221 929 1229 z "},"Ì":{"ha":401,"x_min":0,"x_max":0,"o":"m 128 972 b 97 942 107 972 97 963 l 97 31 b 128 0 97 10 107 0 l 278 0 b 308 31 299 0 308 10 l 308 942 b 278 972 308 963 299 972 z m 26 1272 b 6 1246 7 1272 -6 1264 l 147 1040 b 189 1015 158 1024 168 1015 l 296 1015 b 315 1042 317 1015 325 1025 l 192 1247 b 149 1272 182 1263 169 1272 z "},"Í":{"ha":401,"x_min":0,"x_max":0,"o":"m 124 972 b 93 942 103 972 93 963 l 93 31 b 124 0 93 10 103 0 l 274 0 b 304 31 294 0 304 10 l 304 942 b 274 972 304 963 294 972 z m 250 1272 b 207 1247 229 1272 217 1263 l 83 1042 b 104 1015 74 1025 82 1015 l 210 1015 b 253 1040 231 1015 240 1024 l 393 1246 b 374 1272 404 1264 393 1272 z "},"Î":{"ha":517,"x_min":0,"x_max":0,"o":"m 183 972 b 153 942 163 972 153 963 l 153 31 b 183 0 153 10 163 0 l 333 0 b 364 31 354 0 364 10 l 364 942 b 333 972 364 963 354 972 z m 197 1272 b 138 1243 167 1272 153 1263 l -10 1043 b 8 1015 -21 1028 -11 1015 l 115 1015 b 158 1040 138 1015 147 1024 l 239 1160 b 257 1171 243 1168 247 1171 l 263 1171 b 281 1160 269 1171 275 1168 l 360 1040 b 404 1015 371 1024 382 1015 l 511 1015 b 529 1043 531 1015 540 1028 l 382 1243 b 321 1272 367 1263 351 1272 z "},"Ï":{"ha":529,"x_min":0,"x_max":0,"o":"m 189 972 b 158 942 168 972 158 963 l 158 31 b 189 0 158 10 168 0 l 339 0 b 369 31 360 0 369 10 l 369 942 b 339 972 369 963 360 972 z m 33 1229 b 3 1204 14 1229 3 1221 l 3 1072 b 33 1047 3 1056 14 1047 l 169 1047 b 201 1072 190 1047 201 1056 l 201 1204 b 169 1229 201 1221 190 1229 z m 360 1229 b 329 1204 340 1229 329 1221 l 329 1072 b 360 1047 329 1056 340 1047 l 496 1047 b 528 1072 517 1047 528 1056 l 528 1204 b 496 1229 528 1221 517 1229 z "},"Ð":{"ha":1367,"x_min":0,"x_max":0,"o":"m 49 576 b 18 546 28 576 18 565 l 18 436 b 49 406 18 417 28 406 l 169 406 l 169 42 b 211 0 169 14 183 0 l 860 0 b 1285 392 1161 0 1285 121 l 1285 581 b 860 972 1285 851 1161 972 l 211 972 b 169 931 183 972 169 958 l 169 576 z m 381 758 b 399 776 381 771 386 776 l 854 776 b 1074 563 1018 776 1074 726 l 1074 410 b 854 196 1074 246 1018 196 l 399 196 b 381 214 386 196 381 201 l 381 406 l 853 406 b 883 436 874 406 883 417 l 883 546 b 853 576 883 565 874 576 l 381 576 z "},"Ñ":{"ha":1358,"x_min":0,"x_max":0,"o":"m 217 972 b 93 828 129 972 93 938 l 93 31 b 124 0 93 10 103 0 l 272 0 b 303 31 292 0 303 10 l 303 756 b 314 769 303 765 306 769 l 326 769 b 344 760 335 769 339 767 l 857 82 b 1017 0 900 21 917 0 l 1140 0 b 1265 144 1228 0 1265 35 l 1265 942 b 1235 972 1265 963 1256 972 l 1086 972 b 1056 942 1065 972 1056 963 l 1056 217 b 1044 203 1056 207 1051 203 l 1032 203 b 1014 213 1024 203 1018 206 l 503 890 b 342 972 458 951 442 972 z m 428 1032 b 467 1063 453 1032 465 1042 b 531 1153 467 1138 475 1153 b 635 1115 575 1153 603 1142 b 864 1038 703 1061 771 1038 b 1039 1232 990 1038 1039 1083 b 1013 1272 1039 1264 1035 1272 l 935 1272 b 897 1243 911 1272 899 1264 b 833 1151 897 1167 889 1151 b 728 1189 789 1151 763 1161 b 500 1267 661 1243 592 1267 b 325 1072 374 1267 325 1221 b 350 1032 325 1042 329 1032 z "},"Ò":{"ha":1369,"x_min":0,"x_max":0,"o":"m 471 972 b 82 606 189 972 82 871 l 82 367 b 471 0 82 101 189 0 l 899 0 b 1288 367 1181 0 1288 100 l 1288 606 b 899 972 1288 872 1181 972 z m 503 1272 b 482 1246 483 1272 471 1264 l 624 1040 b 665 1015 635 1024 644 1015 l 772 1015 b 792 1042 793 1015 801 1025 l 668 1247 b 625 1272 658 1263 646 1272 z m 293 590 b 478 776 293 736 333 776 l 890 776 b 1075 590 1035 776 1075 736 l 1075 382 b 890 196 1075 236 1035 196 l 478 196 b 293 382 333 196 293 236 z "},"Ó":{"ha":1369,"x_min":0,"x_max":0,"o":"m 471 972 b 82 606 189 972 82 871 l 82 367 b 471 0 82 101 189 0 l 899 0 b 1288 367 1181 0 1288 100 l 1288 606 b 899 972 1288 872 1181 972 z m 735 1272 b 692 1247 714 1272 701 1263 l 568 1042 b 589 1015 558 1025 567 1015 l 694 1015 b 738 1040 715 1015 725 1024 l 878 1246 b 858 1272 889 1264 878 1272 z m 293 590 b 478 776 293 736 333 776 l 890 776 b 1075 590 1035 776 1075 736 l 1075 382 b 890 196 1075 236 1035 196 l 478 196 b 293 382 333 196 293 236 z "},"Ô":{"ha":1369,"x_min":0,"x_max":0,"o":"m 471 972 b 82 606 189 972 82 871 l 82 367 b 471 0 82 101 189 0 l 899 0 b 1288 367 1181 0 1288 100 l 1288 606 b 899 972 1288 872 1181 972 z m 622 1272 b 563 1243 592 1272 578 1263 l 415 1043 b 433 1015 404 1028 414 1015 l 540 1015 b 583 1040 563 1015 572 1024 l 664 1160 b 682 1171 668 1168 672 1171 l 688 1171 b 706 1160 694 1171 700 1168 l 785 1040 b 829 1015 796 1024 807 1015 l 936 1015 b 954 1043 956 1015 965 1028 l 807 1243 b 746 1272 792 1263 776 1272 z m 293 590 b 478 776 293 736 333 776 l 890 776 b 1075 590 1035 776 1075 736 l 1075 382 b 890 196 1075 236 1035 196 l 478 196 b 293 382 333 196 293 236 z "},"Õ":{"ha":1369,"x_min":0,"x_max":0,"o":"m 471 972 b 82 606 189 972 82 871 l 82 367 b 471 0 82 101 189 0 l 899 0 b 1288 367 1181 0 1288 100 l 1288 606 b 899 972 1288 872 1181 972 z m 431 1032 b 469 1063 456 1032 468 1042 b 533 1153 469 1138 478 1153 b 638 1115 578 1153 606 1142 b 867 1038 706 1061 774 1038 b 1042 1232 993 1038 1042 1083 b 1015 1272 1042 1264 1038 1272 l 938 1272 b 900 1243 914 1272 901 1264 b 836 1151 900 1167 892 1151 b 731 1189 792 1151 765 1161 b 503 1267 664 1243 594 1267 b 328 1072 376 1267 328 1221 b 353 1032 328 1042 332 1032 z m 293 590 b 478 776 293 736 333 776 l 890 776 b 1075 590 1035 776 1075 736 l 1075 382 b 890 196 1075 236 1035 196 l 478 196 b 293 382 333 196 293 236 z "},"Ö":{"ha":1369,"x_min":0,"x_max":0,"o":"m 471 972 b 82 606 189 972 82 871 l 82 367 b 471 0 82 101 189 0 l 899 0 b 1288 367 1181 0 1288 100 l 1288 606 b 899 972 1288 872 1181 972 z m 422 1229 b 392 1204 403 1229 392 1221 l 392 1072 b 422 1047 392 1056 403 1047 l 558 1047 b 590 1072 579 1047 590 1056 l 590 1204 b 558 1229 590 1221 579 1229 z m 810 1229 b 779 1204 790 1229 779 1221 l 779 1072 b 810 1047 779 1056 790 1047 l 947 1047 b 978 1072 967 1047 978 1056 l 978 1204 b 947 1229 978 1221 967 1229 z m 293 590 b 478 776 293 736 333 776 l 890 776 b 1075 590 1035 776 1075 736 l 1075 382 b 890 196 1075 236 1035 196 l 478 196 b 293 382 333 196 293 236 z "},"×":{"ha":853,"x_min":0,"x_max":0,"o":"m 88 765 b 88 731 75 754 75 742 l 332 486 l 88 242 b 88 207 75 231 75 218 l 146 147 b 181 147 157 136 169 136 l 425 392 l 669 147 b 706 147 682 136 693 136 l 764 207 b 764 242 775 218 775 231 l 519 486 l 764 731 b 764 765 775 742 775 754 l 706 825 b 669 825 693 836 682 836 l 425 581 l 182 825 b 146 825 171 836 157 836 z "},"Ø":{"ha":1369,"x_min":0,"x_max":0,"o":"m 1108 1111 b 1064 1089 1092 1111 1079 1108 l 975 969 b 899 972 951 971 925 972 l 471 972 b 82 606 189 972 82 871 l 82 367 b 268 26 82 178 136 72 l 165 -112 b 176 -139 153 -126 161 -139 l 260 -139 b 304 -117 276 -139 289 -136 l 393 3 b 471 0 418 1 443 0 l 899 0 b 1288 367 1181 0 1288 100 l 1288 606 b 1100 946 1288 796 1233 901 l 1204 1085 b 1192 1111 1215 1099 1207 1111 z m 293 590 b 478 776 293 736 333 776 l 831 776 l 400 201 b 293 382 318 218 293 268 z m 1075 590 l 1075 382 b 890 196 1075 236 1035 196 l 538 196 l 969 771 b 1075 590 1050 754 1075 704 z "},"Ù":{"ha":1357,"x_min":0,"x_max":0,"o":"m 121 972 b 90 942 100 972 90 963 l 90 367 b 479 0 90 100 197 0 l 878 0 b 1267 367 1160 0 1267 100 l 1267 942 b 1236 972 1267 963 1257 972 l 1085 972 b 1054 942 1065 972 1054 963 l 1054 388 b 871 197 1054 240 1014 197 l 486 197 b 301 388 343 197 301 240 l 301 942 b 271 972 301 963 292 972 z m 503 1272 b 482 1246 483 1272 471 1264 l 624 1040 b 665 1015 635 1024 644 1015 l 772 1015 b 792 1042 793 1015 801 1025 l 668 1247 b 625 1272 658 1263 646 1272 z "},"Ú":{"ha":1357,"x_min":0,"x_max":0,"o":"m 121 972 b 90 942 100 972 90 963 l 90 367 b 479 0 90 100 197 0 l 878 0 b 1267 367 1160 0 1267 100 l 1267 942 b 1236 972 1267 963 1257 972 l 1085 972 b 1054 942 1065 972 1054 963 l 1054 388 b 871 197 1054 240 1014 197 l 486 197 b 301 388 343 197 301 240 l 301 942 b 271 972 301 963 292 972 z m 731 1272 b 688 1247 710 1272 697 1263 l 564 1042 b 585 1015 554 1025 563 1015 l 690 1015 b 733 1040 711 1015 721 1024 l 874 1246 b 854 1272 885 1264 874 1272 z "},"Û":{"ha":1357,"x_min":0,"x_max":0,"o":"m 121 972 b 90 942 100 972 90 963 l 90 367 b 479 0 90 100 197 0 l 878 0 b 1267 367 1160 0 1267 100 l 1267 942 b 1236 972 1267 963 1257 972 l 1085 972 b 1054 942 1065 972 1054 963 l 1054 388 b 871 197 1054 240 1014 197 l 486 197 b 301 388 343 197 301 240 l 301 942 b 271 972 301 963 292 972 z m 615 1272 b 556 1243 585 1272 571 1263 l 408 1043 b 426 1015 397 1028 407 1015 l 533 1015 b 576 1040 556 1015 565 1024 l 657 1160 b 675 1171 661 1168 665 1171 l 681 1171 b 699 1160 688 1171 693 1168 l 778 1040 b 822 1015 789 1024 800 1015 l 929 1015 b 947 1043 949 1015 958 1028 l 800 1243 b 739 1272 785 1263 769 1272 z "},"Ü":{"ha":1357,"x_min":0,"x_max":0,"o":"m 121 972 b 90 942 100 972 90 963 l 90 367 b 479 0 90 100 197 0 l 878 0 b 1267 367 1160 0 1267 100 l 1267 942 b 1236 972 1267 963 1257 972 l 1085 972 b 1054 942 1065 972 1054 963 l 1054 388 b 871 197 1054 240 1014 197 l 486 197 b 301 388 343 197 301 240 l 301 942 b 271 972 301 963 292 972 z m 415 1229 b 385 1204 396 1229 385 1221 l 385 1072 b 415 1047 385 1056 396 1047 l 551 1047 b 583 1072 572 1047 583 1056 l 583 1204 b 551 1229 583 1221 572 1229 z m 803 1229 b 772 1204 783 1229 772 1221 l 772 1072 b 803 1047 772 1056 783 1047 l 940 1047 b 971 1072 960 1047 971 1056 l 971 1204 b 940 1229 971 1221 960 1229 z "},"Ý":{"ha":1246,"x_min":0,"x_max":0,"o":"m 33 972 b 19 944 17 972 10 958 l 514 297 l 514 31 b 546 0 514 11 525 0 l 694 0 b 726 31 715 0 726 11 l 726 297 l 1225 944 b 1213 972 1235 958 1229 972 l 1026 972 b 993 956 1011 972 1003 968 l 626 471 l 261 956 b 228 972 253 968 244 972 z m 675 1272 b 632 1247 654 1272 642 1263 l 508 1042 b 529 1015 499 1025 507 1015 l 635 1015 b 678 1040 656 1015 665 1024 l 818 1246 b 799 1272 829 1264 818 1272 z "},"Þ":{"ha":1235,"x_min":0,"x_max":0,"o":"m 124 972 b 93 942 103 972 93 963 l 93 31 b 124 0 93 10 103 0 l 274 0 b 304 31 294 0 304 10 l 304 157 l 885 157 b 1178 435 1089 157 1178 249 l 1178 515 b 885 793 1178 701 1089 793 l 304 793 l 304 942 b 274 972 304 963 294 972 z m 304 601 l 843 601 b 965 493 933 601 965 572 l 965 457 b 843 349 965 378 933 349 l 304 349 z "},"ß":{"ha":1272,"x_min":0,"x_max":0,"o":"m 368 1068 b 89 790 154 1068 89 996 l 89 31 b 119 0 89 10 99 0 l 256 0 b 286 31 276 0 286 10 l 286 790 b 401 897 286 869 314 897 l 489 897 b 597 792 571 897 597 869 l 597 617 b 801 422 597 486 661 422 l 908 422 b 999 343 974 422 999 400 l 999 254 b 910 171 999 194 972 171 l 456 171 b 431 146 439 171 431 163 l 431 25 b 456 0 431 8 439 0 l 978 0 b 1196 225 1133 0 1196 72 l 1196 375 b 979 592 1196 526 1132 592 l 858 592 b 794 656 814 592 794 611 l 794 792 b 522 1068 794 994 729 1068 z "},"à":{"ha":1096,"x_min":0,"x_max":0,"o":"m 106 763 b 81 738 89 763 81 754 l 81 615 b 106 590 81 599 89 590 l 685 590 b 838 469 804 590 838 558 l 838 456 l 271 456 b 57 264 121 456 57 393 l 57 197 b 271 0 57 54 111 0 l 932 0 b 1035 111 1014 0 1035 22 l 1035 482 b 704 763 1035 686 950 763 z m 794 165 l 329 165 b 253 225 269 165 253 178 l 253 254 b 329 313 253 296 269 313 l 838 313 l 838 211 b 794 165 838 178 825 165 z m 376 1133 b 356 1100 357 1133 343 1122 l 499 844 b 540 813 511 824 519 813 l 647 813 b 668 846 668 813 678 825 l 542 1101 b 499 1133 532 1121 521 1133 z "},"á":{"ha":1096,"x_min":0,"x_max":0,"o":"m 106 763 b 81 738 89 763 81 754 l 81 615 b 106 590 81 599 89 590 l 685 590 b 838 469 804 590 838 558 l 838 456 l 271 456 b 57 264 121 456 57 393 l 57 197 b 271 0 57 54 111 0 l 932 0 b 1035 111 1014 0 1035 22 l 1035 482 b 704 763 1035 686 950 763 z m 794 165 l 329 165 b 253 225 269 165 253 178 l 253 254 b 329 313 253 296 269 313 l 838 313 l 838 211 b 794 165 838 178 825 165 z m 603 1133 b 560 1101 583 1133 571 1124 l 435 846 b 456 813 425 826 433 813 l 561 813 b 603 844 579 813 589 819 l 746 1100 b 726 1133 756 1119 747 1133 z "},"â":{"ha":1096,"x_min":0,"x_max":0,"o":"m 106 763 b 81 738 89 763 81 754 l 81 615 b 106 590 81 599 89 590 l 685 590 b 838 469 804 590 838 558 l 838 456 l 271 456 b 57 264 121 456 57 393 l 57 197 b 271 0 57 54 111 0 l 932 0 b 1035 111 1014 0 1035 22 l 1035 482 b 704 763 1035 686 950 763 z m 486 1133 b 426 1099 457 1133 440 1122 l 279 847 b 297 813 267 828 278 813 l 404 813 b 447 843 426 813 436 822 l 528 997 b 544 1010 532 1006 536 1010 l 551 1010 b 568 997 560 1010 564 1006 l 649 843 b 692 813 660 822 669 813 l 799 813 b 817 847 818 813 828 828 l 669 1099 b 610 1133 656 1122 640 1133 z m 794 165 l 329 165 b 253 225 269 165 253 178 l 253 254 b 329 313 253 296 269 313 l 838 313 l 838 211 b 794 165 838 178 825 165 z "},"ã":{"ha":1096,"x_min":0,"x_max":0,"o":"m 106 763 b 81 738 89 763 81 754 l 81 615 b 106 590 81 599 89 590 l 685 590 b 838 469 804 590 838 558 l 838 456 l 271 456 b 57 264 121 456 57 393 l 57 197 b 271 0 57 54 111 0 l 932 0 b 1035 111 1014 0 1035 22 l 1035 482 b 704 763 1035 686 950 763 z m 290 836 b 329 869 315 836 328 846 b 396 961 329 944 338 961 b 501 924 446 961 469 951 b 732 840 569 865 638 840 b 904 1051 857 840 904 892 b 879 1094 904 1085 900 1094 l 806 1094 b 767 1061 781 1094 768 1085 b 700 968 767 986 757 968 b 594 1007 650 968 628 979 b 364 1090 526 1065 458 1090 b 192 879 239 1090 192 1039 b 217 836 192 846 196 836 z m 794 165 l 329 165 b 253 225 269 165 253 178 l 253 254 b 329 313 253 296 269 313 l 838 313 l 838 211 b 794 165 838 178 825 165 z "},"ä":{"ha":1096,"x_min":0,"x_max":0,"o":"m 106 763 b 81 738 89 763 81 754 l 81 615 b 106 590 81 599 89 590 l 685 590 b 838 469 804 590 838 558 l 838 456 l 271 456 b 57 264 121 456 57 393 l 57 197 b 271 0 57 54 111 0 l 932 0 b 1035 111 1014 0 1035 22 l 1035 482 b 704 763 1035 686 950 763 z m 794 165 l 329 165 b 253 225 269 165 253 178 l 253 254 b 329 313 253 296 269 313 l 838 313 l 838 211 b 794 165 838 178 825 165 z m 286 1044 b 256 1014 265 1044 256 1035 l 256 882 b 286 850 256 861 265 850 l 422 850 b 453 882 443 850 453 861 l 453 1014 b 422 1044 453 1035 443 1044 z m 674 1044 b 643 1014 653 1044 643 1035 l 643 882 b 674 850 643 861 653 850 l 810 850 b 840 882 831 850 840 861 l 840 1014 b 810 1044 840 1035 831 1044 z "},"å":{"ha":1096,"x_min":0,"x_max":0,"o":"m 106 763 b 81 738 89 763 81 754 l 81 615 b 106 590 81 599 89 590 l 685 590 b 838 469 804 590 838 558 l 838 456 l 271 456 b 57 264 121 456 57 393 l 57 197 b 271 0 57 54 111 0 l 932 0 b 1035 111 1014 0 1035 22 l 1035 482 b 704 763 1035 686 950 763 z m 471 1133 b 328 999 367 1133 328 1096 l 328 911 b 471 776 328 814 367 776 l 626 776 b 768 911 729 776 768 814 l 768 999 b 626 1133 768 1096 729 1133 z m 794 165 l 329 165 b 253 225 269 165 253 178 l 253 254 b 329 313 253 296 269 313 l 838 313 l 838 211 b 794 165 838 178 825 165 z m 446 971 b 506 1032 446 1018 458 1032 l 590 1032 b 650 971 638 1032 650 1018 l 650 938 b 590 878 650 892 638 878 l 506 878 b 446 938 458 878 446 892 z "},"æ":{"ha":1881,"x_min":0,"x_max":0,"o":"m 1174 763 b 939 715 1067 763 992 749 b 704 763 886 749 811 763 l 106 763 b 81 738 89 763 81 754 l 81 615 b 106 590 81 599 89 590 l 685 590 b 838 469 804 590 838 558 l 838 456 l 271 456 b 57 264 121 456 57 393 l 57 197 b 271 0 57 54 111 0 l 932 0 b 1008 17 968 0 993 4 b 1174 0 1053 6 1107 0 l 1772 0 b 1797 25 1789 0 1797 8 l 1797 147 b 1772 172 1797 164 1789 172 l 1193 172 b 1040 289 1074 172 1040 201 l 1040 314 l 1742 314 b 1821 392 1797 314 1821 335 l 1821 535 b 1581 763 1821 707 1767 763 z m 794 165 l 329 165 b 253 225 269 165 253 178 l 253 254 b 329 313 253 296 269 313 l 838 313 l 838 211 b 794 165 838 178 825 165 z m 1040 457 l 1040 485 b 1193 597 1040 572 1069 597 l 1540 597 b 1625 529 1608 597 1625 583 l 1625 481 b 1601 457 1625 465 1618 457 z "},"ç":{"ha":1013,"x_min":0,"x_max":0,"o":"m 385 763 b 54 482 139 763 54 686 l 54 281 b 385 0 54 75 139 0 l 943 0 b 968 25 960 0 968 8 l 968 147 b 943 172 968 164 960 172 l 404 172 b 253 319 283 172 253 203 l 253 443 b 404 590 253 560 283 590 l 943 590 b 968 615 960 590 968 599 l 968 738 b 943 763 968 754 960 763 z m 485 -57 b 451 -89 465 -57 453 -68 l 429 -346 b 461 -378 428 -367 439 -378 l 540 -378 b 575 -346 560 -378 569 -368 l 635 -93 b 610 -57 640 -69 631 -57 z "},"è":{"ha":1096,"x_min":0,"x_max":0,"o":"m 388 763 b 57 482 142 763 57 686 l 57 281 b 388 0 57 75 142 0 l 986 0 b 1011 25 1003 0 1011 8 l 1011 147 b 986 172 1011 164 1003 172 l 407 172 b 254 289 288 172 254 201 l 254 314 l 956 314 b 1035 392 1011 314 1035 335 l 1035 535 b 794 763 1035 707 981 763 z m 254 457 l 254 485 b 407 597 254 572 283 597 l 754 597 b 839 529 822 597 839 583 l 839 481 b 815 457 839 465 832 457 z m 374 1133 b 353 1100 354 1133 340 1122 l 496 844 b 538 813 508 824 517 813 l 644 813 b 665 846 665 813 675 825 l 539 1101 b 496 1133 529 1121 518 1133 z "},"é":{"ha":1096,"x_min":0,"x_max":0,"o":"m 388 763 b 57 482 142 763 57 686 l 57 281 b 388 0 57 75 142 0 l 986 0 b 1011 25 1003 0 1011 8 l 1011 147 b 986 172 1011 164 1003 172 l 407 172 b 254 289 288 172 254 201 l 254 314 l 956 314 b 1035 392 1011 314 1035 335 l 1035 535 b 794 763 1035 707 981 763 z m 254 457 l 254 485 b 407 597 254 572 283 597 l 754 597 b 839 529 822 597 839 583 l 839 481 b 815 457 839 465 832 457 z m 600 1133 b 557 1101 581 1133 568 1124 l 432 846 b 453 813 422 826 431 813 l 558 813 b 600 844 576 813 586 819 l 743 1100 b 724 1133 753 1119 744 1133 z "},"ê":{"ha":1096,"x_min":0,"x_max":0,"o":"m 388 763 b 57 482 142 763 57 686 l 57 281 b 388 0 57 75 142 0 l 986 0 b 1011 25 1003 0 1011 8 l 1011 147 b 986 172 1011 164 1003 172 l 407 172 b 254 289 288 172 254 201 l 254 314 l 956 314 b 1035 392 1011 314 1035 335 l 1035 535 b 794 763 1035 707 981 763 z m 486 1133 b 426 1099 457 1133 440 1122 l 279 847 b 297 813 267 828 278 813 l 404 813 b 447 843 426 813 436 822 l 528 997 b 544 1010 532 1006 536 1010 l 551 1010 b 568 997 560 1010 564 1006 l 649 843 b 692 813 660 822 669 813 l 799 813 b 817 847 818 813 828 828 l 669 1099 b 610 1133 656 1122 640 1133 z m 254 457 l 254 485 b 407 597 254 572 283 597 l 754 597 b 839 529 822 597 839 583 l 839 481 b 815 457 839 465 832 457 z "},"ë":{"ha":1096,"x_min":0,"x_max":0,"o":"m 388 763 b 57 482 142 763 57 686 l 57 281 b 388 0 57 75 142 0 l 986 0 b 1011 25 1003 0 1011 8 l 1011 147 b 986 172 1011 164 1003 172 l 407 172 b 254 289 288 172 254 201 l 254 314 l 956 314 b 1035 392 1011 314 1035 335 l 1035 535 b 794 763 1035 707 981 763 z m 254 457 l 254 485 b 407 597 254 572 283 597 l 754 597 b 839 529 822 597 839 583 l 839 481 b 815 457 839 465 832 457 z m 286 1044 b 256 1014 265 1044 256 1035 l 256 882 b 286 850 256 861 265 850 l 422 850 b 453 882 443 850 453 861 l 453 1014 b 422 1044 453 1035 443 1044 z m 674 1044 b 643 1014 653 1044 643 1035 l 643 882 b 674 850 643 861 653 850 l 810 850 b 840 882 831 850 840 861 l 840 1014 b 810 1044 840 1035 831 1044 z "},"ì":{"ha":389,"x_min":0,"x_max":0,"o":"m 133 763 b 103 732 113 763 103 751 l 103 31 b 133 0 103 10 113 0 l 269 0 b 300 31 289 0 300 10 l 300 732 b 269 763 300 751 289 763 z m 25 1133 b 4 1100 6 1133 -8 1122 l 147 844 b 189 813 160 824 168 813 l 296 813 b 317 846 317 813 326 825 l 190 1101 b 147 1133 181 1121 169 1133 z "},"í":{"ha":390,"x_min":0,"x_max":0,"o":"m 119 763 b 89 732 99 763 89 751 l 89 31 b 119 0 89 10 99 0 l 256 0 b 286 31 275 0 286 10 l 286 732 b 256 763 286 751 275 763 z m 240 1133 b 197 1101 221 1133 208 1124 l 72 846 b 93 813 63 826 71 813 l 199 813 b 240 844 217 813 226 819 l 383 1100 b 364 1133 393 1119 385 1133 z "},"î":{"ha":507,"x_min":0,"x_max":0,"o":"m 185 763 b 154 732 164 763 154 751 l 154 31 b 185 0 154 10 164 0 l 321 0 b 351 31 340 0 351 10 l 351 732 b 321 763 351 751 340 763 z m 192 1133 b 132 1099 163 1133 146 1122 l -15 847 b 3 813 -28 828 -17 813 l 110 813 b 153 843 132 813 142 822 l 233 997 b 250 1010 238 1006 242 1010 l 257 1010 b 274 997 265 1010 269 1006 l 354 843 b 397 813 365 822 375 813 l 504 813 b 522 847 524 813 533 828 l 375 1099 b 315 1133 361 1122 346 1133 z "},"ï":{"ha":533,"x_min":0,"x_max":0,"o":"m 199 763 b 168 732 178 763 168 751 l 168 31 b 199 0 168 10 178 0 l 335 0 b 365 31 354 0 365 10 l 365 732 b 335 763 365 751 354 763 z m 36 1044 b 6 1014 15 1044 6 1035 l 6 882 b 36 850 6 861 15 850 l 172 850 b 203 882 193 850 203 861 l 203 1014 b 172 1044 203 1035 193 1044 z m 360 1044 b 329 1014 339 1044 329 1035 l 329 882 b 360 850 329 861 339 850 l 496 850 b 526 882 517 850 526 861 l 526 1014 b 496 1044 526 1035 517 1044 z "},"ð":{"ha":1210,"x_min":0,"x_max":0,"o":"m 569 1201 b 542 1178 551 1201 549 1193 l 496 1079 l 297 1079 b 272 1054 281 1079 272 1071 l 272 932 b 297 907 272 915 281 907 l 417 907 l 356 775 b 372 750 349 761 357 750 l 464 750 b 500 774 482 750 493 758 l 561 907 l 776 907 b 928 774 899 907 928 878 l 928 674 l 406 674 b 76 390 161 674 76 597 l 76 285 b 406 0 76 78 161 0 l 794 0 b 1125 285 1040 0 1125 76 l 1125 793 b 794 1079 1125 1001 1040 1079 l 642 1079 l 686 1175 b 664 1201 692 1189 681 1201 z m 775 172 l 433 172 b 274 322 307 172 274 204 l 274 374 b 425 513 274 490 299 513 l 928 513 l 928 324 b 775 172 928 203 897 172 z "},"ñ":{"ha":1228,"x_min":0,"x_max":0,"o":"m 414 763 b 85 482 169 763 85 686 l 85 31 b 115 0 85 10 94 0 l 251 0 b 282 31 272 0 282 10 l 282 433 b 433 586 282 551 314 586 l 803 586 b 946 433 918 586 946 557 l 946 31 b 976 0 946 10 957 0 l 1113 0 b 1143 31 1133 0 1143 10 l 1143 482 b 813 763 1143 686 1058 763 z m 356 836 b 394 869 381 836 393 846 b 461 961 394 944 403 961 b 567 924 511 961 535 951 b 797 840 635 865 703 840 b 969 1051 922 840 969 892 b 944 1094 969 1085 965 1094 l 871 1094 b 832 1061 846 1094 833 1085 b 765 968 832 986 822 968 b 660 1007 715 968 693 979 b 429 1090 592 1065 524 1090 b 257 879 304 1090 257 1039 b 282 836 257 846 261 836 z "},"ò":{"ha":1206,"x_min":0,"x_max":0,"o":"m 406 763 b 76 482 163 763 76 689 l 76 281 b 406 0 76 74 163 0 l 799 0 b 1129 281 1042 0 1129 74 l 1129 482 b 799 763 1129 689 1042 763 z m 274 447 b 425 592 274 563 304 592 l 779 592 b 932 447 901 592 932 563 l 932 315 b 779 169 932 199 901 169 l 425 169 b 274 315 304 169 274 199 z m 428 1133 b 407 1100 408 1133 394 1122 l 550 844 b 592 813 563 824 571 813 l 699 813 b 719 846 719 813 729 825 l 593 1101 b 550 1133 583 1121 572 1133 z "},"ó":{"ha":1206,"x_min":0,"x_max":0,"o":"m 406 763 b 76 482 163 763 76 689 l 76 281 b 406 0 76 74 163 0 l 799 0 b 1129 281 1042 0 1129 74 l 1129 482 b 799 763 1129 689 1042 763 z m 274 447 b 425 592 274 563 304 592 l 779 592 b 932 447 901 592 932 563 l 932 315 b 779 169 932 199 901 169 l 425 169 b 274 315 304 169 274 199 z m 653 1133 b 610 1101 633 1133 621 1124 l 485 846 b 506 813 475 826 483 813 l 611 813 b 653 844 629 813 639 819 l 796 1100 b 776 1133 806 1119 797 1133 z "},"ô":{"ha":1206,"x_min":0,"x_max":0,"o":"m 406 763 b 76 482 163 763 76 689 l 76 281 b 406 0 76 74 163 0 l 799 0 b 1129 281 1042 0 1129 74 l 1129 482 b 799 763 1129 689 1042 763 z m 539 1133 b 479 1099 510 1133 493 1122 l 332 847 b 350 813 319 828 331 813 l 457 813 b 500 843 479 813 489 822 l 581 997 b 597 1010 585 1006 589 1010 l 604 1010 b 621 997 613 1010 617 1006 l 701 843 b 744 813 713 822 722 813 l 851 813 b 869 847 871 813 881 828 l 722 1099 b 663 1133 708 1122 693 1133 z m 274 447 b 425 592 274 563 304 592 l 779 592 b 932 447 901 592 932 563 l 932 315 b 779 169 932 199 901 169 l 425 169 b 274 315 304 169 274 199 z "},"õ":{"ha":1206,"x_min":0,"x_max":0,"o":"m 406 763 b 76 482 163 763 76 689 l 76 281 b 406 0 76 74 163 0 l 799 0 b 1129 281 1042 0 1129 74 l 1129 482 b 799 763 1129 689 1042 763 z m 344 836 b 383 869 369 836 382 846 b 450 961 383 944 392 961 b 556 924 500 961 524 951 b 786 840 624 865 692 840 b 958 1051 911 840 958 892 b 933 1094 958 1085 954 1094 l 860 1094 b 821 1061 835 1094 822 1085 b 754 968 821 986 811 968 b 649 1007 704 968 682 979 b 418 1090 581 1065 513 1090 b 246 879 293 1090 246 1039 b 271 836 246 846 250 836 z m 274 447 b 425 592 274 563 304 592 l 779 592 b 932 447 901 592 932 563 l 932 315 b 779 169 932 199 901 169 l 425 169 b 274 315 304 169 274 199 z "},"ö":{"ha":1206,"x_min":0,"x_max":0,"o":"m 406 763 b 76 482 163 763 76 689 l 76 281 b 406 0 76 74 163 0 l 799 0 b 1129 281 1042 0 1129 74 l 1129 482 b 799 763 1129 689 1042 763 z m 274 447 b 425 592 274 563 304 592 l 779 592 b 932 447 901 592 932 563 l 932 315 b 779 169 932 199 901 169 l 425 169 b 274 315 304 169 274 199 z m 340 1044 b 310 1014 319 1044 310 1035 l 310 882 b 340 850 310 861 319 850 l 476 850 b 507 882 497 850 507 861 l 507 1014 b 476 1044 507 1035 497 1044 z m 728 1044 b 697 1014 707 1044 697 1035 l 697 882 b 728 850 697 861 707 850 l 864 850 b 894 882 885 850 894 861 l 894 1014 b 864 1044 894 1035 885 1044 z "},"÷":{"ha":853,"x_min":0,"x_max":0,"o":"m 358 268 b 328 238 338 268 328 258 l 328 104 b 358 74 328 83 338 74 l 494 74 b 525 104 515 74 525 83 l 525 238 b 494 268 525 258 515 268 z m 83 553 b 58 528 67 553 58 544 l 58 444 b 83 419 58 428 67 419 l 768 419 b 793 444 785 419 793 428 l 793 528 b 768 553 793 544 785 553 z m 358 899 b 328 868 338 899 328 889 l 328 735 b 358 704 328 714 338 704 l 494 704 b 525 735 515 704 525 714 l 525 868 b 494 899 525 889 515 899 z "},"ø":{"ha":1206,"x_min":0,"x_max":0,"o":"m 1024 893 b 979 869 1003 893 994 886 l 878 758 b 799 763 854 761 828 763 l 406 763 b 76 482 163 763 76 689 l 76 281 b 208 28 76 144 114 65 l 88 -104 b 100 -131 76 -115 83 -131 l 183 -131 b 228 -108 204 -131 214 -125 l 329 3 b 406 0 353 1 379 0 l 799 0 b 1129 281 1042 0 1129 74 l 1129 482 b 997 733 1129 617 1092 696 l 1119 865 b 1107 893 1131 878 1125 893 z m 274 447 b 425 592 274 563 304 592 l 725 592 l 346 178 b 274 315 290 192 274 231 z m 932 447 l 932 315 b 779 169 932 199 901 169 l 482 169 l 861 585 b 932 447 915 569 932 531 z "},"ù":{"ha":1217,"x_min":0,"x_max":0,"o":"m 115 763 b 85 732 94 763 85 751 l 85 281 b 414 0 85 75 169 0 l 801 0 b 1132 281 1047 0 1132 75 l 1132 732 b 1101 763 1132 751 1122 763 l 965 763 b 935 732 946 763 935 751 l 935 328 b 782 176 935 210 901 176 l 425 176 b 282 328 310 176 282 206 l 282 732 b 251 763 282 751 272 763 z m 433 1133 b 413 1100 414 1133 400 1122 l 556 844 b 597 813 568 824 576 813 l 704 813 b 725 846 725 813 735 825 l 599 1101 b 556 1133 589 1121 578 1133 z "},"ú":{"ha":1217,"x_min":0,"x_max":0,"o":"m 115 763 b 85 732 94 763 85 751 l 85 281 b 414 0 85 75 169 0 l 801 0 b 1132 281 1047 0 1132 75 l 1132 732 b 1101 763 1132 751 1122 763 l 965 763 b 935 732 946 763 935 751 l 935 328 b 782 176 935 210 901 176 l 425 176 b 282 328 310 176 282 206 l 282 732 b 251 763 282 751 272 763 z m 661 1133 b 618 1101 642 1133 629 1124 l 493 846 b 514 813 483 826 492 813 l 619 813 b 661 844 638 813 647 819 l 804 1100 b 785 1133 814 1119 806 1133 z "},"û":{"ha":1217,"x_min":0,"x_max":0,"o":"m 115 763 b 85 732 94 763 85 751 l 85 281 b 414 0 85 75 169 0 l 801 0 b 1132 281 1047 0 1132 75 l 1132 732 b 1101 763 1132 751 1122 763 l 965 763 b 935 732 946 763 935 751 l 935 328 b 782 176 935 210 901 176 l 425 176 b 282 328 310 176 282 206 l 282 732 b 251 763 282 751 272 763 z m 544 1133 b 485 1099 515 1133 499 1122 l 338 847 b 356 813 325 828 336 813 l 463 813 b 506 843 485 813 494 822 l 586 997 b 603 1010 590 1006 594 1010 l 610 1010 b 626 997 618 1010 622 1006 l 707 843 b 750 813 718 822 728 813 l 857 813 b 875 847 876 813 886 828 l 728 1099 b 668 1133 714 1122 699 1133 z "},"ü":{"ha":1217,"x_min":0,"x_max":0,"o":"m 115 763 b 85 732 94 763 85 751 l 85 281 b 414 0 85 75 169 0 l 801 0 b 1132 281 1047 0 1132 75 l 1132 732 b 1101 763 1132 751 1122 763 l 965 763 b 935 732 946 763 935 751 l 935 328 b 782 176 935 210 901 176 l 425 176 b 282 328 310 176 282 206 l 282 732 b 251 763 282 751 272 763 z m 347 1044 b 317 1014 326 1044 317 1035 l 317 882 b 347 850 317 861 326 850 l 483 850 b 514 882 504 850 514 861 l 514 1014 b 483 1044 514 1035 504 1044 z m 735 1044 b 704 1014 714 1044 704 1035 l 704 882 b 735 850 704 861 714 850 l 871 850 b 901 882 892 850 901 861 l 901 1014 b 871 1044 901 1035 892 1044 z "},"ý":{"ha":1153,"x_min":0,"x_max":0,"o":"m 939 763 b 906 743 922 763 914 757 l 583 175 b 544 207 563 178 557 186 l 236 743 b 203 763 229 757 219 763 l 42 763 b 24 728 22 763 14 744 l 399 81 b 496 21 421 39 447 24 l 431 -93 b 360 -125 418 -117 397 -125 l 260 -125 b 235 -150 243 -125 235 -133 l 235 -282 b 260 -307 235 -299 243 -307 l 357 -307 b 576 -212 474 -307 540 -278 l 1110 728 b 1092 763 1119 744 1111 763 z m 632 1133 b 589 1101 613 1133 600 1124 l 464 846 b 485 813 454 826 463 813 l 590 813 b 632 844 608 813 618 819 l 775 1100 b 756 1133 785 1119 776 1133 z "},"þ":{"ha":1210,"x_min":0,"x_max":0,"o":"m 115 1042 b 85 1011 94 1042 85 1032 l 85 -276 b 115 -307 85 -297 94 -307 l 251 -307 b 282 -276 272 -307 282 -297 l 282 0 l 803 0 b 1133 281 1049 0 1133 75 l 1133 482 b 803 763 1133 686 1049 763 l 282 763 l 282 1011 b 251 1042 282 1032 272 1042 z m 282 590 l 783 590 b 936 443 904 590 936 560 l 936 319 b 783 172 936 203 904 172 l 282 172 z "},"ÿ":{"ha":1153,"x_min":0,"x_max":0,"o":"m 939 763 b 906 743 922 763 914 757 l 583 175 b 544 207 563 178 557 186 l 236 743 b 203 763 229 757 219 763 l 42 763 b 24 728 22 763 14 744 l 399 81 b 496 21 421 39 447 24 l 431 -93 b 360 -125 418 -117 397 -125 l 260 -125 b 235 -150 243 -125 235 -133 l 235 -282 b 260 -307 235 -299 243 -307 l 357 -307 b 576 -212 474 -307 540 -278 l 1110 728 b 1092 763 1119 744 1111 763 z m 315 1044 b 285 1014 294 1044 285 1035 l 285 882 b 315 850 285 861 294 850 l 451 850 b 482 882 472 850 482 861 l 482 1014 b 451 1044 482 1035 472 1044 z m 703 1044 b 672 1014 682 1044 672 1035 l 672 882 b 703 850 672 861 682 850 l 839 850 b 869 882 860 850 869 861 l 869 1014 b 839 1044 869 1035 860 1044 z "},"Ā":{"ha":1354,"x_min":0,"x_max":0,"o":"m 626 972 b 481 867 568 972 525 951 l 25 32 b 42 0 15 13 19 0 l 224 0 b 256 17 242 0 249 4 l 346 186 l 1011 186 l 1103 17 b 1135 0 1108 4 1117 0 l 1311 0 b 1328 32 1333 0 1338 13 l 868 867 b 708 972 822 951 781 972 z m 353 1208 b 321 1183 332 1208 321 1200 l 321 1097 b 353 1074 321 1081 332 1074 l 1004 1074 b 1035 1097 1024 1074 1035 1081 l 1035 1183 b 1004 1208 1035 1200 1024 1208 z m 443 367 l 657 765 b 672 775 661 772 665 775 l 681 775 b 697 765 688 775 693 772 l 913 367 z "},"ā":{"ha":1096,"x_min":0,"x_max":0,"o":"m 106 763 b 81 738 89 763 81 754 l 81 615 b 106 590 81 599 89 590 l 685 590 b 838 469 804 590 838 558 l 838 456 l 271 456 b 57 264 121 456 57 393 l 57 197 b 271 0 57 54 111 0 l 932 0 b 1035 111 1014 0 1035 22 l 1035 482 b 704 763 1035 686 950 763 z m 794 165 l 329 165 b 253 225 269 165 253 178 l 253 254 b 329 313 253 296 269 313 l 838 313 l 838 211 b 794 165 838 178 825 165 z m 222 1019 b 192 989 201 1019 192 1010 l 192 908 b 222 878 192 888 201 878 l 874 878 b 904 908 894 878 904 888 l 904 989 b 874 1019 904 1010 894 1019 z "},"Ă":{"ha":1354,"x_min":0,"x_max":0,"o":"m 626 972 b 481 867 568 972 525 951 l 25 32 b 42 0 15 13 19 0 l 224 0 b 256 17 242 0 249 4 l 346 186 l 1011 186 l 1103 17 b 1135 0 1108 4 1117 0 l 1311 0 b 1328 32 1333 0 1338 13 l 868 867 b 708 972 822 951 781 972 z m 343 1179 b 372 1132 343 1160 349 1147 b 678 1047 436 1086 565 1047 b 982 1132 790 1047 917 1085 b 1010 1179 1006 1147 1010 1160 l 1010 1236 b 983 1263 1010 1253 1000 1263 b 950 1250 975 1263 963 1258 b 678 1156 871 1193 785 1156 b 404 1250 569 1156 481 1194 b 369 1263 392 1258 379 1263 b 343 1236 354 1263 343 1253 z m 443 367 l 657 765 b 672 775 661 772 665 775 l 681 775 b 697 765 688 775 693 772 l 913 367 z "},"ă":{"ha":1096,"x_min":0,"x_max":0,"o":"m 106 763 b 81 738 89 763 81 754 l 81 615 b 106 590 81 599 89 590 l 685 590 b 838 469 804 590 838 558 l 838 456 l 271 456 b 57 264 121 456 57 393 l 57 197 b 271 0 57 54 111 0 l 932 0 b 1035 111 1014 0 1035 22 l 1035 482 b 704 763 1035 686 950 763 z m 217 1004 b 243 947 217 985 219 968 b 549 850 294 906 415 850 b 856 947 683 850 804 906 b 882 1004 879 968 882 985 l 882 1076 b 857 1108 882 1094 874 1108 b 822 1092 847 1108 836 1103 b 549 985 792 1067 692 985 b 276 1092 407 985 307 1067 b 242 1108 263 1103 251 1108 b 217 1076 225 1108 217 1094 z m 794 165 l 329 165 b 253 225 269 165 253 178 l 253 254 b 329 313 253 296 269 313 l 838 313 l 838 211 b 794 165 838 178 825 165 z "},"Ą":{"ha":1354,"x_min":0,"x_max":0,"o":"m 1014 -44 b 915 -208 935 -75 915 -118 b 1093 -378 915 -337 954 -378 l 1271 -378 b 1296 -353 1288 -378 1296 -369 l 1296 -256 b 1271 -231 1296 -239 1288 -231 l 1154 -231 b 1079 -165 1096 -231 1079 -215 b 1149 -82 1079 -126 1088 -110 l 1322 1 b 1328 32 1335 6 1336 17 l 868 867 b 708 972 822 951 781 972 l 626 972 b 481 867 568 972 525 951 l 25 32 b 42 0 15 13 19 0 l 224 0 b 256 17 242 0 249 4 l 346 186 l 1011 186 l 1103 17 b 1133 0 1108 4 1117 0 z m 443 367 l 657 765 b 672 775 661 772 665 775 l 681 775 b 697 765 688 775 693 772 l 913 367 z "},"ą":{"ha":1096,"x_min":0,"x_max":0,"o":"m 675 -44 b 576 -208 596 -74 576 -118 b 754 -378 576 -337 615 -378 l 932 -378 b 957 -353 949 -378 957 -369 l 957 -254 b 932 -229 957 -237 949 -229 l 814 -229 b 740 -165 756 -229 740 -215 b 810 -82 740 -126 749 -111 l 989 7 b 1035 111 1024 18 1035 47 l 1035 482 b 704 763 1035 686 950 763 l 106 763 b 81 738 89 763 81 754 l 81 615 b 106 590 81 599 89 590 l 685 590 b 838 469 804 590 838 558 l 838 456 l 271 456 b 57 264 121 456 57 393 l 57 197 b 271 0 57 54 111 0 l 794 0 z m 794 165 l 329 165 b 253 225 269 165 253 178 l 253 254 b 329 313 253 296 269 313 l 838 313 l 838 211 b 794 165 838 178 825 165 z "},"Ć":{"ha":1183,"x_min":0,"x_max":0,"o":"m 471 972 b 82 606 189 972 82 872 l 82 367 b 471 0 82 100 189 0 l 1096 0 b 1126 31 1117 0 1126 10 l 1126 167 b 1096 197 1126 188 1117 197 l 478 197 b 293 388 335 197 293 240 l 293 585 b 478 775 293 732 335 775 l 1096 775 b 1126 806 1117 775 1126 785 l 1126 942 b 1096 972 1126 963 1117 972 z m 700 1272 b 657 1247 679 1272 667 1263 l 533 1042 b 554 1015 524 1025 532 1015 l 660 1015 b 703 1040 681 1015 690 1024 l 843 1246 b 824 1272 854 1264 843 1272 z "},"ć":{"ha":1013,"x_min":0,"x_max":0,"o":"m 385 763 b 54 482 139 763 54 686 l 54 281 b 385 0 54 75 139 0 l 943 0 b 968 25 960 0 968 8 l 968 147 b 943 172 968 164 960 172 l 404 172 b 253 319 283 172 253 203 l 253 443 b 404 590 253 560 283 590 l 943 590 b 968 615 960 590 968 599 l 968 738 b 943 763 968 754 960 763 z m 606 1133 b 563 1101 586 1133 574 1124 l 438 846 b 458 813 428 826 436 813 l 564 813 b 606 844 582 813 592 819 l 749 1100 b 729 1133 758 1119 750 1133 z "},"Ċ":{"ha":1183,"x_min":0,"x_max":0,"o":"m 471 972 b 82 606 189 972 82 872 l 82 367 b 471 0 82 100 189 0 l 1096 0 b 1126 31 1117 0 1126 10 l 1126 167 b 1096 197 1126 188 1117 197 l 478 197 b 293 388 335 197 293 240 l 293 585 b 478 775 293 732 335 775 l 1096 775 b 1126 806 1117 775 1126 785 l 1126 942 b 1096 972 1126 963 1117 972 z m 579 1229 b 549 1204 560 1229 549 1221 l 549 1072 b 579 1047 549 1056 560 1047 l 715 1047 b 747 1072 736 1047 747 1056 l 747 1204 b 715 1229 747 1221 736 1229 z "},"ċ":{"ha":1013,"x_min":0,"x_max":0,"o":"m 385 763 b 54 482 139 763 54 686 l 54 281 b 385 0 54 75 139 0 l 943 0 b 968 25 960 0 968 8 l 968 147 b 943 172 968 164 960 172 l 404 172 b 253 319 283 172 253 203 l 253 443 b 404 590 253 560 283 590 l 943 590 b 968 615 960 590 968 599 l 968 738 b 943 763 968 754 960 763 z m 479 1044 b 449 1014 458 1044 449 1035 l 449 882 b 479 850 449 861 458 850 l 615 850 b 646 882 636 850 646 861 l 646 1014 b 615 1044 646 1035 636 1044 z "},"Č":{"ha":1183,"x_min":0,"x_max":0,"o":"m 471 972 b 82 606 189 972 82 872 l 82 367 b 471 0 82 100 189 0 l 1096 0 b 1126 31 1117 0 1126 10 l 1126 167 b 1096 197 1126 188 1117 197 l 478 197 b 293 388 335 197 293 240 l 293 585 b 478 775 293 732 335 775 l 1096 775 b 1126 806 1117 775 1126 785 l 1126 942 b 1096 972 1126 963 1117 972 z m 396 1272 b 378 1244 376 1272 367 1260 l 525 1044 b 585 1015 540 1025 554 1015 l 708 1015 b 769 1044 739 1015 754 1025 l 917 1244 b 899 1272 928 1260 918 1272 l 792 1272 b 747 1247 769 1272 758 1264 l 668 1126 b 650 1117 664 1121 657 1117 l 644 1117 b 626 1126 635 1117 631 1121 l 546 1247 b 503 1272 535 1264 525 1272 z "},"č":{"ha":1013,"x_min":0,"x_max":0,"o":"m 385 763 b 54 482 139 763 54 686 l 54 281 b 385 0 54 75 139 0 l 943 0 b 968 25 960 0 968 8 l 968 147 b 943 172 968 164 960 172 l 404 172 b 253 319 283 172 253 203 l 253 443 b 404 590 253 560 283 590 l 943 590 b 968 615 960 590 968 599 l 968 738 b 943 763 968 754 960 763 z m 296 1133 b 278 1099 276 1133 265 1118 l 425 847 b 485 813 439 824 456 813 l 608 813 b 668 847 639 813 654 824 l 815 1099 b 797 1133 826 1118 817 1133 l 690 1133 b 647 1103 668 1133 658 1124 l 567 949 b 550 936 563 940 558 936 l 542 936 b 526 949 535 936 531 940 l 446 1103 b 403 1133 435 1124 425 1133 z "},"Ď":{"ha":1289,"x_min":0,"x_max":0,"o":"m 135 972 b 93 931 107 972 93 958 l 93 42 b 135 0 93 14 107 0 l 783 0 b 1208 392 1085 0 1208 121 l 1208 581 b 783 972 1208 851 1085 972 z m 351 1272 b 333 1244 332 1272 322 1260 l 481 1044 b 540 1015 496 1025 510 1015 l 664 1015 b 725 1044 694 1015 710 1025 l 872 1244 b 854 1272 883 1260 874 1272 l 747 1272 b 703 1247 725 1272 714 1264 l 624 1126 b 606 1117 619 1121 613 1117 l 600 1117 b 582 1126 590 1117 586 1121 l 501 1247 b 458 1272 490 1264 481 1272 z m 304 758 b 322 776 304 771 310 776 l 778 776 b 997 563 942 776 997 726 l 997 410 b 778 196 997 246 942 196 l 322 196 b 304 214 310 196 304 201 z "},"ď":{"ha":1364,"x_min":0,"x_max":0,"o":"m 406 763 b 76 482 161 763 76 686 l 76 281 b 406 0 76 75 161 0 l 794 0 b 1125 281 1040 0 1125 75 l 1125 1011 b 1094 1042 1125 1032 1115 1042 l 958 1042 b 928 1011 939 1042 928 1032 l 928 763 z m 775 172 l 425 172 b 274 319 306 172 274 201 l 274 443 b 425 590 274 561 306 590 l 928 590 l 928 319 b 775 172 928 201 894 172 z m 1244 1036 b 1211 1004 1225 1036 1213 1025 l 1189 747 b 1221 715 1188 726 1199 715 l 1300 715 b 1335 747 1319 715 1329 725 l 1394 1000 b 1369 1036 1400 1024 1390 1036 z "},"Đ":{"ha":1367,"x_min":0,"x_max":0,"o":"m 49 576 b 18 546 28 576 18 565 l 18 436 b 49 406 18 417 28 406 l 169 406 l 169 42 b 211 0 169 14 183 0 l 860 0 b 1285 392 1161 0 1285 121 l 1285 581 b 860 972 1285 851 1161 972 l 211 972 b 169 931 183 972 169 958 l 169 576 z m 381 758 b 399 776 381 771 386 776 l 854 776 b 1074 563 1018 776 1074 726 l 1074 410 b 854 196 1074 246 1018 196 l 399 196 b 381 214 386 196 381 201 l 381 406 l 853 406 b 883 436 874 406 883 417 l 883 546 b 853 576 883 565 874 576 l 381 576 z "},"đ":{"ha":1210,"x_min":0,"x_max":0,"o":"m 519 1019 b 489 989 499 1019 489 1010 l 489 908 b 519 878 489 888 499 878 l 928 878 l 928 763 l 406 763 b 76 482 161 763 76 686 l 76 281 b 406 0 76 75 161 0 l 794 0 b 1125 281 1040 0 1125 75 l 1125 878 l 1171 878 b 1201 908 1192 878 1201 888 l 1201 989 b 1171 1019 1201 1010 1192 1019 l 1125 1019 b 1094 1042 1122 1035 1113 1042 l 958 1042 b 928 1019 942 1042 931 1035 z m 775 172 l 425 172 b 274 319 306 172 274 201 l 274 443 b 425 590 274 561 306 590 l 928 590 l 928 319 b 775 172 928 201 894 172 z "},"Ē":{"ha":1181,"x_min":0,"x_max":0,"o":"m 471 972 b 82 606 189 972 82 871 l 82 367 b 471 0 82 101 189 0 l 1082 0 b 1113 31 1101 0 1113 10 l 1113 165 b 1082 196 1113 185 1101 196 l 472 196 b 292 382 329 196 292 236 l 292 399 l 1074 399 b 1104 429 1093 399 1104 408 l 1104 553 b 1074 583 1104 574 1093 583 l 292 583 l 292 590 b 472 776 292 736 329 776 l 1082 776 b 1113 807 1101 776 1113 788 l 1113 942 b 1082 972 1113 963 1101 972 z m 322 1208 b 290 1183 301 1208 290 1200 l 290 1097 b 322 1074 290 1081 301 1074 l 974 1074 b 1004 1097 993 1074 1004 1081 l 1004 1183 b 974 1208 1004 1200 993 1208 z "},"ē":{"ha":1096,"x_min":0,"x_max":0,"o":"m 388 763 b 57 482 142 763 57 686 l 57 281 b 388 0 57 75 142 0 l 986 0 b 1011 25 1003 0 1011 8 l 1011 147 b 986 172 1011 164 1003 172 l 407 172 b 254 289 288 172 254 201 l 254 314 l 956 314 b 1035 392 1011 314 1035 335 l 1035 535 b 794 763 1035 707 981 763 z m 254 457 l 254 485 b 407 597 254 572 283 597 l 754 597 b 839 529 822 597 839 583 l 839 481 b 815 457 839 465 832 457 z m 222 1019 b 192 989 201 1019 192 1010 l 192 908 b 222 878 192 888 201 878 l 874 878 b 904 908 894 878 904 888 l 904 989 b 874 1019 904 1010 894 1019 z "},"Ĕ":{"ha":1181,"x_min":0,"x_max":0,"o":"m 471 972 b 82 606 189 972 82 871 l 82 367 b 471 0 82 101 189 0 l 1082 0 b 1113 31 1101 0 1113 10 l 1113 165 b 1082 196 1113 185 1101 196 l 472 196 b 292 382 329 196 292 236 l 292 399 l 1074 399 b 1104 429 1093 399 1104 408 l 1104 553 b 1074 583 1104 574 1093 583 l 292 583 l 292 590 b 472 776 292 736 329 776 l 1082 776 b 1113 807 1101 776 1113 788 l 1113 942 b 1082 972 1113 963 1101 972 z m 313 1179 b 342 1132 313 1160 318 1147 b 647 1047 406 1086 535 1047 b 951 1132 760 1047 886 1085 b 979 1179 975 1147 979 1160 l 979 1236 b 953 1263 979 1253 969 1263 b 919 1250 944 1263 932 1258 b 647 1156 840 1193 754 1156 b 374 1250 539 1156 450 1194 b 339 1263 361 1258 349 1263 b 313 1236 324 1263 313 1253 z "},"ĕ":{"ha":1096,"x_min":0,"x_max":0,"o":"m 388 763 b 57 482 142 763 57 686 l 57 281 b 388 0 57 75 142 0 l 986 0 b 1011 25 1003 0 1011 8 l 1011 147 b 986 172 1011 164 1003 172 l 407 172 b 254 289 288 172 254 201 l 254 314 l 956 314 b 1035 392 1011 314 1035 335 l 1035 535 b 794 763 1035 707 981 763 z m 215 1004 b 242 947 215 985 218 968 b 547 850 293 906 414 850 b 854 947 682 850 803 906 b 881 1004 878 968 881 985 l 881 1076 b 856 1108 881 1094 872 1108 b 821 1092 846 1108 835 1103 b 547 985 790 1067 690 985 b 275 1092 406 985 306 1067 b 240 1108 261 1103 250 1108 b 215 1076 224 1108 215 1094 z m 254 457 l 254 485 b 407 597 254 572 283 597 l 754 597 b 839 529 822 597 839 583 l 839 481 b 815 457 839 465 832 457 z "},"Ė":{"ha":1181,"x_min":0,"x_max":0,"o":"m 471 972 b 82 606 189 972 82 871 l 82 367 b 471 0 82 101 189 0 l 1082 0 b 1113 31 1101 0 1113 10 l 1113 165 b 1082 196 1113 185 1101 196 l 472 196 b 292 382 329 196 292 236 l 292 399 l 1074 399 b 1104 429 1093 399 1104 408 l 1104 553 b 1074 583 1104 574 1093 583 l 292 583 l 292 590 b 472 776 292 736 329 776 l 1082 776 b 1113 807 1101 776 1113 788 l 1113 942 b 1082 972 1113 963 1101 972 z m 579 1229 b 549 1204 560 1229 549 1221 l 549 1072 b 579 1047 549 1056 560 1047 l 715 1047 b 747 1072 736 1047 747 1056 l 747 1204 b 715 1229 747 1221 736 1229 z "},"ė":{"ha":1096,"x_min":0,"x_max":0,"o":"m 388 763 b 57 482 142 763 57 686 l 57 281 b 388 0 57 75 142 0 l 986 0 b 1011 25 1003 0 1011 8 l 1011 147 b 986 172 1011 164 1003 172 l 407 172 b 254 289 288 172 254 201 l 254 314 l 956 314 b 1035 392 1011 314 1035 335 l 1035 535 b 794 763 1035 707 981 763 z m 479 1044 b 449 1014 458 1044 449 1035 l 449 882 b 479 850 449 861 458 850 l 615 850 b 646 882 636 850 646 861 l 646 1014 b 615 1044 646 1035 636 1044 z m 254 457 l 254 485 b 407 597 254 572 283 597 l 754 597 b 839 529 822 597 839 583 l 839 481 b 815 457 839 465 832 457 z "},"Ę":{"ha":1181,"x_min":0,"x_max":0,"o":"m 786 -44 b 688 -207 707 -74 688 -118 b 865 -378 688 -337 726 -378 l 1043 -378 b 1068 -353 1060 -378 1068 -369 l 1068 -254 b 1043 -229 1068 -237 1060 -229 l 926 -229 b 850 -165 867 -229 850 -215 b 921 -82 850 -126 860 -110 l 1094 1 b 1113 31 1106 6 1113 15 l 1113 165 b 1082 196 1113 185 1101 196 l 472 196 b 292 382 329 196 292 236 l 292 399 l 1074 399 b 1104 429 1093 399 1104 408 l 1104 553 b 1074 583 1104 574 1093 583 l 292 583 l 292 590 b 472 776 292 736 329 776 l 1082 776 b 1113 807 1101 776 1113 788 l 1113 942 b 1082 972 1113 963 1101 972 l 471 972 b 82 606 189 972 82 871 l 82 367 b 471 0 82 101 189 0 l 906 0 z "},"ę":{"ha":1096,"x_min":0,"x_max":0,"o":"m 689 -44 b 590 -207 610 -74 590 -118 b 768 -378 590 -337 629 -378 l 946 -378 b 971 -353 963 -378 971 -369 l 971 -254 b 946 -229 971 -237 963 -229 l 829 -229 b 753 -165 769 -229 753 -215 b 824 -82 753 -126 763 -110 l 996 1 b 1011 25 1006 4 1011 13 l 1011 147 b 986 172 1011 164 1003 172 l 407 172 b 254 289 288 172 254 201 l 254 314 l 956 314 b 1035 392 1011 314 1035 335 l 1035 535 b 794 763 1035 707 981 763 l 388 763 b 57 482 142 763 57 686 l 57 281 b 388 0 57 75 142 0 l 807 0 z m 254 457 l 254 485 b 407 597 254 572 283 597 l 754 597 b 839 529 822 597 839 583 l 839 481 b 815 457 839 465 832 457 z "},"Ě":{"ha":1181,"x_min":0,"x_max":0,"o":"m 471 972 b 82 606 189 972 82 871 l 82 367 b 471 0 82 101 189 0 l 1082 0 b 1113 31 1101 0 1113 10 l 1113 165 b 1082 196 1113 185 1101 196 l 472 196 b 292 382 329 196 292 236 l 292 399 l 1074 399 b 1104 429 1093 399 1104 408 l 1104 553 b 1074 583 1104 574 1093 583 l 292 583 l 292 590 b 472 776 292 736 329 776 l 1082 776 b 1113 807 1101 776 1113 788 l 1113 942 b 1082 972 1113 963 1101 972 z m 396 1272 b 378 1244 376 1272 367 1260 l 525 1044 b 585 1015 540 1025 554 1015 l 708 1015 b 769 1044 739 1015 754 1025 l 917 1244 b 899 1272 928 1260 918 1272 l 792 1272 b 747 1247 769 1272 758 1264 l 668 1126 b 650 1117 664 1121 657 1117 l 644 1117 b 626 1126 635 1117 631 1121 l 546 1247 b 503 1272 535 1264 525 1272 z "},"ě":{"ha":1096,"x_min":0,"x_max":0,"o":"m 388 763 b 57 482 142 763 57 686 l 57 281 b 388 0 57 75 142 0 l 986 0 b 1011 25 1003 0 1011 8 l 1011 147 b 986 172 1011 164 1003 172 l 407 172 b 254 289 288 172 254 201 l 254 314 l 956 314 b 1035 392 1011 314 1035 335 l 1035 535 b 794 763 1035 707 981 763 z m 297 1133 b 279 1099 278 1133 267 1118 l 426 847 b 486 813 440 824 457 813 l 610 813 b 669 847 640 813 656 824 l 817 1099 b 799 1133 828 1118 818 1133 l 692 1133 b 649 1103 669 1133 660 1124 l 568 949 b 551 936 564 940 560 936 l 543 936 b 528 949 536 936 532 940 l 447 1103 b 404 1133 436 1124 426 1133 z m 254 457 l 254 485 b 407 597 254 572 283 597 l 754 597 b 839 529 822 597 839 583 l 839 481 b 815 457 839 465 832 457 z "},"Ğ":{"ha":1286,"x_min":0,"x_max":0,"o":"m 471 972 b 82 606 189 972 82 872 l 82 367 b 471 0 82 100 189 0 l 1031 0 b 1203 213 1143 0 1203 57 l 1203 543 b 1161 585 1203 571 1189 585 l 582 585 b 551 554 563 585 551 574 l 551 432 b 582 401 551 411 563 401 l 989 401 b 1006 382 1000 401 1006 396 l 1006 279 b 936 196 1006 217 985 196 l 478 196 b 293 385 335 196 293 238 l 293 585 b 478 775 293 732 335 775 l 1174 775 b 1204 806 1193 775 1204 785 l 1204 942 b 1174 972 1204 963 1193 972 z m 335 1179 b 364 1132 335 1160 340 1147 b 669 1047 428 1086 557 1047 b 974 1132 782 1047 908 1085 b 1001 1179 997 1147 1001 1160 l 1001 1236 b 975 1263 1001 1253 992 1263 b 942 1250 967 1263 954 1258 b 669 1156 863 1193 776 1156 b 396 1250 561 1156 472 1194 b 361 1263 383 1258 371 1263 b 335 1236 346 1263 335 1253 z "},"ğ":{"ha":1210,"x_min":0,"x_max":0,"o":"m 406 763 b 76 479 163 763 76 688 l 76 333 b 406 36 76 121 168 36 l 928 36 l 928 15 b 775 -135 928 -106 896 -135 l 140 -135 b 115 -160 124 -135 115 -143 l 115 -282 b 140 -307 115 -299 124 -307 l 794 -307 b 1125 -24 1039 -307 1125 -232 l 1125 482 b 794 763 1125 688 1038 763 z m 272 1004 b 299 947 272 985 275 968 b 604 850 350 906 471 850 b 911 947 739 850 860 906 b 938 1004 935 968 938 985 l 938 1076 b 913 1108 938 1094 929 1108 b 878 1092 903 1108 892 1103 b 604 985 847 1067 747 985 b 332 1092 463 985 363 1067 b 297 1108 318 1103 307 1108 b 272 1076 281 1108 272 1094 z m 274 336 l 274 468 b 425 592 274 565 307 592 l 775 592 b 928 464 894 592 928 565 l 928 203 l 425 203 b 274 336 311 203 274 235 z "},"Ġ":{"ha":1286,"x_min":0,"x_max":0,"o":"m 471 972 b 82 606 189 972 82 872 l 82 367 b 471 0 82 100 189 0 l 1031 0 b 1203 213 1143 0 1203 57 l 1203 543 b 1161 585 1203 571 1189 585 l 582 585 b 551 554 563 585 551 574 l 551 432 b 582 401 551 411 563 401 l 989 401 b 1006 382 1000 401 1006 396 l 1006 279 b 936 196 1006 217 985 196 l 478 196 b 293 385 335 196 293 238 l 293 585 b 478 775 293 732 335 775 l 1174 775 b 1204 806 1193 775 1204 785 l 1204 942 b 1174 972 1204 963 1193 972 z m 613 1229 b 582 1204 593 1229 582 1221 l 582 1072 b 613 1047 582 1056 593 1047 l 749 1047 b 781 1072 769 1047 781 1056 l 781 1204 b 749 1229 781 1221 769 1229 z "},"ġ":{"ha":1210,"x_min":0,"x_max":0,"o":"m 406 763 b 76 479 163 763 76 688 l 76 333 b 406 36 76 121 168 36 l 928 36 l 928 15 b 775 -135 928 -106 896 -135 l 140 -135 b 115 -160 124 -135 115 -143 l 115 -282 b 140 -307 115 -299 124 -307 l 794 -307 b 1125 -24 1039 -307 1125 -232 l 1125 482 b 794 763 1125 688 1038 763 z m 532 1044 b 501 1014 511 1044 501 1035 l 501 882 b 532 850 501 861 511 850 l 668 850 b 699 882 689 850 699 861 l 699 1014 b 668 1044 699 1035 689 1044 z m 274 336 l 274 468 b 425 592 274 565 307 592 l 775 592 b 928 464 894 592 928 565 l 928 203 l 425 203 b 274 336 311 203 274 235 z "},"Ģ":{"ha":1286,"x_min":0,"x_max":0,"o":"m 471 972 b 82 606 189 972 82 872 l 82 367 b 471 0 82 100 189 0 l 1031 0 b 1203 213 1143 0 1203 57 l 1203 543 b 1161 585 1203 571 1189 585 l 582 585 b 551 554 563 585 551 574 l 551 432 b 582 401 551 411 563 401 l 989 401 b 1006 382 1000 401 1006 396 l 1006 279 b 936 196 1006 217 985 196 l 478 196 b 293 385 335 196 293 238 l 293 585 b 478 775 293 732 335 775 l 1174 775 b 1204 806 1193 775 1204 785 l 1204 942 b 1174 972 1204 963 1193 972 z m 589 -57 b 556 -89 569 -57 557 -68 l 533 -346 b 565 -378 532 -367 543 -378 l 644 -378 b 679 -346 664 -378 674 -368 l 739 -93 b 714 -57 744 -69 735 -57 z "},"ģ":{"ha":1210,"x_min":0,"x_max":0,"o":"m 406 763 b 76 479 163 763 76 688 l 76 333 b 406 36 76 121 168 36 l 928 36 l 928 15 b 775 -135 928 -106 896 -135 l 140 -135 b 115 -160 124 -135 115 -143 l 115 -282 b 140 -307 115 -299 124 -307 l 794 -307 b 1125 -24 1039 -307 1125 -232 l 1125 482 b 794 763 1125 688 1038 763 z m 578 1133 b 543 1101 558 1133 549 1122 l 483 847 b 508 813 478 825 488 813 l 633 813 b 668 844 653 813 667 825 l 689 1100 b 657 1133 690 1121 679 1133 z m 274 336 l 274 468 b 425 592 274 565 307 592 l 775 592 b 928 464 894 592 928 565 l 928 203 l 425 203 b 274 336 311 203 274 235 z "},"Ħ":{"ha":1258,"x_min":0,"x_max":0,"o":"m 39 854 b 8 824 18 854 8 844 l 8 743 b 39 713 8 722 18 713 l 93 713 l 93 31 b 124 0 93 10 103 0 l 274 0 b 304 31 294 0 304 10 l 304 396 l 954 396 l 954 31 b 985 0 954 10 965 0 l 1135 0 b 1167 31 1156 0 1167 10 l 1167 713 l 1219 713 b 1250 743 1240 713 1250 722 l 1250 824 b 1219 854 1250 844 1240 854 l 1167 854 l 1167 942 b 1135 972 1167 963 1156 972 l 985 972 b 954 942 965 972 954 963 l 954 854 l 304 854 l 304 942 b 274 972 304 963 294 972 l 124 972 b 93 942 103 972 93 963 l 93 854 z m 954 585 l 304 585 l 304 713 l 954 713 z "},"ħ":{"ha":1221,"x_min":0,"x_max":0,"o":"m 39 1019 b 8 989 18 1019 8 1010 l 8 908 b 39 878 8 888 18 878 l 89 878 l 89 31 b 119 0 89 10 99 0 l 256 0 b 286 31 275 0 286 10 l 286 586 l 796 586 b 939 433 911 586 939 557 l 939 31 b 969 0 939 10 950 0 l 1106 0 b 1136 31 1126 0 1136 10 l 1136 482 b 806 763 1136 686 1051 763 l 286 763 l 286 878 l 690 878 b 721 908 711 878 721 888 l 721 989 b 690 1019 721 1010 711 1019 l 286 1019 b 256 1042 283 1035 272 1042 l 119 1042 b 89 1019 101 1042 92 1035 z "},"Ĩ":{"ha":674,"x_min":0,"x_max":0,"o":"m 263 972 b 232 942 242 972 232 963 l 232 31 b 263 0 232 10 242 0 l 413 0 b 443 31 433 0 443 10 l 443 942 b 413 972 443 963 433 972 z m 83 1032 b 122 1063 108 1032 121 1042 b 186 1153 122 1138 131 1153 b 290 1115 231 1153 258 1142 b 519 1038 358 1061 426 1038 b 694 1232 646 1038 694 1083 b 668 1272 694 1264 690 1272 l 590 1272 b 553 1243 567 1272 554 1264 b 489 1151 553 1167 544 1151 b 383 1189 444 1151 418 1161 b 156 1267 317 1243 247 1267 b -19 1072 29 1267 -19 1221 b 6 1032 -19 1042 -15 1032 z "},"ĩ":{"ha":714,"x_min":0,"x_max":0,"o":"m 289 763 b 258 732 268 763 258 751 l 258 31 b 289 0 258 10 268 0 l 425 0 b 456 31 444 0 456 10 l 456 732 b 425 763 456 751 444 763 z m 99 836 b 138 869 124 836 136 846 b 204 961 138 944 146 961 b 310 924 254 961 278 951 b 540 840 378 865 446 840 b 713 1051 665 840 713 892 b 688 1094 713 1085 708 1094 l 614 1094 b 575 1061 589 1094 576 1085 b 508 968 575 986 565 968 b 403 1007 458 968 436 979 b 172 1090 335 1065 267 1090 b 0 879 47 1090 0 1039 b 25 836 0 846 4 836 z "},"Ī":{"ha":635,"x_min":0,"x_max":0,"o":"m 243 972 b 213 942 222 972 213 963 l 213 31 b 243 0 213 10 222 0 l 393 0 b 424 31 414 0 424 10 l 424 942 b 393 972 424 963 414 972 z m -7 1208 b -39 1183 -28 1208 -39 1200 l -39 1097 b -7 1074 -39 1081 -28 1074 l 644 1074 b 675 1097 664 1074 675 1081 l 675 1183 b 644 1208 675 1200 664 1208 z "},"ī":{"ha":689,"x_min":0,"x_max":0,"o":"m 276 763 b 246 732 256 763 246 751 l 246 31 b 276 0 246 10 256 0 l 413 0 b 443 31 432 0 443 10 l 443 732 b 413 763 443 751 432 763 z m 19 1019 b -11 989 -1 1019 -11 1010 l -11 908 b 19 878 -11 888 -1 878 l 671 878 b 701 908 692 878 701 888 l 701 989 b 671 1019 701 1010 692 1019 z "},"Ĭ":{"ha":608,"x_min":0,"x_max":0,"o":"m 229 972 b 199 942 208 972 199 963 l 199 31 b 229 0 199 10 208 0 l 379 0 b 410 31 400 0 410 10 l 410 942 b 379 972 410 963 400 972 z m -29 1179 b 0 1132 -29 1160 -24 1147 b 306 1047 64 1086 193 1047 b 610 1132 418 1047 544 1085 b 638 1179 633 1147 638 1160 l 638 1236 b 611 1263 638 1253 628 1263 b 578 1250 603 1263 590 1258 b 306 1156 499 1193 413 1156 b 32 1250 197 1156 108 1194 b -3 1263 19 1258 7 1263 b -29 1236 -18 1263 -29 1253 z "},"ĭ":{"ha":651,"x_min":0,"x_max":0,"o":"m 258 763 b 228 732 238 763 228 751 l 228 31 b 258 0 228 10 238 0 l 394 0 b 425 31 414 0 425 10 l 425 732 b 394 763 425 751 414 763 z m -6 1004 b 21 947 -6 985 -3 968 b 326 850 72 906 193 850 b 633 947 461 850 582 906 b 660 1004 657 968 660 985 l 660 1076 b 635 1108 660 1094 651 1108 b 600 1092 625 1108 614 1103 b 326 985 569 1067 469 985 b 54 1092 185 985 85 1067 b 19 1108 40 1103 29 1108 b -6 1076 3 1108 -6 1094 z "},"Į":{"ha":467,"x_min":0,"x_max":0,"o":"m 50 -44 b -50 -207 -29 -74 -50 -118 b 128 -378 -50 -337 -10 -378 l 306 -378 b 331 -353 322 -378 331 -369 l 331 -254 b 306 -229 331 -237 322 -229 l 189 -229 b 114 -165 129 -229 114 -215 b 183 -82 114 -126 122 -110 l 356 1 b 374 31 368 6 374 15 l 374 942 b 343 972 374 963 364 972 l 193 972 b 163 942 172 972 163 963 l 163 31 b 176 3 163 17 167 7 z "},"į":{"ha":450,"x_min":0,"x_max":0,"o":"m 40 -44 b -58 -207 -40 -74 -58 -118 b 119 -378 -58 -337 -19 -378 l 297 -378 b 322 -353 314 -378 322 -369 l 322 -254 b 297 -229 322 -237 314 -229 l 179 -229 b 106 -165 121 -229 106 -215 b 175 -82 106 -126 114 -111 l 351 6 l 350 6 b 361 31 358 10 361 18 l 361 732 b 331 763 361 751 350 763 l 194 763 b 164 732 174 763 164 751 l 164 31 b 174 6 164 19 167 11 z m 196 1044 b 165 1014 175 1044 165 1035 l 165 882 b 196 850 165 861 175 850 l 332 850 b 363 882 353 850 363 861 l 363 1014 b 332 1044 363 1035 353 1044 z "},"İ":{"ha":397,"x_min":0,"x_max":0,"o":"m 124 972 b 93 942 103 972 93 963 l 93 31 b 124 0 93 10 103 0 l 274 0 b 304 31 294 0 304 10 l 304 942 b 274 972 304 963 294 972 z m 129 1229 b 99 1204 110 1229 99 1221 l 99 1072 b 129 1047 99 1056 110 1047 l 265 1047 b 297 1072 286 1047 297 1056 l 297 1204 b 265 1229 297 1221 286 1229 z "},"ı":{"ha":375,"x_min":0,"x_max":0,"o":"m 119 763 b 89 732 99 763 89 751 l 89 31 b 119 0 89 10 99 0 l 256 0 b 286 31 275 0 286 10 l 286 732 b 256 763 286 751 275 763 z "},"Ĳ":{"ha":1482,"x_min":0,"x_max":0,"o":"m 124 972 b 93 942 103 972 93 963 l 93 31 b 124 0 93 10 103 0 l 274 0 b 304 31 294 0 304 10 l 304 942 b 274 972 304 963 294 972 z m 1211 972 b 1181 942 1190 972 1181 963 l 1181 388 b 996 197 1181 240 1139 197 l 460 197 b 429 167 440 197 429 188 l 429 31 b 460 0 429 10 440 0 l 1004 0 b 1393 367 1286 0 1393 101 l 1393 942 b 1361 972 1393 963 1382 972 z "},"ĳ":{"ha":767,"x_min":0,"x_max":0,"o":"m 119 763 b 89 732 99 763 89 751 l 89 31 b 119 0 89 10 99 0 l 256 0 b 286 31 275 0 286 10 l 286 732 b 256 763 286 751 275 763 z m 514 763 b 482 732 493 763 482 751 l 482 11 b 344 -135 482 -106 456 -135 l 254 -135 b 229 -160 238 -135 229 -143 l 229 -282 b 254 -307 229 -299 238 -307 l 364 -307 b 681 -28 600 -307 681 -232 l 681 732 b 650 763 681 751 669 763 z m 119 1044 b 89 1014 99 1044 89 1035 l 89 882 b 119 850 89 861 99 850 l 256 850 b 286 882 276 850 286 861 l 286 1014 b 256 1044 286 1035 276 1044 z m 514 1044 b 483 1014 493 1044 483 1035 l 483 882 b 514 850 483 861 493 850 l 650 850 b 681 882 671 850 681 861 l 681 1014 b 650 1044 681 1035 671 1044 z "},"Ķ":{"ha":1186,"x_min":0,"x_max":0,"o":"m 124 972 b 93 942 103 972 93 963 l 93 31 b 124 0 93 10 103 0 l 274 0 b 304 31 294 0 304 10 l 304 404 l 515 404 b 669 347 606 404 633 394 l 926 18 b 967 0 936 4 944 0 l 1143 0 b 1161 36 1167 0 1172 25 l 876 397 b 771 497 842 442 808 474 b 854 590 797 519 824 550 l 1124 939 b 1107 972 1135 953 1128 972 l 933 972 b 893 954 910 972 903 968 l 651 635 b 497 579 615 588 592 579 l 304 579 l 304 942 b 274 972 304 963 294 972 z m 519 -57 b 486 -89 500 -57 488 -68 l 464 -346 b 496 -378 463 -367 474 -378 l 575 -378 b 610 -346 594 -378 604 -368 l 669 -93 b 644 -57 675 -69 665 -57 z "},"ķ":{"ha":1103,"x_min":0,"x_max":0,"o":"m 118 0 l 254 0 b 285 31 275 0 285 10 l 285 308 l 553 308 b 685 253 628 308 650 299 l 856 19 b 897 0 867 4 875 0 l 1061 0 b 1076 35 1081 0 1088 18 l 879 301 b 782 392 851 339 821 369 b 867 479 813 413 839 442 l 1046 725 b 1032 763 1058 743 1053 763 l 874 763 b 832 739 853 763 844 757 l 676 519 b 540 465 642 472 625 465 l 285 465 l 285 1011 b 254 1042 285 1032 275 1042 l 118 1042 b 88 1011 97 1042 88 1032 l 88 31 b 118 0 88 10 97 0 z m 486 -57 b 453 -89 467 -57 454 -68 l 431 -346 b 463 -378 429 -367 440 -378 l 542 -378 b 576 -346 561 -378 571 -368 l 636 -93 b 611 -57 642 -69 632 -57 z "},"Ĺ":{"ha":1113,"x_min":0,"x_max":0,"o":"m 121 972 b 90 942 100 972 90 963 l 90 367 b 479 0 90 100 197 0 l 1049 0 b 1079 31 1068 0 1079 10 l 1079 167 b 1049 197 1079 188 1068 197 l 486 197 b 301 388 343 197 301 240 l 301 942 b 271 972 301 963 292 972 z m 307 1272 b 264 1247 286 1272 274 1263 l 140 1042 b 161 1015 131 1025 139 1015 l 267 1015 b 310 1040 288 1015 297 1024 l 450 1246 b 431 1272 461 1264 450 1272 z "},"ĺ":{"ha":393,"x_min":0,"x_max":0,"o":"m 286 1272 b 243 1247 265 1272 253 1263 l 119 1042 b 89 1011 99 1042 89 1032 l 89 31 b 119 0 89 10 99 0 l 256 0 b 286 31 275 0 286 10 l 286 1011 b 281 1031 286 1019 285 1026 b 289 1040 283 1033 286 1038 l 429 1246 b 410 1272 440 1264 429 1272 z "},"Ļ":{"ha":1113,"x_min":0,"x_max":0,"o":"m 121 972 b 90 942 100 972 90 963 l 90 367 b 479 0 90 100 197 0 l 1049 0 b 1079 31 1068 0 1079 10 l 1079 167 b 1049 197 1079 188 1068 197 l 486 197 b 301 388 343 197 301 240 l 301 942 b 271 972 301 963 292 972 z m 543 -57 b 510 -89 524 -57 511 -68 l 488 -346 b 519 -378 486 -367 497 -378 l 599 -378 b 633 -346 618 -378 628 -368 l 693 -93 b 668 -57 699 -69 689 -57 z "},"ļ":{"ha":375,"x_min":0,"x_max":0,"o":"m 119 1042 b 89 1011 99 1042 89 1032 l 89 31 b 119 0 89 10 99 0 l 256 0 b 286 31 275 0 286 10 l 286 1011 b 256 1042 286 1032 275 1042 z m 121 -57 b 88 -89 101 -57 89 -68 l 65 -346 b 97 -378 64 -367 75 -378 l 176 -378 b 211 -346 196 -378 206 -368 l 271 -93 b 246 -57 276 -69 267 -57 z "},"Ľ":{"ha":1113,"x_min":0,"x_max":0,"o":"m 121 972 b 90 942 100 972 90 963 l 90 367 b 479 0 90 100 197 0 l 1049 0 b 1079 31 1068 0 1079 10 l 1079 167 b 1049 197 1079 188 1068 197 l 486 197 b 301 388 343 197 301 240 l 301 942 b 271 972 301 963 292 972 z m 633 1036 b 600 1004 614 1036 601 1025 l 578 747 b 610 715 576 726 588 715 l 689 715 b 724 747 708 715 718 725 l 783 1000 b 758 1036 789 1024 779 1036 z "},"ľ":{"ha":519,"x_min":0,"x_max":0,"o":"m 119 1042 b 89 1011 99 1042 89 1032 l 89 31 b 119 0 89 10 99 0 l 256 0 b 286 31 275 0 286 10 l 286 1011 b 256 1042 286 1032 275 1042 z m 401 1036 b 368 1004 382 1036 369 1025 l 346 747 b 378 715 344 726 356 715 l 457 715 b 492 747 476 715 486 725 l 551 1000 b 526 1036 557 1024 547 1036 z "},"Ł":{"ha":1142,"x_min":0,"x_max":0,"o":"m 31 611 b 8 585 15 606 8 601 l 8 489 b 32 471 8 474 17 465 l 119 500 l 119 367 b 508 0 119 100 226 0 l 1078 0 b 1108 31 1097 0 1108 10 l 1108 167 b 1078 197 1108 188 1097 197 l 515 197 b 331 388 372 197 331 240 l 331 572 l 567 653 b 590 679 583 658 590 663 l 590 776 b 565 792 590 792 581 797 l 331 713 l 331 942 b 300 972 331 963 321 972 l 150 972 b 119 942 129 972 119 963 l 119 640 z "},"ł":{"ha":594,"x_min":0,"x_max":0,"o":"m 29 700 b 6 674 13 694 6 690 l 6 578 b 31 560 6 563 15 554 l 199 617 l 199 31 b 229 0 199 10 208 0 l 365 0 b 396 31 385 0 396 10 l 396 685 l 565 742 b 588 768 582 747 588 751 l 588 865 b 563 881 588 881 579 886 l 396 824 l 396 1011 b 365 1042 396 1032 385 1042 l 229 1042 b 199 1011 208 1042 199 1032 l 199 757 z "},"Ń":{"ha":1358,"x_min":0,"x_max":0,"o":"m 217 972 b 93 828 129 972 93 938 l 93 31 b 124 0 93 10 103 0 l 272 0 b 303 31 292 0 303 10 l 303 756 b 314 769 303 765 306 769 l 326 769 b 344 760 335 769 339 767 l 857 82 b 1017 0 900 21 917 0 l 1140 0 b 1265 144 1228 0 1265 35 l 1265 942 b 1235 972 1265 963 1256 972 l 1086 972 b 1056 942 1065 972 1056 963 l 1056 217 b 1044 203 1056 207 1051 203 l 1032 203 b 1014 213 1024 203 1018 206 l 503 890 b 342 972 458 951 442 972 z m 735 1272 b 692 1247 714 1272 701 1263 l 568 1042 b 589 1015 558 1025 567 1015 l 694 1015 b 738 1040 715 1015 725 1024 l 878 1246 b 858 1272 889 1264 878 1272 z "},"ń":{"ha":1228,"x_min":0,"x_max":0,"o":"m 414 763 b 85 482 169 763 85 686 l 85 31 b 115 0 85 10 94 0 l 251 0 b 282 31 272 0 282 10 l 282 433 b 433 586 282 551 314 586 l 803 586 b 946 433 918 586 946 557 l 946 31 b 976 0 946 10 957 0 l 1113 0 b 1143 31 1133 0 1143 10 l 1143 482 b 813 763 1143 686 1058 763 z m 664 1133 b 621 1101 644 1133 632 1124 l 496 846 b 517 813 486 826 494 813 l 622 813 b 664 844 640 813 650 819 l 807 1100 b 788 1133 817 1119 808 1133 z "},"Ņ":{"ha":1358,"x_min":0,"x_max":0,"o":"m 217 972 b 93 828 129 972 93 938 l 93 31 b 124 0 93 10 103 0 l 272 0 b 303 31 292 0 303 10 l 303 756 b 314 769 303 765 306 769 l 326 769 b 344 760 335 769 339 767 l 857 82 b 1017 0 900 21 917 0 l 1140 0 b 1265 144 1228 0 1265 35 l 1265 942 b 1235 972 1265 963 1256 972 l 1086 972 b 1056 942 1065 972 1056 963 l 1056 217 b 1044 203 1056 207 1051 203 l 1032 203 b 1014 213 1024 203 1018 206 l 503 890 b 342 972 458 951 442 972 z m 585 -57 b 551 -89 565 -57 553 -68 l 529 -346 b 561 -378 528 -367 539 -378 l 640 -378 b 675 -346 660 -378 669 -368 l 735 -93 b 710 -57 740 -69 731 -57 z "},"ņ":{"ha":1228,"x_min":0,"x_max":0,"o":"m 414 763 b 85 482 169 763 85 686 l 85 31 b 115 0 85 10 94 0 l 251 0 b 282 31 272 0 282 10 l 282 433 b 433 586 282 551 314 586 l 803 586 b 946 433 918 586 946 557 l 946 31 b 976 0 946 10 957 0 l 1113 0 b 1143 31 1133 0 1143 10 l 1143 482 b 813 763 1143 686 1058 763 z m 560 -57 b 526 -89 540 -57 528 -68 l 504 -346 b 536 -378 503 -367 514 -378 l 615 -378 b 650 -346 635 -378 644 -368 l 710 -93 b 685 -57 715 -69 706 -57 z "},"Ň":{"ha":1358,"x_min":0,"x_max":0,"o":"m 217 972 b 93 828 129 972 93 938 l 93 31 b 124 0 93 10 103 0 l 272 0 b 303 31 292 0 303 10 l 303 756 b 314 769 303 765 306 769 l 326 769 b 344 760 335 769 339 767 l 857 82 b 1017 0 900 21 917 0 l 1140 0 b 1265 144 1228 0 1265 35 l 1265 942 b 1235 972 1265 963 1256 972 l 1086 972 b 1056 942 1065 972 1056 963 l 1056 217 b 1044 203 1056 207 1051 203 l 1032 203 b 1014 213 1024 203 1018 206 l 503 890 b 342 972 458 951 442 972 z m 429 1272 b 411 1244 410 1272 400 1260 l 558 1044 b 618 1015 574 1025 588 1015 l 742 1015 b 803 1044 772 1015 788 1025 l 950 1244 b 932 1272 961 1260 951 1272 l 825 1272 b 781 1247 803 1272 792 1264 l 701 1126 b 683 1117 697 1121 690 1117 l 678 1117 b 660 1126 668 1117 664 1121 l 579 1247 b 536 1272 568 1264 558 1272 z "},"ň":{"ha":1228,"x_min":0,"x_max":0,"o":"m 414 763 b 85 482 169 763 85 686 l 85 31 b 115 0 85 10 94 0 l 251 0 b 282 31 272 0 282 10 l 282 433 b 433 586 282 551 314 586 l 803 586 b 946 433 918 586 946 557 l 946 31 b 976 0 946 10 957 0 l 1113 0 b 1143 31 1133 0 1143 10 l 1143 482 b 813 763 1143 686 1058 763 z m 363 1133 b 344 1099 343 1133 332 1118 l 492 847 b 551 813 506 824 522 813 l 675 813 b 735 847 706 813 721 824 l 882 1099 b 864 1133 893 1118 883 1133 l 757 1133 b 714 1103 735 1133 725 1124 l 633 949 b 617 936 629 940 625 936 l 608 936 b 593 949 601 936 597 940 l 513 1103 b 469 1133 501 1124 492 1133 z "},"Ŋ":{"ha":1357,"x_min":0,"x_max":0,"o":"m 479 972 b 90 606 197 972 90 872 l 90 31 b 121 0 90 10 100 0 l 271 0 b 301 31 292 0 301 10 l 301 585 b 486 775 301 732 343 775 l 871 775 b 1054 585 1014 775 1054 732 l 1054 11 b 915 -124 1054 -101 1031 -124 l 840 -124 b 815 -149 824 -124 815 -132 l 815 -282 b 840 -307 815 -299 824 -307 l 950 -307 b 1267 -28 1185 -307 1267 -235 l 1267 606 b 878 972 1267 872 1160 972 z "},"ŋ":{"ha":1228,"x_min":0,"x_max":0,"o":"m 414 763 b 85 482 171 763 85 689 l 85 31 b 115 0 85 10 94 0 l 251 0 b 282 31 272 0 282 10 l 282 433 b 433 586 282 553 315 586 l 803 586 b 946 433 917 586 946 557 l 946 11 b 807 -135 946 -106 917 -135 l 717 -135 b 692 -160 700 -135 692 -143 l 692 -282 b 717 -307 692 -299 700 -307 l 826 -307 b 1143 -28 1061 -307 1143 -235 l 1143 482 b 813 763 1143 689 1056 763 z "},"Ō":{"ha":1369,"x_min":0,"x_max":0,"o":"m 471 972 b 82 606 189 972 82 871 l 82 367 b 471 0 82 101 189 0 l 899 0 b 1288 367 1181 0 1288 100 l 1288 606 b 899 972 1288 872 1181 972 z m 360 1208 b 328 1183 339 1208 328 1200 l 328 1097 b 360 1074 328 1081 339 1074 l 1011 1074 b 1042 1097 1031 1074 1042 1081 l 1042 1183 b 1011 1208 1042 1200 1031 1208 z m 293 590 b 478 776 293 736 333 776 l 890 776 b 1075 590 1035 776 1075 736 l 1075 382 b 890 196 1075 236 1035 196 l 478 196 b 293 382 333 196 293 236 z "},"ō":{"ha":1206,"x_min":0,"x_max":0,"o":"m 406 763 b 76 482 163 763 76 689 l 76 281 b 406 0 76 74 163 0 l 799 0 b 1129 281 1042 0 1129 74 l 1129 482 b 799 763 1129 689 1042 763 z m 274 447 b 425 592 274 563 304 592 l 779 592 b 932 447 901 592 932 563 l 932 315 b 779 169 932 199 901 169 l 425 169 b 274 315 304 169 274 199 z m 276 1019 b 246 989 256 1019 246 1010 l 246 908 b 276 878 246 888 256 878 l 928 878 b 958 908 949 878 958 888 l 958 989 b 928 1019 958 1010 949 1019 z "},"Ŏ":{"ha":1369,"x_min":0,"x_max":0,"o":"m 471 972 b 82 606 189 972 82 871 l 82 367 b 471 0 82 101 189 0 l 899 0 b 1288 367 1181 0 1288 100 l 1288 606 b 899 972 1288 872 1181 972 z m 349 1179 b 378 1132 349 1160 354 1147 b 683 1047 442 1086 571 1047 b 988 1132 796 1047 922 1085 b 1015 1179 1011 1147 1015 1160 l 1015 1236 b 989 1263 1015 1253 1006 1263 b 956 1250 981 1263 968 1258 b 683 1156 876 1193 790 1156 b 410 1250 575 1156 486 1194 b 375 1263 397 1258 385 1263 b 349 1236 360 1263 349 1253 z m 293 590 b 478 776 293 736 333 776 l 890 776 b 1075 590 1035 776 1075 736 l 1075 382 b 890 196 1075 236 1035 196 l 478 196 b 293 382 333 196 293 236 z "},"ŏ":{"ha":1206,"x_min":0,"x_max":0,"o":"m 406 763 b 76 482 163 763 76 689 l 76 281 b 406 0 76 74 163 0 l 799 0 b 1129 281 1042 0 1129 74 l 1129 482 b 799 763 1129 689 1042 763 z m 269 1004 b 296 947 269 985 272 968 b 601 850 347 906 468 850 b 908 947 736 850 857 906 b 935 1004 932 968 935 985 l 935 1076 b 910 1108 935 1094 926 1108 b 875 1092 900 1108 889 1103 b 601 985 844 1067 744 985 b 329 1092 460 985 360 1067 b 294 1108 315 1103 304 1108 b 269 1076 278 1108 269 1094 z m 274 447 b 425 592 274 563 304 592 l 779 592 b 932 447 901 592 932 563 l 932 315 b 779 169 932 199 901 169 l 425 169 b 274 315 304 169 274 199 z "},"Ő":{"ha":1369,"x_min":0,"x_max":0,"o":"m 471 972 b 82 606 189 972 82 871 l 82 367 b 471 0 82 101 189 0 l 899 0 b 1288 367 1181 0 1288 100 l 1288 606 b 899 972 1288 872 1181 972 z m 579 1272 b 535 1247 558 1272 544 1263 l 411 1042 b 432 1015 401 1025 411 1015 l 538 1015 b 581 1040 558 1015 568 1024 l 722 1246 b 701 1272 733 1264 721 1272 z m 896 1272 b 853 1247 875 1272 863 1263 l 728 1042 b 750 1015 718 1025 728 1015 l 854 1015 b 897 1040 876 1015 886 1024 l 1039 1246 b 1019 1272 1050 1264 1039 1272 z m 293 590 b 478 776 293 736 333 776 l 890 776 b 1075 590 1035 776 1075 736 l 1075 382 b 890 196 1075 236 1035 196 l 478 196 b 293 382 333 196 293 236 z "},"ő":{"ha":1206,"x_min":0,"x_max":0,"o":"m 406 763 b 76 482 163 763 76 689 l 76 281 b 406 0 76 74 163 0 l 799 0 b 1129 281 1042 0 1129 74 l 1129 482 b 799 763 1129 689 1042 763 z m 494 1133 b 451 1101 475 1133 461 1124 l 325 846 b 346 813 315 826 325 813 l 451 813 b 494 844 469 813 481 819 l 638 1100 b 617 1133 647 1119 639 1133 z m 811 1133 b 768 1101 792 1133 778 1124 l 642 846 b 664 813 632 826 642 813 l 768 813 b 811 844 786 813 797 819 l 954 1100 b 933 1133 964 1119 956 1133 z m 274 447 b 425 592 274 563 304 592 l 779 592 b 932 447 901 592 932 563 l 932 315 b 779 169 932 199 901 169 l 425 169 b 274 315 304 169 274 199 z "},"Œ":{"ha":2182,"x_min":0,"x_max":0,"o":"m 471 972 b 82 606 189 972 82 871 l 82 367 b 471 0 82 101 189 0 l 899 0 b 1186 72 1031 0 1124 22 b 1472 0 1249 22 1342 0 l 2083 0 b 2114 31 2103 0 2114 10 l 2114 165 b 2083 196 2114 185 2103 196 l 1474 196 b 1293 382 1331 196 1293 236 l 1293 399 l 2075 399 b 2106 429 2094 399 2106 408 l 2106 553 b 2075 583 2106 574 2094 583 l 1293 583 l 1293 590 b 1474 776 1293 736 1331 776 l 2083 776 b 2114 807 2103 776 2114 788 l 2114 942 b 2083 972 2114 963 2103 972 l 1472 972 b 1186 900 1342 972 1249 950 b 899 972 1124 950 1031 972 z m 293 590 b 478 776 293 736 333 776 l 890 776 b 1075 590 1035 776 1075 736 l 1075 382 b 890 196 1075 236 1035 196 l 478 196 b 293 382 333 196 293 236 z "},"œ":{"ha":1976,"x_min":0,"x_max":0,"o":"m 406 763 b 76 482 163 763 76 689 l 76 281 b 406 0 76 74 163 0 l 799 0 b 1033 47 904 0 981 14 b 1268 0 1085 14 1161 0 l 1867 0 b 1892 25 1883 0 1892 8 l 1892 147 b 1867 172 1892 164 1883 172 l 1288 172 b 1135 289 1168 172 1135 201 l 1135 314 l 1836 314 b 1915 392 1892 314 1915 335 l 1915 535 b 1675 763 1915 707 1861 763 l 1268 763 b 1033 715 1163 763 1086 749 b 799 763 981 749 904 763 z m 274 447 b 425 592 274 563 304 592 l 779 592 b 932 447 901 592 932 563 l 932 315 b 779 169 932 199 901 169 l 425 169 b 274 315 304 169 274 199 z m 1135 457 l 1135 485 b 1288 597 1135 572 1164 597 l 1635 597 b 1719 529 1703 597 1719 583 l 1719 481 b 1696 457 1719 465 1713 457 z "},"Ŕ":{"ha":1257,"x_min":0,"x_max":0,"o":"m 135 972 b 93 931 107 972 93 958 l 93 31 b 124 0 93 10 103 0 l 274 0 b 304 31 294 0 304 10 l 304 300 l 744 300 l 965 18 b 1004 0 975 6 982 0 l 1190 0 b 1208 36 1213 0 1219 22 l 976 324 b 1178 607 1114 351 1178 446 l 1178 688 b 879 972 1178 879 1086 972 z m 646 1272 b 603 1247 625 1272 613 1263 l 479 1042 b 500 1015 469 1025 478 1015 l 606 1015 b 649 1040 626 1015 636 1024 l 789 1246 b 769 1272 800 1264 789 1272 z m 304 483 l 304 763 b 322 778 304 774 310 778 l 836 778 b 965 658 929 778 965 743 l 965 600 b 836 483 965 517 931 483 z "},"ŕ":{"ha":853,"x_min":0,"x_max":0,"o":"m 414 763 b 85 482 169 763 85 686 l 85 31 b 115 0 85 10 94 0 l 251 0 b 282 31 272 0 282 10 l 282 443 b 433 590 282 560 313 590 l 803 590 b 828 615 819 590 828 599 l 828 738 b 803 763 828 754 819 763 z m 535 1133 b 492 1101 515 1133 503 1124 l 367 846 b 388 813 357 826 365 813 l 493 813 b 535 844 511 813 521 819 l 678 1100 b 658 1133 688 1119 679 1133 z "},"Ŗ":{"ha":1257,"x_min":0,"x_max":0,"o":"m 135 972 b 93 931 107 972 93 958 l 93 31 b 124 0 93 10 103 0 l 274 0 b 304 31 294 0 304 10 l 304 300 l 744 300 l 965 18 b 1004 0 975 6 982 0 l 1190 0 b 1208 36 1213 0 1219 22 l 976 324 b 1178 607 1114 351 1178 446 l 1178 688 b 879 972 1178 879 1086 972 z m 304 483 l 304 763 b 322 778 304 774 310 778 l 836 778 b 965 658 929 778 965 743 l 965 600 b 836 483 965 517 931 483 z m 549 -57 b 515 -89 529 -57 517 -68 l 493 -346 b 525 -378 492 -367 503 -378 l 604 -378 b 639 -346 624 -378 633 -368 l 699 -93 b 674 -57 704 -69 694 -57 z "},"ŗ":{"ha":853,"x_min":0,"x_max":0,"o":"m 414 763 b 85 482 169 763 85 686 l 85 31 b 115 0 85 10 94 0 l 251 0 b 282 31 272 0 282 10 l 282 443 b 433 590 282 560 313 590 l 803 590 b 828 615 819 590 828 599 l 828 738 b 803 763 828 754 819 763 z m 122 -57 b 89 -89 103 -57 90 -68 l 67 -346 b 99 -378 65 -367 76 -378 l 178 -378 b 213 -346 197 -378 207 -368 l 272 -93 b 247 -57 278 -69 268 -57 z "},"Ř":{"ha":1257,"x_min":0,"x_max":0,"o":"m 135 972 b 93 931 107 972 93 958 l 93 31 b 124 0 93 10 103 0 l 274 0 b 304 31 294 0 304 10 l 304 300 l 744 300 l 965 18 b 1004 0 975 6 982 0 l 1190 0 b 1208 36 1213 0 1219 22 l 976 324 b 1178 607 1114 351 1178 446 l 1178 688 b 879 972 1178 879 1086 972 z m 336 1272 b 318 1244 317 1272 307 1260 l 465 1044 b 525 1015 481 1025 494 1015 l 649 1015 b 710 1044 679 1015 694 1025 l 857 1244 b 839 1272 868 1260 858 1272 l 732 1272 b 688 1247 710 1272 699 1264 l 608 1126 b 590 1117 604 1121 597 1117 l 585 1117 b 567 1126 575 1117 571 1121 l 486 1247 b 443 1272 475 1264 465 1272 z m 304 483 l 304 763 b 322 778 304 774 310 778 l 836 778 b 965 658 929 778 965 743 l 965 600 b 836 483 965 517 931 483 z "},"ř":{"ha":853,"x_min":0,"x_max":0,"o":"m 414 763 b 85 482 169 763 85 686 l 85 31 b 115 0 85 10 94 0 l 251 0 b 282 31 272 0 282 10 l 282 443 b 433 590 282 560 313 590 l 803 590 b 828 615 819 590 828 599 l 828 738 b 803 763 828 754 819 763 z m 215 1133 b 197 1099 196 1133 185 1118 l 344 847 b 404 813 358 824 375 813 l 528 813 b 588 847 558 813 574 824 l 735 1099 b 717 1133 746 1118 736 1133 l 610 1133 b 567 1103 588 1133 578 1124 l 486 949 b 469 936 482 940 478 936 l 461 936 b 446 949 454 936 450 940 l 365 1103 b 322 1133 354 1124 344 1133 z "},"Ś":{"ha":1190,"x_min":0,"x_max":0,"o":"m 321 972 b 76 746 161 972 76 889 l 76 643 b 318 399 76 488 163 399 l 839 399 b 911 328 890 399 911 378 l 911 271 b 838 196 911 219 886 196 l 108 196 b 78 165 88 196 78 185 l 78 31 b 108 0 78 10 88 0 l 878 0 b 1124 226 1038 0 1124 83 l 1124 339 b 881 583 1124 494 1036 583 l 361 583 b 288 654 310 583 288 604 l 288 701 b 361 776 288 753 311 776 l 1057 776 b 1088 807 1076 776 1088 788 l 1088 942 b 1057 972 1088 963 1076 972 z m 646 1272 b 603 1247 625 1272 613 1263 l 479 1042 b 500 1015 469 1025 478 1015 l 606 1015 b 649 1040 626 1015 636 1024 l 789 1246 b 769 1272 800 1264 789 1272 z "},"ś":{"ha":1088,"x_min":0,"x_max":0,"o":"m 289 763 b 71 572 136 763 71 694 l 71 511 b 288 317 71 382 140 317 l 756 317 b 832 265 810 317 832 301 l 832 228 b 756 169 832 182 814 169 l 96 169 b 71 144 79 169 71 161 l 71 25 b 96 0 71 8 79 0 l 807 0 b 1025 194 963 0 1025 67 l 1025 272 b 808 465 1025 400 956 465 l 342 465 b 264 518 285 465 264 479 l 264 539 b 342 593 264 579 283 593 l 968 593 b 993 618 985 593 993 601 l 993 738 b 968 763 993 754 985 763 z m 596 1133 b 553 1101 576 1133 564 1124 l 428 846 b 449 813 418 826 426 813 l 554 813 b 596 844 572 813 582 819 l 739 1100 b 719 1133 749 1119 740 1133 z "},"Ş":{"ha":1190,"x_min":0,"x_max":0,"o":"m 321 972 b 76 746 161 972 76 889 l 76 643 b 318 399 76 488 163 399 l 839 399 b 911 328 890 399 911 378 l 911 271 b 838 196 911 219 886 196 l 108 196 b 78 165 88 196 78 185 l 78 31 b 108 0 78 10 88 0 l 878 0 b 1124 226 1038 0 1124 83 l 1124 339 b 881 583 1124 494 1036 583 l 361 583 b 288 654 310 583 288 604 l 288 701 b 361 776 288 753 311 776 l 1057 776 b 1088 807 1076 776 1088 788 l 1088 942 b 1057 972 1088 963 1076 972 z m 542 -57 b 508 -89 522 -57 510 -68 l 486 -346 b 518 -378 485 -367 496 -378 l 597 -378 b 632 -346 617 -378 626 -368 l 692 -93 b 667 -57 697 -69 688 -57 z "},"ş":{"ha":1088,"x_min":0,"x_max":0,"o":"m 289 763 b 71 572 136 763 71 694 l 71 511 b 288 317 71 382 140 317 l 756 317 b 832 265 810 317 832 301 l 832 228 b 756 169 832 182 814 169 l 96 169 b 71 144 79 169 71 161 l 71 25 b 96 0 71 8 79 0 l 807 0 b 1025 194 963 0 1025 67 l 1025 272 b 808 465 1025 400 956 465 l 342 465 b 264 518 285 465 264 479 l 264 539 b 342 593 264 579 283 593 l 968 593 b 993 618 985 593 993 601 l 993 738 b 968 763 993 754 985 763 z m 489 -57 b 456 -89 469 -57 457 -68 l 433 -346 b 465 -378 432 -367 443 -378 l 544 -378 b 579 -346 564 -378 574 -368 l 639 -93 b 614 -57 644 -69 635 -57 z "},"Š":{"ha":1190,"x_min":0,"x_max":0,"o":"m 321 972 b 76 746 161 972 76 889 l 76 643 b 318 399 76 488 163 399 l 839 399 b 911 328 890 399 911 378 l 911 271 b 838 196 911 219 886 196 l 108 196 b 78 165 88 196 78 185 l 78 31 b 108 0 78 10 88 0 l 878 0 b 1124 226 1038 0 1124 83 l 1124 339 b 881 583 1124 494 1036 583 l 361 583 b 288 654 310 583 288 604 l 288 701 b 361 776 288 753 311 776 l 1057 776 b 1088 807 1076 776 1088 788 l 1088 942 b 1057 972 1088 963 1076 972 z m 347 1272 b 329 1244 328 1272 318 1260 l 476 1044 b 536 1015 492 1025 506 1015 l 660 1015 b 721 1044 690 1015 706 1025 l 868 1244 b 850 1272 879 1260 869 1272 l 743 1272 b 699 1247 721 1272 710 1264 l 619 1126 b 601 1117 615 1121 608 1117 l 596 1117 b 578 1126 586 1117 582 1121 l 497 1247 b 454 1272 486 1264 476 1272 z "},"š":{"ha":1088,"x_min":0,"x_max":0,"o":"m 289 763 b 71 572 136 763 71 694 l 71 511 b 288 317 71 382 140 317 l 756 317 b 832 265 810 317 832 301 l 832 228 b 756 169 832 182 814 169 l 96 169 b 71 144 79 169 71 161 l 71 25 b 96 0 71 8 79 0 l 807 0 b 1025 194 963 0 1025 67 l 1025 272 b 808 465 1025 400 956 465 l 342 465 b 264 518 285 465 264 479 l 264 539 b 342 593 264 579 283 593 l 968 593 b 993 618 985 593 993 601 l 993 738 b 968 763 993 754 985 763 z m 293 1133 b 275 1099 274 1133 263 1118 l 422 847 b 482 813 436 824 453 813 l 606 813 b 665 847 636 813 651 824 l 813 1099 b 794 1133 824 1118 814 1133 l 688 1133 b 644 1103 665 1133 656 1124 l 564 949 b 547 936 560 940 556 936 l 539 936 b 524 949 532 936 528 940 l 443 1103 b 400 1133 432 1124 422 1133 z "},"Ť":{"ha":1213,"x_min":0,"x_max":0,"o":"m 63 972 b 32 942 43 972 32 963 l 32 806 b 63 775 32 785 43 775 l 500 775 l 500 31 b 531 0 500 10 511 0 l 682 0 b 711 31 703 0 711 10 l 711 775 l 1149 775 b 1181 806 1169 775 1181 785 l 1181 942 b 1149 972 1181 963 1169 972 z m 354 1272 b 336 1244 335 1272 325 1260 l 483 1044 b 543 1015 499 1025 513 1015 l 667 1015 b 728 1044 697 1015 713 1025 l 875 1244 b 857 1272 886 1260 876 1272 l 750 1272 b 706 1247 728 1272 717 1264 l 626 1126 b 608 1117 622 1121 615 1117 l 603 1117 b 585 1126 593 1117 589 1121 l 504 1247 b 461 1272 493 1264 483 1272 z "},"ť":{"ha":860,"x_min":0,"x_max":0,"o":"m 49 763 b 24 738 32 763 24 754 l 24 617 b 49 592 24 600 32 592 l 181 592 l 181 276 b 463 0 181 72 247 0 l 632 0 b 657 25 649 0 657 8 l 657 146 b 632 171 657 163 649 171 l 496 171 b 379 276 406 171 379 199 l 379 592 l 624 592 b 649 617 640 592 649 600 l 649 738 b 624 763 649 754 640 763 l 379 763 l 379 946 b 349 978 379 967 368 978 l 211 978 b 181 946 192 978 181 967 l 181 763 z m 742 1036 b 708 1004 722 1036 710 1025 l 686 747 b 718 715 685 726 696 715 l 797 715 b 832 747 817 715 826 725 l 892 1000 b 867 1036 897 1024 888 1036 z "},"Ŧ":{"ha":1213,"x_min":0,"x_max":0,"o":"m 279 485 b 249 454 258 485 249 475 l 249 374 b 279 343 249 353 258 343 l 500 343 l 500 31 b 531 0 500 10 511 0 l 682 0 b 711 31 703 0 711 10 l 711 343 l 931 343 b 961 374 951 343 961 353 l 961 454 b 931 485 961 475 951 485 l 711 485 l 711 775 l 1149 775 b 1181 806 1169 775 1181 785 l 1181 942 b 1149 972 1181 963 1169 972 l 63 972 b 32 942 43 972 32 963 l 32 806 b 63 775 32 785 43 775 l 500 775 l 500 485 z "},"ŧ":{"ha":746,"x_min":0,"x_max":0,"o":"m 49 468 b 18 438 28 468 18 458 l 18 357 b 49 326 18 336 28 326 l 201 326 l 201 276 b 483 0 201 72 268 0 l 653 0 b 678 25 669 0 678 8 l 678 146 b 653 171 678 163 669 171 l 517 171 b 400 276 426 171 400 199 l 400 326 l 700 326 b 731 357 721 326 731 336 l 731 438 b 700 468 731 458 721 468 l 400 468 l 400 592 l 644 592 b 669 617 661 592 669 600 l 669 738 b 644 763 669 754 661 763 l 400 763 l 400 946 b 369 978 400 967 389 978 l 232 978 b 201 946 213 978 201 967 l 201 763 l 69 763 b 44 738 53 763 44 754 l 44 617 b 69 592 44 600 53 592 l 201 592 l 201 468 z "},"Ũ":{"ha":1357,"x_min":0,"x_max":0,"o":"m 121 972 b 90 942 100 972 90 963 l 90 367 b 479 0 90 100 197 0 l 878 0 b 1267 367 1160 0 1267 100 l 1267 942 b 1236 972 1267 963 1257 972 l 1085 972 b 1054 942 1065 972 1054 963 l 1054 388 b 871 197 1054 240 1014 197 l 486 197 b 301 388 343 197 301 240 l 301 942 b 271 972 301 963 292 972 z m 424 1032 b 463 1063 449 1032 461 1042 b 526 1153 463 1138 471 1153 b 631 1115 571 1153 599 1142 b 860 1038 699 1061 767 1038 b 1035 1232 986 1038 1035 1083 b 1008 1272 1035 1264 1031 1272 l 931 1272 b 893 1243 907 1272 894 1264 b 829 1151 893 1167 885 1151 b 724 1189 785 1151 758 1161 b 496 1267 657 1243 588 1267 b 321 1072 369 1267 321 1221 b 346 1032 321 1042 325 1032 z "},"ũ":{"ha":1217,"x_min":0,"x_max":0,"o":"m 115 763 b 85 732 94 763 85 751 l 85 281 b 414 0 85 75 169 0 l 801 0 b 1132 281 1047 0 1132 75 l 1132 732 b 1101 763 1132 751 1122 763 l 965 763 b 935 732 946 763 935 751 l 935 328 b 782 176 935 210 901 176 l 425 176 b 282 328 310 176 282 206 l 282 732 b 251 763 282 751 272 763 z m 350 836 b 389 869 375 836 388 846 b 456 961 389 944 397 961 b 561 924 506 961 529 951 b 792 840 629 865 697 840 b 964 1051 917 840 964 892 b 939 1094 964 1085 960 1094 l 865 1094 b 826 1061 840 1094 828 1085 b 760 968 826 986 817 968 b 654 1007 710 968 688 979 b 424 1090 586 1065 518 1090 b 251 879 299 1090 251 1039 b 276 836 251 846 256 836 z "},"Ū":{"ha":1357,"x_min":0,"x_max":0,"o":"m 121 972 b 90 942 100 972 90 963 l 90 367 b 479 0 90 100 197 0 l 878 0 b 1267 367 1160 0 1267 100 l 1267 942 b 1236 972 1267 963 1257 972 l 1085 972 b 1054 942 1065 972 1054 963 l 1054 388 b 871 197 1054 240 1014 197 l 486 197 b 301 388 343 197 301 240 l 301 942 b 271 972 301 963 292 972 z m 353 1208 b 321 1183 332 1208 321 1200 l 321 1097 b 353 1074 321 1081 332 1074 l 1004 1074 b 1035 1097 1024 1074 1035 1081 l 1035 1183 b 1004 1208 1035 1200 1024 1208 z "},"ū":{"ha":1217,"x_min":0,"x_max":0,"o":"m 115 763 b 85 732 94 763 85 751 l 85 281 b 414 0 85 75 169 0 l 801 0 b 1132 281 1047 0 1132 75 l 1132 732 b 1101 763 1132 751 1122 763 l 965 763 b 935 732 946 763 935 751 l 935 328 b 782 176 935 210 901 176 l 425 176 b 282 328 310 176 282 206 l 282 732 b 251 763 282 751 272 763 z m 282 1019 b 251 989 261 1019 251 1010 l 251 908 b 282 878 251 888 261 878 l 933 878 b 964 908 954 878 964 888 l 964 989 b 933 1019 964 1010 954 1019 z "},"Ů":{"ha":1357,"x_min":0,"x_max":0,"o":"m 121 972 b 90 942 100 972 90 963 l 90 367 b 479 0 90 100 197 0 l 878 0 b 1267 367 1160 0 1267 100 l 1267 942 b 1236 972 1267 963 1257 972 l 1085 972 b 1054 942 1065 972 1054 963 l 1054 388 b 871 197 1054 240 1014 197 l 486 197 b 301 388 343 197 301 240 l 301 942 b 271 972 301 963 292 972 z m 610 1272 b 468 1164 507 1272 468 1242 l 468 1094 b 610 986 468 1017 507 986 l 744 986 b 888 1094 847 986 888 1017 l 888 1164 b 744 1272 888 1242 847 1272 z m 575 1149 b 629 1190 575 1185 582 1190 l 726 1190 b 781 1149 774 1190 781 1186 l 781 1108 b 726 1068 781 1072 775 1068 l 629 1068 b 575 1108 581 1068 575 1072 z "},"ů":{"ha":1217,"x_min":0,"x_max":0,"o":"m 115 763 b 85 732 94 763 85 751 l 85 281 b 414 0 85 75 169 0 l 801 0 b 1132 281 1047 0 1132 75 l 1132 732 b 1101 763 1132 751 1122 763 l 965 763 b 935 732 946 763 935 751 l 935 328 b 782 176 935 210 901 176 l 425 176 b 282 328 310 176 282 206 l 282 732 b 251 763 282 751 272 763 z m 531 1133 b 388 999 426 1133 388 1096 l 388 911 b 531 776 388 814 426 776 l 686 776 b 828 911 789 776 828 814 l 828 999 b 686 1133 828 1096 789 1133 z m 506 971 b 565 1032 506 1018 518 1032 l 650 1032 b 710 971 697 1032 710 1018 l 710 938 b 650 878 710 892 697 878 l 565 878 b 506 938 518 878 506 892 z "},"Ű":{"ha":1357,"x_min":0,"x_max":0,"o":"m 121 972 b 90 942 100 972 90 963 l 90 367 b 479 0 90 100 197 0 l 878 0 b 1267 367 1160 0 1267 100 l 1267 942 b 1236 972 1267 963 1257 972 l 1085 972 b 1054 942 1065 972 1054 963 l 1054 388 b 871 197 1054 240 1014 197 l 486 197 b 301 388 343 197 301 240 l 301 942 b 271 972 301 963 292 972 z m 574 1272 b 529 1247 553 1272 539 1263 l 406 1042 b 426 1015 396 1025 406 1015 l 532 1015 b 575 1040 553 1015 563 1024 l 717 1246 b 696 1272 728 1264 715 1272 z m 890 1272 b 847 1247 869 1272 857 1263 l 722 1042 b 744 1015 713 1025 722 1015 l 849 1015 b 892 1040 871 1015 881 1024 l 1033 1246 b 1014 1272 1044 1264 1033 1272 z "},"ű":{"ha":1217,"x_min":0,"x_max":0,"o":"m 115 763 b 85 732 94 763 85 751 l 85 281 b 414 0 85 75 169 0 l 801 0 b 1132 281 1047 0 1132 75 l 1132 732 b 1101 763 1132 751 1122 763 l 965 763 b 935 732 946 763 935 751 l 935 328 b 782 176 935 210 901 176 l 425 176 b 282 328 310 176 282 206 l 282 732 b 251 763 282 751 272 763 z m 500 1133 b 457 1101 481 1133 467 1124 l 331 846 b 351 813 321 826 331 813 l 457 813 b 500 844 475 813 486 819 l 643 1100 b 622 1133 653 1119 644 1133 z m 817 1133 b 774 1101 797 1133 783 1124 l 647 846 b 669 813 638 826 647 813 l 774 813 b 817 844 792 813 803 819 l 960 1100 b 939 1133 969 1119 961 1133 z "},"Ų":{"ha":1357,"x_min":0,"x_max":0,"o":"m 575 -40 b 476 -206 497 -71 476 -112 b 654 -378 476 -339 518 -378 l 832 -378 b 857 -353 849 -378 857 -369 l 857 -239 b 832 -214 857 -222 849 -214 l 714 -214 b 640 -162 654 -214 640 -204 b 710 -78 640 -122 650 -107 l 872 0 l 878 0 b 1267 367 1160 0 1267 100 l 1267 942 b 1236 972 1267 963 1257 972 l 1085 972 b 1054 942 1065 972 1054 963 l 1054 388 b 871 197 1054 240 1014 197 l 486 197 b 301 388 343 197 301 240 l 301 942 b 271 972 301 963 292 972 l 121 972 b 90 942 100 972 90 963 l 90 367 b 479 0 90 100 197 0 l 681 0 z "},"ų":{"ha":1217,"x_min":0,"x_max":0,"o":"m 503 -44 b 404 -207 424 -74 404 -118 b 583 -378 404 -337 444 -378 l 760 -378 b 785 -353 776 -378 785 -369 l 785 -254 b 760 -229 785 -237 776 -229 l 643 -229 b 568 -165 585 -229 568 -215 b 638 -82 568 -126 578 -110 l 808 0 b 1132 281 1049 1 1132 78 l 1132 732 b 1101 763 1132 751 1122 763 l 965 763 b 935 732 946 763 935 751 l 935 328 b 782 176 935 210 901 176 l 425 176 b 282 328 310 176 282 206 l 282 732 b 251 763 282 751 272 763 l 115 763 b 85 732 94 763 85 751 l 85 281 b 414 0 85 75 169 0 l 621 0 z "},"Ŵ":{"ha":1810,"x_min":0,"x_max":0,"o":"m 42 972 b 31 940 26 972 25 960 l 289 106 b 404 0 314 21 342 0 l 569 0 b 675 106 624 0 650 22 l 889 765 b 900 775 890 772 894 775 l 907 775 b 917 765 913 775 915 772 l 1131 106 b 1238 0 1156 24 1183 0 l 1410 0 b 1517 106 1464 0 1492 24 l 1778 940 b 1767 972 1783 958 1779 972 l 1583 972 b 1563 954 1574 972 1567 968 l 1338 207 b 1325 197 1335 200 1332 197 l 1319 197 b 1307 207 1313 197 1310 200 l 1082 892 b 972 972 1064 951 1033 972 l 825 972 b 722 892 772 972 740 951 l 501 207 b 490 197 499 200 496 197 l 483 197 b 472 207 478 197 475 200 l 243 954 b 224 972 239 968 235 972 z m 842 1272 b 782 1243 811 1272 797 1263 l 635 1043 b 653 1015 624 1028 633 1015 l 760 1015 b 803 1040 782 1015 792 1024 l 883 1160 b 901 1171 888 1168 892 1171 l 907 1171 b 925 1160 914 1171 919 1168 l 1004 1040 b 1049 1015 1015 1024 1026 1015 l 1156 1015 b 1174 1043 1175 1015 1185 1028 l 1026 1243 b 965 1272 1011 1263 996 1272 z "},"ŵ":{"ha":1618,"x_min":0,"x_max":0,"o":"m 49 763 b 25 728 28 763 18 751 l 240 86 b 347 0 264 21 286 0 l 518 0 b 611 86 569 0 589 24 l 792 593 b 803 601 793 599 796 601 l 813 601 b 825 593 819 601 822 599 l 1001 86 b 1094 0 1022 22 1043 0 l 1264 0 b 1371 86 1325 0 1349 21 l 1593 728 b 1571 763 1601 751 1592 763 l 1426 763 b 1394 740 1407 763 1399 756 l 1200 169 b 1189 160 1197 163 1194 160 l 1181 160 b 1168 169 1174 160 1169 163 l 986 696 b 896 763 969 744 949 763 l 726 763 b 638 696 674 763 654 744 l 451 169 b 439 160 449 163 444 160 l 429 160 b 418 169 424 160 419 163 l 229 740 b 197 763 225 756 215 763 z m 747 1133 b 688 1099 718 1133 701 1122 l 540 847 b 558 813 528 828 539 813 l 665 813 b 708 843 688 813 697 822 l 789 997 b 806 1010 793 1006 797 1010 l 813 1010 b 829 997 821 1010 825 1006 l 910 843 b 953 813 921 822 931 813 l 1060 813 b 1078 847 1079 813 1089 828 l 931 1099 b 871 1133 917 1122 901 1133 z "},"Ŷ":{"ha":1246,"x_min":0,"x_max":0,"o":"m 33 972 b 19 944 17 972 10 958 l 514 297 l 514 31 b 546 0 514 11 525 0 l 694 0 b 726 31 715 0 726 11 l 726 297 l 1225 944 b 1213 972 1235 958 1229 972 l 1026 972 b 993 956 1011 972 1003 968 l 626 471 l 261 956 b 228 972 253 968 244 972 z m 560 1272 b 500 1243 529 1272 515 1263 l 353 1043 b 371 1015 342 1028 351 1015 l 478 1015 b 521 1040 500 1015 510 1024 l 601 1160 b 619 1171 606 1168 610 1171 l 625 1171 b 643 1160 632 1171 638 1168 l 722 1040 b 767 1015 733 1024 744 1015 l 874 1015 b 892 1043 893 1015 903 1028 l 744 1243 b 683 1272 729 1263 714 1272 z "},"ŷ":{"ha":1153,"x_min":0,"x_max":0,"o":"m 939 763 b 906 743 922 763 914 757 l 583 175 b 544 207 563 178 557 186 l 236 743 b 203 763 229 757 219 763 l 42 763 b 24 728 22 763 14 744 l 399 81 b 496 21 421 39 447 24 l 431 -93 b 360 -125 418 -117 397 -125 l 260 -125 b 235 -150 243 -125 235 -133 l 235 -282 b 260 -307 235 -299 243 -307 l 357 -307 b 576 -212 474 -307 540 -278 l 1110 728 b 1092 763 1119 744 1111 763 z m 515 1133 b 456 1099 486 1133 469 1122 l 308 847 b 326 813 296 828 307 813 l 433 813 b 476 843 456 813 465 822 l 557 997 b 574 1010 561 1006 565 1010 l 581 1010 b 597 997 589 1010 593 1006 l 678 843 b 721 813 689 822 699 813 l 828 813 b 846 847 847 813 857 828 l 699 1099 b 639 1133 685 1122 669 1133 z "},"Ÿ":{"ha":1246,"x_min":0,"x_max":0,"o":"m 33 972 b 19 944 17 972 10 958 l 514 297 l 514 31 b 546 0 514 11 525 0 l 694 0 b 726 31 715 0 726 11 l 726 297 l 1225 944 b 1213 972 1235 958 1229 972 l 1026 972 b 993 956 1011 972 1003 968 l 626 471 l 261 956 b 228 972 253 968 244 972 z m 360 1229 b 329 1204 340 1229 329 1221 l 329 1072 b 360 1047 329 1056 340 1047 l 496 1047 b 528 1072 517 1047 528 1056 l 528 1204 b 496 1229 528 1221 517 1229 z m 747 1229 b 717 1204 728 1229 717 1221 l 717 1072 b 747 1047 717 1056 728 1047 l 885 1047 b 915 1072 904 1047 915 1056 l 915 1204 b 885 1229 915 1221 904 1229 z "},"Ź":{"ha":1186,"x_min":0,"x_max":0,"o":"m 107 972 b 76 942 86 972 76 963 l 76 807 b 107 776 76 788 86 776 l 863 776 b 876 765 871 776 876 772 l 876 754 b 864 733 876 744 872 739 l 132 357 b 67 240 76 331 67 308 l 67 106 b 176 0 67 33 101 0 l 1076 0 b 1107 31 1096 0 1107 10 l 1107 165 b 1076 196 1107 185 1096 196 l 313 196 b 299 207 304 196 299 200 l 299 218 b 311 239 299 228 301 235 l 1046 615 b 1115 733 1103 643 1115 665 l 1115 867 b 1004 972 1114 939 1081 972 z m 644 1272 b 601 1247 624 1272 611 1263 l 478 1042 b 499 1015 468 1025 476 1015 l 604 1015 b 647 1040 625 1015 635 1024 l 788 1246 b 768 1272 799 1264 788 1272 z "},"ź":{"ha":1018,"x_min":0,"x_max":0,"o":"m 93 763 b 68 738 76 763 68 754 l 68 617 b 93 592 68 600 76 592 l 739 592 b 751 582 747 592 751 588 l 751 572 b 740 553 751 561 749 556 l 124 314 b 61 215 74 294 61 274 l 61 86 b 157 0 61 26 90 0 l 925 0 b 950 25 942 0 950 8 l 950 146 b 925 171 950 163 942 171 l 279 171 b 267 181 271 171 267 174 l 267 190 b 278 210 267 200 269 207 l 894 450 b 957 549 944 468 957 490 l 957 676 b 861 763 957 735 928 763 z m 561 1133 b 518 1101 542 1133 529 1124 l 393 846 b 414 813 383 826 392 813 l 519 813 b 561 844 538 813 547 819 l 704 1100 b 685 1133 714 1119 706 1133 z "},"Ż":{"ha":1186,"x_min":0,"x_max":0,"o":"m 107 972 b 76 942 86 972 76 963 l 76 807 b 107 776 76 788 86 776 l 863 776 b 876 765 871 776 876 772 l 876 754 b 864 733 876 744 872 739 l 132 357 b 67 240 76 331 67 308 l 67 106 b 176 0 67 33 101 0 l 1076 0 b 1107 31 1096 0 1107 10 l 1107 165 b 1076 196 1107 185 1096 196 l 313 196 b 299 207 304 196 299 200 l 299 218 b 311 239 299 228 301 235 l 1046 615 b 1115 733 1103 643 1115 665 l 1115 867 b 1004 972 1114 939 1081 972 z m 524 1229 b 493 1204 504 1229 493 1221 l 493 1072 b 524 1047 493 1056 504 1047 l 660 1047 b 692 1072 681 1047 692 1056 l 692 1204 b 660 1229 692 1221 681 1229 z "},"ż":{"ha":1018,"x_min":0,"x_max":0,"o":"m 93 763 b 68 738 76 763 68 754 l 68 617 b 93 592 68 600 76 592 l 739 592 b 751 582 747 592 751 588 l 751 572 b 740 553 751 561 749 556 l 124 314 b 61 215 74 294 61 274 l 61 86 b 157 0 61 26 90 0 l 925 0 b 950 25 942 0 950 8 l 950 146 b 925 171 950 163 942 171 l 279 171 b 267 181 271 171 267 174 l 267 190 b 278 210 267 200 269 207 l 894 450 b 957 549 944 468 957 490 l 957 676 b 861 763 957 735 928 763 z m 443 1044 b 413 1014 422 1044 413 1035 l 413 882 b 443 850 413 861 422 850 l 579 850 b 610 882 600 850 610 861 l 610 1014 b 579 1044 610 1035 600 1044 z "},"Ž":{"ha":1186,"x_min":0,"x_max":0,"o":"m 107 972 b 76 942 86 972 76 963 l 76 807 b 107 776 76 788 86 776 l 863 776 b 876 765 871 776 876 772 l 876 754 b 864 733 876 744 872 739 l 132 357 b 67 240 76 331 67 308 l 67 106 b 176 0 67 33 101 0 l 1076 0 b 1107 31 1096 0 1107 10 l 1107 165 b 1076 196 1107 185 1096 196 l 313 196 b 299 207 304 196 299 200 l 299 218 b 311 239 299 228 301 235 l 1046 615 b 1115 733 1103 643 1115 665 l 1115 867 b 1004 972 1114 939 1081 972 z m 340 1272 b 322 1244 321 1272 311 1260 l 469 1044 b 529 1015 485 1025 499 1015 l 653 1015 b 714 1044 683 1015 699 1025 l 861 1244 b 843 1272 872 1260 863 1272 l 736 1272 b 692 1247 714 1272 703 1264 l 613 1126 b 594 1117 608 1121 601 1117 l 589 1117 b 571 1126 579 1117 575 1121 l 490 1247 b 447 1272 479 1264 469 1272 z "},"ž":{"ha":1018,"x_min":0,"x_max":0,"o":"m 93 763 b 68 738 76 763 68 754 l 68 617 b 93 592 68 600 76 592 l 739 592 b 751 582 747 592 751 588 l 751 572 b 740 553 751 561 749 556 l 124 314 b 61 215 74 294 61 274 l 61 86 b 157 0 61 26 90 0 l 925 0 b 950 25 942 0 950 8 l 950 146 b 925 171 950 163 942 171 l 279 171 b 267 181 271 171 267 174 l 267 190 b 278 210 267 200 269 207 l 894 450 b 957 549 944 468 957 490 l 957 676 b 861 763 957 735 928 763 z m 257 1133 b 239 1099 238 1133 226 1118 l 386 847 b 446 813 400 824 417 813 l 569 813 b 629 847 600 813 615 824 l 776 1099 b 758 1133 788 1118 778 1133 l 651 1133 b 608 1103 629 1133 619 1124 l 528 949 b 511 936 524 940 519 936 l 503 936 b 488 949 496 936 492 940 l 407 1103 b 364 1133 396 1124 386 1133 z "},"Ǝ":{"ha":1181,"x_min":0,"x_max":0,"o":"m 710 0 b 1099 367 992 0 1099 101 l 1099 606 b 710 972 1099 871 992 972 l 99 972 b 68 942 79 972 68 963 l 68 807 b 99 776 68 788 79 776 l 708 776 b 889 590 851 776 889 736 l 889 574 l 107 574 b 76 543 88 574 76 564 l 76 419 b 107 389 76 399 88 389 l 889 389 l 889 382 b 708 196 889 236 851 196 l 99 196 b 68 165 79 196 68 185 l 68 31 b 99 0 68 10 79 0 z "},"Ə":{"ha":1329,"x_min":0,"x_max":0,"o":"m 146 972 b 114 942 125 972 114 963 l 114 806 b 146 775 114 785 125 775 l 851 775 b 1036 603 988 775 1032 735 l 326 603 b 76 346 156 603 76 511 l 76 244 b 340 0 76 86 160 0 l 860 0 b 1249 367 1142 0 1249 100 l 1249 606 b 860 972 1249 872 1142 972 z m 851 196 l 381 196 b 288 285 318 196 288 225 l 288 346 b 375 426 288 403 313 426 l 1036 426 l 1036 382 b 851 196 1036 236 994 196 z "},"ƒ":{"ha":922,"x_min":0,"x_max":0,"o":"m 608 972 b 326 696 393 972 326 900 l 326 554 l 79 554 b 54 529 63 554 54 546 l 54 456 b 79 431 54 439 63 431 l 326 431 l 326 -31 b 211 -125 326 -106 306 -125 l 83 -125 b 58 -150 67 -125 58 -133 l 58 -282 b 83 -307 58 -299 67 -307 l 253 -307 b 535 -31 468 -307 535 -235 l 535 431 l 844 431 b 869 456 861 431 869 439 l 869 529 b 844 554 869 546 861 554 l 535 554 l 535 696 b 649 790 535 771 556 790 l 832 790 b 857 815 849 790 857 799 l 857 947 b 832 972 857 964 849 972 z "},"Ɣ":{"ha":1354,"x_min":0,"x_max":0,"o":"m 42 972 b 26 940 21 972 17 954 l 563 229 l 426 42 b 374 -119 383 -17 374 -44 l 374 -260 b 529 -378 374 -339 436 -378 l 825 -378 b 981 -260 918 -378 981 -339 l 981 -119 b 926 42 981 -46 971 -18 l 792 229 l 1328 940 b 1313 972 1338 954 1333 972 l 1122 972 b 1088 956 1103 972 1094 965 l 676 388 l 267 956 b 232 972 260 965 251 972 z m 676 76 l 779 -60 b 806 -140 800 -87 806 -104 l 806 -165 b 763 -203 806 -192 793 -203 l 588 -203 b 549 -165 558 -203 549 -192 l 549 -140 b 574 -60 549 -103 553 -87 z "},"Ɲ":{"ha":1357,"x_min":0,"x_max":0,"o":"m 479 972 b 90 606 197 972 90 872 l 90 11 b -50 -124 90 -101 67 -124 l -140 -124 b -165 -149 -157 -124 -165 -132 l -165 -282 b -139 -307 -165 -299 -157 -307 l -25 -307 b 301 -28 218 -307 301 -232 l 301 585 b 486 775 301 732 343 775 l 871 775 b 1054 585 1014 775 1054 732 l 1054 31 b 1085 0 1054 10 1065 0 l 1236 0 b 1267 31 1257 0 1267 10 l 1267 606 b 878 972 1267 872 1160 972 z "},"Ơ":{"ha":1425,"x_min":0,"x_max":0,"o":"m 1335 1113 b 1304 1082 1314 1113 1304 1101 l 1304 960 b 1235 846 1304 889 1285 856 b 899 972 1176 935 1071 972 l 471 972 b 82 606 189 972 82 872 l 82 367 b 471 0 82 100 189 0 l 899 0 b 1288 367 1181 0 1288 100 l 1288 606 b 1281 710 1288 643 1285 678 b 1472 960 1418 731 1472 804 l 1472 1082 b 1442 1113 1472 1101 1461 1113 z m 293 590 b 478 776 293 736 335 776 l 890 776 b 1075 590 1035 776 1075 736 l 1075 382 b 890 196 1075 236 1035 196 l 478 196 b 293 382 335 196 293 236 z "},"ơ":{"ha":1300,"x_min":0,"x_max":0,"o":"m 1210 903 b 1179 872 1189 903 1179 893 l 1179 750 b 1103 636 1179 678 1160 646 b 799 763 1061 726 968 763 l 406 763 b 76 482 163 763 76 689 l 76 281 b 406 0 76 74 163 0 l 799 0 b 1129 281 1042 0 1129 74 l 1129 482 b 1129 499 1129 488 1129 493 b 1347 750 1288 514 1347 586 l 1347 872 b 1317 903 1347 893 1336 903 z m 274 447 b 425 592 274 563 304 592 l 779 592 b 932 447 901 592 932 563 l 932 315 b 779 169 932 199 901 169 l 425 169 b 274 315 304 169 274 199 z "},"Ư":{"ha":1535,"x_min":0,"x_max":0,"o":"m 1443 1113 b 1413 1082 1424 1113 1413 1101 l 1413 960 b 1301 843 1413 872 1385 843 l 1267 843 l 1267 942 b 1236 972 1267 963 1257 972 l 1085 972 b 1054 942 1065 972 1054 963 l 1054 388 b 871 197 1054 240 1014 197 l 486 197 b 301 388 343 197 301 240 l 301 942 b 271 972 301 963 292 972 l 121 972 b 90 942 100 972 90 963 l 90 367 b 479 0 90 100 197 0 l 878 0 b 1267 367 1160 0 1267 100 l 1267 704 l 1300 704 b 1581 960 1504 704 1581 775 l 1581 1082 b 1550 1113 1581 1101 1571 1113 z "},"ư":{"ha":1368,"x_min":0,"x_max":0,"o":"m 1275 903 b 1244 872 1256 903 1244 893 l 1244 750 b 1133 632 1244 661 1217 632 l 1132 632 l 1132 732 b 1101 763 1132 751 1122 763 l 965 763 b 935 732 946 763 935 751 l 935 328 b 782 176 935 210 901 176 l 425 176 b 282 328 310 176 282 206 l 282 732 b 251 763 282 751 272 763 l 115 763 b 85 732 94 763 85 751 l 85 281 b 414 0 85 75 169 0 l 801 0 b 1132 281 1047 0 1132 75 l 1132 494 l 1133 494 b 1414 750 1338 494 1414 564 l 1414 872 b 1382 903 1414 893 1403 903 z "},"ǝ":{"ha":1096,"x_min":0,"x_max":0,"o":"m 708 0 b 1039 281 954 0 1039 76 l 1039 482 b 708 763 1039 688 954 763 l 110 763 b 85 738 93 763 85 754 l 85 615 b 110 590 85 599 93 590 l 689 590 b 842 474 808 590 842 561 l 842 449 l 140 449 b 61 371 85 449 61 428 l 61 228 b 301 0 61 56 115 0 z m 842 306 l 842 278 b 689 165 842 190 813 165 l 342 165 b 257 233 274 165 257 179 l 257 282 b 281 306 257 297 264 306 z "},"ə":{"ha":1096,"x_min":0,"x_max":0,"o":"m 708 0 b 1039 281 954 0 1039 76 l 1039 482 b 708 763 1039 688 954 763 l 110 763 b 85 738 93 763 85 754 l 85 615 b 110 590 85 599 93 590 l 689 590 b 842 474 808 590 842 561 l 842 449 l 140 449 b 61 371 85 449 61 428 l 61 228 b 301 0 61 56 115 0 z m 842 306 l 842 278 b 689 165 842 190 813 165 l 342 165 b 257 233 274 165 257 179 l 257 282 b 281 306 257 297 264 306 z "},"Ǧ":{"ha":1286,"x_min":0,"x_max":0,"o":"m 471 972 b 82 606 189 972 82 872 l 82 367 b 471 0 82 100 189 0 l 1031 0 b 1203 213 1143 0 1203 57 l 1203 543 b 1161 585 1203 571 1189 585 l 582 585 b 551 554 563 585 551 574 l 551 432 b 582 401 551 411 563 401 l 989 401 b 1006 382 1000 401 1006 396 l 1006 279 b 936 196 1006 217 985 196 l 478 196 b 293 385 335 196 293 238 l 293 585 b 478 775 293 732 335 775 l 1174 775 b 1204 806 1193 775 1204 785 l 1204 942 b 1174 972 1204 963 1193 972 z m 418 1272 b 400 1244 399 1272 389 1260 l 547 1044 b 607 1015 563 1025 576 1015 l 731 1015 b 792 1044 761 1015 776 1025 l 939 1244 b 921 1272 950 1260 940 1272 l 814 1272 b 769 1247 792 1272 781 1264 l 690 1126 b 672 1117 686 1121 679 1117 l 667 1117 b 649 1126 657 1117 653 1121 l 568 1247 b 525 1272 557 1264 547 1272 z "},"ǧ":{"ha":1210,"x_min":0,"x_max":0,"o":"m 406 763 b 76 479 163 763 76 688 l 76 333 b 406 36 76 121 168 36 l 928 36 l 928 15 b 775 -135 928 -106 896 -135 l 140 -135 b 115 -160 124 -135 115 -143 l 115 -282 b 140 -307 115 -299 124 -307 l 794 -307 b 1125 -24 1039 -307 1125 -232 l 1125 482 b 794 763 1125 688 1038 763 z m 354 1133 b 336 1099 335 1133 324 1118 l 483 847 b 543 813 497 824 514 813 l 667 813 b 726 847 697 813 713 824 l 874 1099 b 856 1133 885 1118 875 1133 l 749 1133 b 706 1103 726 1133 717 1124 l 625 949 b 608 936 621 940 617 936 l 600 936 b 585 949 593 936 589 940 l 504 1103 b 461 1133 493 1124 483 1133 z m 274 336 l 274 468 b 425 592 274 565 307 592 l 775 592 b 928 464 894 592 928 565 l 928 203 l 425 203 b 274 336 311 203 274 235 z "},"ǰ":{"ha":533,"x_min":0,"x_max":0,"o":"m 194 763 b 163 732 174 763 163 751 l 163 11 b 25 -135 163 -106 136 -135 l -65 -135 b -90 -160 -82 -135 -90 -143 l -90 -282 b -65 -307 -90 -299 -82 -307 l 44 -307 b 361 -28 281 -307 361 -232 l 361 732 b 331 763 361 751 350 763 z m 7 1133 b -11 1099 -12 1133 -24 1118 l 136 847 b 196 813 150 824 167 813 l 319 813 b 379 847 350 813 365 824 l 526 1099 b 508 1133 538 1118 528 1133 l 401 1133 b 358 1103 379 1133 369 1124 l 278 949 b 261 936 274 940 269 936 l 253 936 b 238 949 246 936 242 940 l 157 1103 b 114 1133 146 1124 136 1133 z "},"Ǵ":{"ha":1286,"x_min":0,"x_max":0,"o":"m 471 972 b 82 606 189 972 82 872 l 82 367 b 471 0 82 100 189 0 l 1031 0 b 1203 213 1143 0 1203 57 l 1203 543 b 1161 585 1203 571 1189 585 l 582 585 b 551 554 563 585 551 574 l 551 432 b 582 401 551 411 563 401 l 989 401 b 1006 382 1000 401 1006 396 l 1006 279 b 936 196 1006 217 985 196 l 478 196 b 293 385 335 196 293 238 l 293 585 b 478 775 293 732 335 775 l 1174 775 b 1204 806 1193 775 1204 785 l 1204 942 b 1174 972 1204 963 1193 972 z m 731 1272 b 688 1247 710 1272 697 1263 l 564 1042 b 585 1015 554 1025 563 1015 l 690 1015 b 733 1040 711 1015 721 1024 l 874 1246 b 854 1272 885 1264 874 1272 z "},"ǵ":{"ha":1210,"x_min":0,"x_max":0,"o":"m 406 763 b 76 479 163 763 76 688 l 76 333 b 406 36 76 121 168 36 l 928 36 l 928 15 b 775 -135 928 -106 896 -135 l 140 -135 b 115 -160 124 -135 115 -143 l 115 -282 b 140 -307 115 -299 124 -307 l 794 -307 b 1125 -24 1039 -307 1125 -232 l 1125 482 b 794 763 1125 688 1038 763 z m 274 336 l 274 468 b 425 592 274 565 307 592 l 775 592 b 928 464 894 592 928 565 l 928 203 l 425 203 b 274 336 311 203 274 235 z m 661 1133 b 618 1101 642 1133 629 1124 l 493 846 b 514 813 483 826 492 813 l 619 813 b 661 844 638 813 647 819 l 804 1100 b 785 1133 814 1119 806 1133 z "},"Ǹ":{"ha":1358,"x_min":0,"x_max":0,"o":"m 217 972 b 93 828 129 972 93 938 l 93 31 b 124 0 93 10 103 0 l 272 0 b 303 31 292 0 303 10 l 303 756 b 314 769 303 765 306 769 l 326 769 b 344 760 335 769 339 767 l 857 82 b 1017 0 900 21 917 0 l 1140 0 b 1265 144 1228 0 1265 35 l 1265 942 b 1235 972 1265 963 1256 972 l 1086 972 b 1056 942 1065 972 1056 963 l 1056 217 b 1044 203 1056 207 1051 203 l 1032 203 b 1014 213 1024 203 1018 206 l 503 890 b 342 972 458 951 442 972 z m 504 1272 b 483 1246 485 1272 472 1264 l 625 1040 b 667 1015 636 1024 646 1015 l 774 1015 b 793 1042 794 1015 803 1025 l 669 1247 b 626 1272 660 1263 647 1272 z "},"ǹ":{"ha":1228,"x_min":0,"x_max":0,"o":"m 414 763 b 85 482 169 763 85 686 l 85 31 b 115 0 85 10 94 0 l 251 0 b 282 31 272 0 282 10 l 282 433 b 433 586 282 551 314 586 l 803 586 b 946 433 918 586 946 557 l 946 31 b 976 0 946 10 957 0 l 1113 0 b 1143 31 1133 0 1143 10 l 1143 482 b 813 763 1143 686 1058 763 z m 438 1133 b 417 1100 418 1133 404 1122 l 560 844 b 601 813 572 824 581 813 l 708 813 b 729 846 729 813 739 825 l 603 1101 b 560 1133 593 1121 582 1133 z "},"Ș":{"ha":1190,"x_min":0,"x_max":0,"o":"m 321 972 b 76 746 161 972 76 889 l 76 643 b 318 399 76 488 163 399 l 839 399 b 911 328 890 399 911 378 l 911 271 b 838 196 911 219 886 196 l 108 196 b 78 165 88 196 78 185 l 78 31 b 108 0 78 10 88 0 l 878 0 b 1124 226 1038 0 1124 83 l 1124 339 b 881 583 1124 494 1036 583 l 361 583 b 288 654 310 583 288 604 l 288 701 b 361 776 288 753 311 776 l 1057 776 b 1088 807 1076 776 1088 788 l 1088 942 b 1057 972 1088 963 1076 972 z m 542 -57 b 508 -89 522 -57 510 -68 l 486 -346 b 518 -378 485 -367 496 -378 l 597 -378 b 632 -346 617 -378 626 -368 l 692 -93 b 667 -57 697 -69 688 -57 z "},"ș":{"ha":1088,"x_min":0,"x_max":0,"o":"m 289 763 b 71 572 136 763 71 694 l 71 511 b 288 317 71 382 140 317 l 756 317 b 832 265 810 317 832 301 l 832 228 b 756 169 832 182 814 169 l 96 169 b 71 144 79 169 71 161 l 71 25 b 96 0 71 8 79 0 l 807 0 b 1025 194 963 0 1025 67 l 1025 272 b 808 465 1025 400 956 465 l 342 465 b 264 518 285 465 264 479 l 264 539 b 342 593 264 579 283 593 l 968 593 b 993 618 985 593 993 601 l 993 738 b 968 763 993 754 985 763 z m 489 -57 b 456 -89 469 -57 457 -68 l 433 -346 b 465 -378 432 -367 443 -378 l 544 -378 b 579 -346 564 -378 574 -368 l 639 -93 b 614 -57 644 -69 635 -57 z "},"Ț":{"ha":1213,"x_min":0,"x_max":0,"o":"m 63 972 b 32 942 43 972 32 963 l 32 806 b 63 775 32 785 43 775 l 500 775 l 500 31 b 531 0 500 10 511 0 l 682 0 b 711 31 703 0 711 10 l 711 775 l 1149 775 b 1181 806 1169 775 1181 785 l 1181 942 b 1149 972 1181 963 1169 972 z m 536 -57 b 503 -89 517 -57 504 -68 l 481 -346 b 513 -378 479 -367 490 -378 l 592 -378 b 626 -346 611 -378 621 -368 l 686 -93 b 661 -57 692 -69 682 -57 z "},"ț":{"ha":701,"x_min":0,"x_max":0,"o":"m 49 763 b 24 738 32 763 24 754 l 24 617 b 49 592 24 600 32 592 l 181 592 l 181 276 b 463 0 181 72 247 0 l 632 0 b 657 25 649 0 657 8 l 657 146 b 632 171 657 163 649 171 l 496 171 b 379 276 406 171 379 199 l 379 592 l 624 592 b 649 617 640 592 649 600 l 649 738 b 624 763 649 754 640 763 l 379 763 l 379 946 b 349 978 379 967 368 978 l 211 978 b 181 946 192 978 181 967 l 181 763 z m 338 -57 b 304 -89 318 -57 306 -68 l 282 -346 b 314 -378 281 -367 292 -378 l 393 -378 b 428 -346 413 -378 422 -368 l 488 -93 b 463 -57 493 -69 483 -57 z "},"ȷ":{"ha":392,"x_min":0,"x_max":0,"o":"m 139 763 b 107 732 118 763 107 751 l 107 11 b -31 -135 107 -106 81 -135 l -121 -135 b -146 -160 -137 -135 -146 -143 l -146 -282 b -121 -307 -146 -299 -137 -307 l -11 -307 b 306 -28 225 -307 306 -232 l 306 732 b 275 763 306 751 294 763 z "},"Ɂ":{"ha":765,"x_min":0,"x_max":0,"o":"m 54 972 b 24 942 35 972 24 963 l 24 817 b 54 786 24 796 35 786 l 457 786 b 521 735 506 786 521 774 l 521 697 b 475 624 521 660 508 640 l 288 525 b 224 385 239 500 224 467 l 224 31 b 254 0 224 10 233 0 l 397 0 b 428 31 418 0 428 10 l 428 357 b 471 435 428 399 439 418 l 593 500 b 722 710 692 553 722 596 l 722 781 b 528 972 722 908 660 972 z "},"ɂ":{"ha":765,"x_min":0,"x_max":0,"o":"m 54 763 b 24 732 35 763 24 751 l 24 617 b 54 586 24 597 35 586 l 457 586 b 521 531 501 586 521 569 l 521 496 b 475 429 521 463 511 449 l 293 332 b 229 199 244 306 229 276 l 229 31 b 260 0 229 10 239 0 l 396 0 b 426 31 417 0 426 10 l 426 176 b 468 249 426 215 436 232 l 593 315 b 722 514 693 368 722 407 l 722 576 b 528 763 722 700 658 763 z "},"Ɍ":{"ha":1322,"x_min":0,"x_max":0,"o":"m 40 476 b 4 439 15 476 4 464 l 4 344 b 40 307 4 319 15 307 l 158 307 l 158 31 b 189 0 158 10 168 0 l 339 0 b 369 31 360 0 369 10 l 369 300 l 810 300 l 1031 18 b 1069 0 1040 6 1047 0 l 1256 0 b 1274 36 1278 0 1285 22 l 1042 324 b 1243 607 1179 351 1243 446 l 1243 688 b 944 972 1243 879 1151 972 l 200 972 b 158 931 172 972 158 958 l 158 476 z m 369 483 l 369 763 b 388 778 369 774 375 778 l 901 778 b 1031 658 994 778 1031 743 l 1031 600 b 901 483 1031 517 996 483 z "},"ɍ":{"ha":928,"x_min":0,"x_max":0,"o":"m 56 388 b 25 357 35 388 25 378 l 25 276 b 56 246 25 256 35 246 l 161 246 l 161 31 b 192 0 161 10 171 0 l 328 0 b 358 31 349 0 358 10 l 358 246 l 707 246 b 738 276 728 246 738 256 l 738 357 b 707 388 738 378 728 388 l 358 388 l 358 443 b 510 590 358 560 389 590 l 879 590 b 904 615 896 590 904 599 l 904 738 b 879 763 904 754 896 763 l 490 763 b 161 482 246 763 161 686 l 161 388 z "},"ɣ":{"ha":1153,"x_min":0,"x_max":0,"o":"m 38 763 b 24 735 21 763 15 744 l 468 163 l 358 17 b 304 -125 317 -39 304 -64 l 304 -272 b 443 -378 304 -342 361 -378 l 706 -378 b 844 -272 788 -378 844 -342 l 844 -124 b 792 18 844 -62 832 -37 l 686 160 l 1129 735 b 1115 763 1138 744 1132 763 l 938 763 b 906 747 924 763 914 757 l 576 308 l 251 747 b 219 763 243 757 235 763 z m 578 21 l 661 -86 b 682 -157 676 -107 682 -124 l 682 -185 b 636 -224 682 -218 676 -224 l 513 -224 b 467 -185 474 -224 467 -217 l 467 -157 b 488 -97 467 -132 472 -118 z "},"ɲ":{"ha":1321,"x_min":0,"x_max":0,"o":"m 508 763 b 178 482 265 763 178 689 l 178 11 b 39 -135 178 -106 150 -135 l -51 -135 b -76 -160 -68 -135 -76 -143 l -76 -282 b -51 -307 -76 -299 -68 -307 l 58 -307 b 376 -28 293 -307 376 -235 l 376 433 b 528 586 376 553 410 586 l 896 586 b 1039 433 1011 586 1039 557 l 1039 31 b 1069 0 1039 10 1050 0 l 1207 0 b 1238 31 1226 0 1238 10 l 1238 482 b 907 763 1238 689 1150 763 z "},"ˆ":{"ha":668,"x_min":0,"x_max":0,"o":"m 272 1133 b 213 1099 243 1133 226 1122 l 65 847 b 83 813 53 828 64 813 l 190 813 b 233 843 213 813 222 822 l 314 997 b 331 1010 318 1006 322 1010 l 338 1010 b 354 997 346 1010 350 1006 l 435 843 b 478 813 446 822 456 813 l 585 813 b 603 847 604 813 614 828 l 456 1099 b 396 1133 442 1122 426 1133 z "},"ˇ":{"ha":668,"x_min":0,"x_max":0,"o":"m 83 1133 b 65 1099 64 1133 53 1118 l 213 847 b 272 813 226 824 243 813 l 396 813 b 456 847 426 813 442 824 l 603 1099 b 585 1133 614 1118 604 1133 l 478 1133 b 435 1103 456 1133 446 1124 l 354 949 b 338 936 350 940 346 936 l 329 936 b 314 949 322 936 318 940 l 233 1103 b 190 1133 222 1124 213 1133 z "},"˘":{"ha":840,"x_min":0,"x_max":0,"o":"m 88 1004 b 114 947 88 985 90 968 b 419 850 165 906 286 850 b 726 947 554 850 675 906 b 753 1004 750 968 753 985 l 753 1076 b 728 1108 753 1094 744 1108 b 693 1092 718 1108 707 1103 b 419 985 663 1067 563 985 b 147 1092 278 985 178 1067 b 113 1108 133 1103 122 1108 b 88 1076 96 1108 88 1094 z "},"˙":{"ha":372,"x_min":0,"x_max":0,"o":"m 118 1044 b 88 1014 97 1044 88 1035 l 88 882 b 118 850 88 861 97 850 l 254 850 b 285 882 275 850 285 861 l 285 1014 b 254 1044 285 1035 275 1044 z "},"˚":{"ha":615,"x_min":0,"x_max":0,"o":"m 231 1133 b 88 999 126 1133 88 1096 l 88 911 b 231 776 88 814 126 776 l 386 776 b 528 911 489 776 528 814 l 528 999 b 386 1133 528 1096 489 1133 z m 206 971 b 265 1032 206 1018 218 1032 l 350 1032 b 410 971 397 1032 410 1018 l 410 938 b 350 878 410 892 397 878 l 265 878 b 206 938 218 878 206 892 z "},"˛":{"ha":579,"x_min":0,"x_max":0,"o":"m 186 -44 b 88 -207 108 -74 88 -115 b 265 -378 88 -339 129 -378 l 443 -378 b 468 -353 460 -378 468 -369 l 468 -240 b 443 -215 468 -224 460 -215 l 325 -215 b 251 -165 265 -215 251 -206 b 321 -82 251 -125 261 -110 l 492 0 l 301 0 z "},"˜":{"ha":888,"x_min":0,"x_max":0,"o":"m 186 836 b 225 869 211 836 224 846 b 292 961 225 944 233 961 b 397 924 342 961 365 951 b 628 840 465 865 533 840 b 800 1051 753 840 800 892 b 775 1094 800 1085 796 1094 l 701 1094 b 663 1061 676 1094 664 1085 b 596 968 663 986 653 968 b 490 1007 546 968 524 979 b 260 1090 422 1065 354 1090 b 88 879 135 1090 88 1039 b 113 836 88 846 92 836 z "},"˝":{"ha":864,"x_min":0,"x_max":0,"o":"m 294 1133 b 251 1101 275 1133 261 1124 l 125 846 b 146 813 115 826 125 813 l 251 813 b 294 844 269 813 281 819 l 438 1100 b 417 1133 447 1119 439 1133 z m 611 1133 b 568 1101 592 1133 578 1124 l 442 846 b 464 813 432 826 442 813 l 568 813 b 611 844 586 813 597 819 l 754 1100 b 733 1133 764 1119 756 1133 z "},"̀":{"ha":0,"x_min":0,"x_max":0,"o":"m -787 1133 b -808 1100 -807 1133 -821 1122 l -665 844 b -624 813 -653 824 -644 813 l -517 813 b -496 846 -496 813 -486 825 l -622 1101 b -665 1133 -632 1121 -643 1133 z "},"́":{"ha":0,"x_min":0,"x_max":0,"o":"m -558 1133 b -601 1101 -578 1133 -590 1124 l -726 846 b -706 813 -736 826 -728 813 l -600 813 b -558 844 -582 813 -572 819 l -415 1100 b -435 1133 -406 1119 -414 1133 z "},"̂":{"ha":0,"x_min":0,"x_max":0,"o":"m -674 1133 b -733 1099 -703 1133 -719 1122 l -881 847 b -862 813 -893 828 -882 813 l -756 813 b -712 843 -733 813 -724 822 l -632 997 b -615 1010 -628 1006 -624 1010 l -608 1010 b -592 997 -600 1010 -596 1006 l -511 843 b -468 813 -500 822 -490 813 l -361 813 b -343 847 -342 813 -332 828 l -490 1099 b -550 1133 -504 1122 -519 1133 z "},"̃":{"ha":0,"x_min":0,"x_max":0,"o":"m -869 836 b -831 869 -844 836 -832 846 b -764 961 -831 944 -822 961 b -658 924 -714 961 -690 951 b -428 840 -590 865 -522 840 b -256 1051 -303 840 -256 892 b -281 1094 -256 1085 -260 1094 l -354 1094 b -393 1061 -379 1094 -392 1085 b -460 968 -393 986 -403 968 b -565 1007 -510 968 -532 979 b -796 1090 -633 1065 -701 1090 b -968 879 -921 1090 -968 1039 b -943 836 -968 846 -964 836 z "},"̄":{"ha":0,"x_min":0,"x_max":0,"o":"m -937 1019 b -968 989 -958 1019 -968 1010 l -968 908 b -937 878 -968 888 -958 878 l -286 878 b -256 908 -265 878 -256 888 l -256 989 b -286 1019 -256 1010 -265 1019 z "},"̆":{"ha":0,"x_min":0,"x_max":0,"o":"m -944 1004 b -918 947 -944 985 -942 968 b -612 850 -867 906 -746 850 b -306 947 -478 850 -357 906 b -279 1004 -282 968 -279 985 l -279 1076 b -304 1108 -279 1094 -287 1108 b -339 1092 -314 1108 -325 1103 b -612 985 -369 1067 -469 985 b -885 1092 -754 985 -854 1067 b -919 1108 -899 1103 -910 1108 b -944 1076 -936 1108 -944 1094 z "},"̇":{"ha":0,"x_min":0,"x_max":0,"o":"m -679 1044 b -710 1014 -700 1044 -710 1035 l -710 882 b -679 850 -710 861 -700 850 l -543 850 b -512 882 -522 850 -512 861 l -512 1014 b -543 1044 -512 1035 -522 1044 z "},"̈":{"ha":0,"x_min":0,"x_max":0,"o":"m -874 1044 b -904 1014 -894 1044 -904 1035 l -904 882 b -874 850 -904 861 -894 850 l -737 850 b -707 882 -717 850 -707 861 l -707 1014 b -737 1044 -707 1035 -717 1044 z m -486 1044 b -517 1014 -507 1044 -517 1035 l -517 882 b -486 850 -517 861 -507 850 l -350 850 b -319 882 -329 850 -319 861 l -319 1014 b -350 1044 -319 1035 -329 1044 z "},"̉":{"ha":0,"x_min":0,"x_max":0,"o":"m -801 1133 b -822 1113 -815 1133 -822 1126 l -822 1029 b -801 1010 -822 1014 -815 1010 l -532 1010 b -515 993 -521 1010 -515 1004 l -515 979 b -528 953 -515 967 -518 960 l -689 838 b -681 807 -700 829 -701 807 l -581 807 b -540 818 -564 807 -554 808 l -440 888 b -385 994 -401 914 -385 936 l -385 1033 b -487 1133 -385 1100 -418 1133 z "},"̊":{"ha":0,"x_min":0,"x_max":0,"o":"m -689 1133 b -832 999 -793 1133 -832 1096 l -832 911 b -689 776 -832 814 -793 776 l -533 776 b -390 911 -431 776 -390 814 l -390 999 b -533 1133 -390 1096 -431 1133 z m -714 981 b -671 1028 -714 1015 -703 1028 l -551 1028 b -508 981 -517 1028 -508 1018 l -508 928 b -551 881 -508 892 -518 881 l -671 881 b -714 928 -706 881 -714 890 z "},"̋":{"ha":0,"x_min":0,"x_max":0,"o":"m -717 1133 b -760 1101 -736 1133 -750 1124 l -886 846 b -865 813 -896 826 -886 813 l -760 813 b -717 844 -742 813 -731 819 l -574 1100 b -594 1133 -564 1119 -572 1133 z m -400 1133 b -443 1101 -419 1133 -433 1124 l -569 846 b -547 813 -579 826 -569 813 l -443 813 b -400 844 -425 813 -414 819 l -257 1100 b -278 1133 -247 1119 -256 1133 z "},"̌":{"ha":0,"x_min":0,"x_max":0,"o":"m -862 1133 b -881 1099 -882 1133 -893 1118 l -733 847 b -674 813 -719 824 -703 813 l -550 813 b -490 847 -519 813 -504 824 l -343 1099 b -361 1133 -332 1118 -342 1133 l -468 1133 b -511 1103 -490 1133 -500 1124 l -592 949 b -608 936 -596 940 -600 936 l -617 936 b -632 949 -624 936 -628 940 l -712 1103 b -756 1133 -724 1124 -733 1133 z "},"̓":{"ha":0,"x_min":0,"x_max":0,"o":"m -611 1133 b -646 1101 -631 1133 -640 1122 l -706 847 b -681 813 -711 825 -701 813 l -556 813 b -521 844 -536 813 -522 825 l -500 1100 b -532 1133 -499 1121 -510 1133 z "},"̛":{"ha":108,"x_min":0,"x_max":0,"o":"m -4 903 b -35 872 -24 903 -35 893 l -35 750 b -146 632 -35 663 -61 632 l -229 632 b -254 607 -246 632 -254 624 l -254 519 b -229 494 -254 503 -246 494 l -146 494 b 135 750 64 494 135 569 l 135 872 b 103 903 135 893 124 903 z "},"̣":{"ha":0,"x_min":0,"x_max":0,"o":"m -681 -100 b -711 -125 -700 -100 -711 -108 l -711 -257 b -681 -282 -711 -274 -700 -282 l -544 -282 b -512 -257 -524 -282 -512 -274 l -512 -125 b -544 -100 -512 -108 -524 -100 z "},"̦":{"ha":0,"x_min":0,"x_max":0,"o":"m -660 -57 b -693 -89 -679 -57 -692 -68 l -715 -346 b -683 -378 -717 -367 -706 -378 l -604 -378 b -569 -346 -585 -378 -575 -368 l -510 -93 b -535 -57 -504 -69 -514 -57 z "},"̨":{"ha":0,"x_min":0,"x_max":0,"o":"m -724 -44 b -822 -207 -801 -74 -822 -115 b -644 -378 -822 -339 -781 -378 l -467 -378 b -442 -353 -450 -378 -442 -369 l -442 -240 b -467 -215 -442 -224 -450 -215 l -585 -215 b -658 -165 -644 -215 -658 -206 b -589 -82 -658 -125 -649 -110 l -418 0 l -608 0 z "},"̭":{"ha":0,"x_min":0,"x_max":0,"o":"m -674 -79 b -733 -108 -704 -79 -718 -89 l -881 -308 b -862 -336 -892 -324 -882 -336 l -756 -336 b -712 -311 -733 -336 -724 -328 l -632 -192 b -614 -181 -628 -183 -624 -181 l -608 -181 b -590 -192 -601 -181 -596 -183 l -511 -311 b -467 -336 -500 -328 -489 -336 l -360 -336 b -342 -308 -340 -336 -331 -324 l -489 -108 b -550 -79 -504 -89 -519 -79 z "},"΄":{"ha":485,"x_min":0,"x_max":0,"o":"m 251 1133 b 207 1101 231 1133 217 1121 l 90 846 b 111 813 81 825 90 813 l 217 813 b 258 844 238 813 247 824 l 393 1100 b 374 1133 404 1122 393 1133 z "},"΅":{"ha":940,"x_min":0,"x_max":0,"o":"m 493 1133 b 449 1101 472 1133 458 1121 l 332 846 b 353 813 322 825 332 813 l 458 813 b 500 844 479 813 489 824 l 635 1100 b 615 1133 646 1122 635 1133 z m 692 1044 b 661 1014 671 1044 661 1035 l 661 882 b 692 850 661 861 671 850 l 828 850 b 858 882 849 850 858 861 l 858 1014 b 828 1044 858 1035 849 1044 z m 118 1044 b 88 1014 97 1044 88 1035 l 88 882 b 118 850 88 861 97 850 l 254 850 b 285 882 275 850 285 861 l 285 1014 b 254 1044 285 1035 275 1044 z "},"Ά":{"ha":1482,"x_min":0,"x_max":0,"o":"m 754 972 b 608 867 696 972 653 951 l 153 32 b 169 0 143 13 147 0 l 351 0 b 383 17 369 0 376 4 l 474 186 l 1139 186 l 1231 17 b 1263 0 1236 4 1244 0 l 1439 0 b 1456 32 1461 0 1465 13 l 996 867 b 836 972 950 951 908 972 z m 571 367 l 785 765 b 800 775 789 772 793 775 l 808 775 b 825 765 815 775 821 772 l 1040 367 z m 258 1133 b 214 1101 238 1133 224 1121 l 97 846 b 118 813 88 825 97 813 l 224 813 b 265 844 244 813 254 824 l 400 1100 b 381 1133 411 1122 400 1133 z "},"·":{"ha":372,"x_min":0,"x_max":0,"o":"m 118 692 b 88 661 97 692 88 682 l 88 528 b 118 497 88 507 97 497 l 254 497 b 285 528 275 497 285 507 l 285 661 b 254 692 285 682 275 692 z "},"Έ":{"ha":1454,"x_min":0,"x_max":0,"o":"m 744 972 b 356 606 463 972 356 871 l 356 367 b 744 0 356 101 463 0 l 1356 0 b 1386 31 1375 0 1386 10 l 1386 165 b 1356 196 1386 185 1375 196 l 746 196 b 565 382 603 196 565 236 l 565 399 l 1347 399 b 1378 429 1367 399 1378 408 l 1378 553 b 1347 583 1378 574 1367 583 l 565 583 l 565 590 b 746 776 565 736 603 776 l 1356 776 b 1386 807 1375 776 1386 788 l 1386 942 b 1356 972 1386 963 1375 972 z m 251 1133 b 207 1101 231 1133 217 1121 l 90 846 b 111 813 81 825 90 813 l 217 813 b 258 844 238 813 247 824 l 393 1100 b 374 1133 404 1122 393 1133 z "},"Ή":{"ha":1631,"x_min":0,"x_max":0,"o":"m 1357 972 b 1326 942 1338 972 1326 963 l 1326 585 l 676 585 l 676 942 b 646 972 676 963 667 972 l 496 972 b 465 942 475 972 465 963 l 465 31 b 496 0 465 10 475 0 l 646 0 b 676 31 667 0 676 10 l 676 396 l 1326 396 l 1326 31 b 1357 0 1326 10 1338 0 l 1507 0 b 1539 31 1528 0 1539 10 l 1539 942 b 1507 972 1539 963 1528 972 z m 251 1133 b 207 1101 231 1133 217 1121 l 90 846 b 111 813 81 825 90 813 l 217 813 b 258 844 238 813 247 824 l 393 1100 b 374 1133 404 1122 393 1133 z "},"Ί":{"ha":844,"x_min":0,"x_max":0,"o":"m 497 972 b 467 942 476 972 467 963 l 467 31 b 497 0 467 10 476 0 l 647 0 b 678 31 668 0 678 10 l 678 942 b 647 972 678 963 668 972 z m 251 1133 b 207 1101 231 1133 217 1121 l 90 846 b 111 813 81 825 90 813 l 217 813 b 258 844 238 813 247 824 l 393 1100 b 374 1133 404 1122 393 1133 z "},"Ό":{"ha":1642,"x_min":0,"x_max":0,"o":"m 744 972 b 356 606 463 972 356 871 l 356 367 b 744 0 356 101 463 0 l 1172 0 b 1561 367 1454 0 1561 100 l 1561 606 b 1172 972 1561 872 1454 972 z m 567 590 b 751 776 567 736 607 776 l 1164 776 b 1349 590 1308 776 1349 736 l 1349 382 b 1164 196 1349 236 1308 196 l 751 196 b 567 382 607 196 567 236 z m 251 1133 b 207 1101 231 1133 217 1121 l 90 846 b 111 813 81 825 90 813 l 217 813 b 258 844 238 813 247 824 l 393 1100 b 374 1133 404 1122 393 1133 z "},"Ύ":{"ha":1672,"x_min":0,"x_max":0,"o":"m 461 972 b 447 944 444 972 438 958 l 942 297 l 942 31 b 974 0 942 11 953 0 l 1122 0 b 1154 31 1143 0 1154 11 l 1154 297 l 1653 944 b 1640 972 1663 958 1657 972 l 1454 972 b 1421 956 1439 972 1431 968 l 1054 471 l 689 956 b 656 972 681 968 672 972 z m 251 1133 b 207 1101 231 1133 217 1121 l 90 846 b 111 813 81 825 90 813 l 217 813 b 258 844 238 813 247 824 l 393 1100 b 374 1133 404 1122 393 1133 z "},"Ώ":{"ha":1656,"x_min":0,"x_max":0,"o":"m 696 972 b 369 668 467 972 369 876 l 369 568 b 538 315 369 453 424 376 l 682 240 b 694 221 692 235 694 231 l 694 207 b 682 196 694 200 690 196 l 408 196 b 378 165 388 196 378 185 l 378 31 b 408 0 378 10 388 0 l 853 0 b 913 56 896 0 913 15 l 913 210 b 854 319 913 271 899 294 l 661 422 b 581 536 601 454 581 479 l 581 640 b 726 776 581 739 619 776 l 1217 776 b 1363 640 1324 776 1363 739 l 1363 536 b 1283 422 1363 479 1342 454 l 1089 319 b 1031 210 1044 294 1031 271 l 1031 56 b 1090 0 1031 15 1047 0 l 1536 0 b 1567 31 1557 0 1567 10 l 1567 165 b 1536 196 1567 185 1557 196 l 1263 196 b 1249 207 1254 196 1249 200 l 1249 221 b 1263 240 1249 231 1251 235 l 1406 315 b 1575 568 1519 376 1575 454 l 1575 668 b 1247 972 1575 876 1476 972 z m 251 1133 b 207 1101 231 1133 217 1121 l 90 846 b 111 813 81 825 90 813 l 217 813 b 258 844 238 813 247 824 l 393 1100 b 374 1133 404 1122 393 1133 z "},"ΐ":{"ha":825,"x_min":0,"x_max":0,"o":"m 269 763 b 239 732 249 763 239 751 l 239 276 b 519 0 239 72 306 0 l 672 0 b 697 25 689 0 697 8 l 697 146 b 672 171 697 163 689 171 l 553 171 b 436 276 464 171 436 199 l 436 732 b 406 763 436 751 426 763 z m 40 1044 b 10 1014 19 1044 10 1035 l 10 882 b 40 850 10 861 19 850 l 176 850 b 207 882 197 850 207 861 l 207 1014 b 176 1044 207 1035 197 1044 z m 415 1133 b 371 1101 394 1133 381 1121 l 254 846 b 275 813 244 825 254 813 l 381 813 b 422 844 401 813 411 824 l 557 1100 b 538 1133 568 1122 557 1133 z m 614 1044 b 583 1014 593 1044 583 1035 l 583 882 b 614 850 583 861 593 850 l 750 850 b 781 882 771 850 781 861 l 781 1014 b 750 1044 781 1035 771 1044 z "},"Α":{"ha":1354,"x_min":0,"x_max":0,"o":"m 626 972 b 481 867 568 972 525 951 l 25 32 b 42 0 15 13 19 0 l 224 0 b 256 17 242 0 249 4 l 346 186 l 1011 186 l 1103 17 b 1135 0 1108 4 1117 0 l 1311 0 b 1328 32 1333 0 1338 13 l 868 867 b 708 972 822 951 781 972 z m 443 367 l 657 765 b 672 775 661 772 665 775 l 681 775 b 697 765 688 775 693 772 l 913 367 z "},"Β":{"ha":1276,"x_min":0,"x_max":0,"o":"m 135 972 b 93 931 107 972 93 958 l 93 42 b 135 0 93 14 107 0 l 958 0 b 1204 240 1133 0 1204 83 l 1204 321 b 1110 501 1204 404 1174 464 b 1197 676 1167 539 1197 597 l 1197 743 b 933 972 1197 901 1121 972 z m 304 408 l 874 408 b 994 328 964 408 994 388 l 994 282 b 892 194 994 221 963 194 l 322 194 b 304 214 310 194 304 200 z m 304 576 l 304 758 b 322 778 304 772 310 778 l 890 778 b 993 692 961 778 993 750 l 993 650 b 874 576 993 596 964 576 z "},"Γ":{"ha":1113,"x_min":0,"x_max":0,"o":"m 479 972 b 90 606 197 972 90 871 l 90 31 b 121 0 90 10 100 0 l 271 0 b 301 31 292 0 301 10 l 301 585 b 486 775 301 732 343 775 l 1049 775 b 1079 806 1068 775 1079 785 l 1079 942 b 1049 972 1079 963 1068 972 z "},"Δ":{"ha":1354,"x_min":0,"x_max":0,"o":"m 635 972 b 481 867 575 972 526 951 l 25 32 b 42 0 15 14 19 0 l 1311 0 b 1328 32 1333 0 1338 14 l 868 867 b 708 972 822 951 781 972 z m 657 765 b 672 775 661 772 665 775 l 681 775 b 697 765 688 775 693 772 l 997 219 b 985 197 1004 207 999 197 l 372 197 b 358 218 358 197 351 207 z "},"Ε":{"ha":1181,"x_min":0,"x_max":0,"o":"m 471 972 b 82 606 189 972 82 871 l 82 367 b 471 0 82 101 189 0 l 1082 0 b 1113 31 1101 0 1113 10 l 1113 165 b 1082 196 1113 185 1101 196 l 472 196 b 292 382 329 196 292 236 l 292 399 l 1074 399 b 1104 429 1093 399 1104 408 l 1104 553 b 1074 583 1104 574 1093 583 l 292 583 l 292 590 b 472 776 292 736 329 776 l 1082 776 b 1113 807 1101 776 1113 788 l 1113 942 b 1082 972 1113 963 1101 972 z "},"Ζ":{"ha":1186,"x_min":0,"x_max":0,"o":"m 107 972 b 76 942 86 972 76 963 l 76 807 b 107 776 76 788 86 776 l 863 776 b 876 765 871 776 876 772 l 876 754 b 864 733 876 744 872 739 l 132 357 b 67 240 76 331 67 308 l 67 106 b 176 0 67 33 101 0 l 1076 0 b 1107 31 1096 0 1107 10 l 1107 165 b 1076 196 1107 185 1096 196 l 313 196 b 299 207 304 196 299 200 l 299 218 b 311 239 299 228 301 235 l 1046 615 b 1115 733 1103 643 1115 665 l 1115 867 b 1004 972 1114 939 1081 972 z "},"Η":{"ha":1258,"x_min":0,"x_max":0,"o":"m 985 972 b 954 942 965 972 954 963 l 954 585 l 304 585 l 304 942 b 274 972 304 963 294 972 l 124 972 b 93 942 103 972 93 963 l 93 31 b 124 0 93 10 103 0 l 274 0 b 304 31 294 0 304 10 l 304 396 l 954 396 l 954 31 b 985 0 954 10 965 0 l 1135 0 b 1167 31 1156 0 1167 10 l 1167 942 b 1135 972 1167 963 1156 972 z "},"Θ":{"ha":1369,"x_min":0,"x_max":0,"o":"m 418 574 b 388 543 397 574 388 564 l 388 439 b 418 408 388 418 397 408 l 950 408 b 981 439 971 408 981 418 l 981 543 b 950 574 981 564 971 574 z m 471 972 b 82 606 189 972 82 872 l 82 367 b 471 0 82 100 189 0 l 899 0 b 1288 367 1181 0 1288 100 l 1288 606 b 899 972 1288 872 1181 972 z m 292 594 b 472 779 292 742 329 779 l 896 779 b 1078 594 1039 779 1078 742 l 1078 378 b 896 193 1078 231 1039 193 l 472 193 b 292 378 329 193 292 231 z "},"Ι":{"ha":397,"x_min":0,"x_max":0,"o":"m 124 972 b 93 942 103 972 93 963 l 93 31 b 124 0 93 10 103 0 l 274 0 b 304 31 294 0 304 10 l 304 942 b 274 972 304 963 294 972 z "},"Κ":{"ha":1186,"x_min":0,"x_max":0,"o":"m 124 972 b 93 942 103 972 93 963 l 93 31 b 124 0 93 10 103 0 l 274 0 b 304 31 294 0 304 10 l 304 404 l 515 404 b 669 347 606 404 633 394 l 926 18 b 967 0 936 4 944 0 l 1143 0 b 1161 36 1167 0 1172 25 l 876 397 b 771 497 842 442 808 474 b 854 590 797 519 824 550 l 1124 939 b 1107 972 1135 953 1128 972 l 933 972 b 893 954 910 972 903 968 l 651 635 b 497 579 615 588 592 579 l 304 579 l 304 942 b 274 972 304 963 294 972 z "},"Λ":{"ha":1354,"x_min":0,"x_max":0,"o":"m 1313 0 b 1329 32 1335 0 1339 14 l 869 867 b 710 972 825 951 782 972 l 628 972 b 481 867 569 972 526 951 l 26 32 b 43 0 17 14 21 0 l 222 0 b 254 18 240 0 247 4 l 656 765 b 672 775 660 772 665 775 l 679 775 b 696 765 686 775 692 772 l 1100 18 b 1132 0 1107 4 1114 0 z "},"Μ":{"ha":1658,"x_min":0,"x_max":0,"o":"m 214 972 b 93 828 118 972 93 938 l 93 31 b 124 0 93 10 103 0 l 269 0 b 300 31 290 0 300 10 l 300 756 b 313 769 300 765 304 769 l 325 769 b 343 758 335 769 339 767 l 614 136 b 792 0 657 32 701 0 l 871 0 b 1049 136 961 0 1007 32 l 1317 758 b 1336 769 1319 767 1325 769 l 1349 769 b 1358 756 1356 769 1358 765 l 1358 31 b 1389 0 1358 10 1369 0 l 1535 0 b 1567 31 1556 0 1567 10 l 1567 828 b 1444 972 1567 936 1540 972 l 1290 972 b 1143 867 1207 972 1178 956 l 860 200 b 840 188 857 192 850 188 l 824 188 b 804 200 815 188 808 192 l 519 867 b 371 972 483 956 453 972 z "},"Ν":{"ha":1358,"x_min":0,"x_max":0,"o":"m 217 972 b 93 828 129 972 93 938 l 93 31 b 124 0 93 10 103 0 l 272 0 b 303 31 292 0 303 10 l 303 756 b 314 769 303 765 306 769 l 326 769 b 344 760 335 769 339 767 l 857 82 b 1017 0 900 21 917 0 l 1140 0 b 1265 144 1228 0 1265 35 l 1265 942 b 1235 972 1265 963 1256 972 l 1086 972 b 1056 942 1065 972 1056 963 l 1056 217 b 1044 203 1056 207 1051 203 l 1032 203 b 1014 213 1024 203 1018 206 l 503 890 b 342 972 458 951 442 972 z "},"Ξ":{"ha":1181,"x_min":0,"x_max":0,"o":"m 100 196 b 69 165 79 196 69 185 l 69 31 b 100 0 69 10 79 0 l 1082 0 b 1113 31 1101 0 1113 10 l 1113 165 b 1082 196 1113 185 1101 196 z m 108 583 b 78 553 88 583 78 574 l 78 429 b 108 399 78 408 88 399 l 1074 399 b 1104 429 1093 399 1104 408 l 1104 553 b 1074 583 1104 574 1093 583 z m 100 972 b 69 942 79 972 69 963 l 69 807 b 100 776 69 788 79 776 l 1082 776 b 1113 807 1101 776 1113 788 l 1113 942 b 1082 972 1113 963 1101 972 z "},"Ο":{"ha":1369,"x_min":0,"x_max":0,"o":"m 471 972 b 82 606 189 972 82 871 l 82 367 b 471 0 82 101 189 0 l 899 0 b 1288 367 1181 0 1288 100 l 1288 606 b 899 972 1288 872 1181 972 z m 293 590 b 478 776 293 736 333 776 l 890 776 b 1075 590 1035 776 1075 736 l 1075 382 b 890 196 1075 236 1035 196 l 478 196 b 293 382 333 196 293 236 z "},"Π":{"ha":1258,"x_min":0,"x_max":0,"o":"m 219 972 b 92 854 126 972 92 935 l 92 31 b 122 0 92 10 101 0 l 272 0 b 304 31 293 0 304 10 l 304 744 b 332 775 304 765 313 775 l 925 775 b 954 744 944 775 954 765 l 954 31 b 985 0 954 10 964 0 l 1135 0 b 1167 31 1156 0 1167 10 l 1167 854 b 1038 972 1167 935 1131 972 z "},"Ρ":{"ha":1224,"x_min":0,"x_max":0,"o":"m 135 972 b 93 931 107 972 93 958 l 93 31 b 124 0 93 10 103 0 l 274 0 b 304 31 294 0 304 10 l 304 293 l 879 293 b 1178 583 1092 293 1178 396 l 1178 688 b 879 972 1178 874 1092 972 z m 304 485 l 304 761 b 322 778 304 772 310 778 l 836 778 b 965 657 931 778 965 740 l 965 604 b 836 485 965 522 931 485 z "},"Σ":{"ha":1168,"x_min":0,"x_max":0,"o":"m 182 972 b 72 867 107 972 72 939 l 72 771 b 144 651 72 700 85 671 l 554 506 b 564 489 561 504 564 500 l 564 479 b 554 463 564 471 561 465 l 144 322 b 72 203 86 301 72 275 l 72 106 b 182 0 72 33 107 0 l 1081 0 b 1111 31 1100 0 1111 10 l 1111 165 b 1081 196 1111 185 1100 196 l 367 196 b 353 207 358 196 353 200 l 353 218 b 365 238 353 228 357 235 l 782 379 b 842 449 829 394 842 408 l 842 521 b 782 590 842 561 829 575 l 365 735 b 353 754 357 738 353 744 l 353 765 b 367 776 353 772 358 776 l 1081 776 b 1111 807 1100 776 1111 788 l 1111 942 b 1081 972 1111 963 1100 972 z "},"Τ":{"ha":1213,"x_min":0,"x_max":0,"o":"m 63 972 b 32 942 43 972 32 963 l 32 806 b 63 775 32 785 43 775 l 500 775 l 500 31 b 531 0 500 10 511 0 l 682 0 b 711 31 703 0 711 10 l 711 775 l 1149 775 b 1181 806 1169 775 1181 785 l 1181 942 b 1149 972 1181 963 1169 972 z "},"Υ":{"ha":1246,"x_min":0,"x_max":0,"o":"m 33 972 b 19 944 17 972 10 958 l 514 297 l 514 31 b 546 0 514 11 525 0 l 694 0 b 726 31 715 0 726 11 l 726 297 l 1225 944 b 1213 972 1235 958 1229 972 l 1026 972 b 993 956 1011 972 1003 968 l 626 471 l 261 956 b 228 972 253 968 244 972 z "},"Φ":{"ha":1369,"x_min":0,"x_max":0,"o":"m 611 972 b 579 942 590 972 579 963 l 579 854 l 471 854 b 82 536 192 854 82 761 l 82 450 b 471 132 82 225 192 132 l 579 132 l 579 31 b 611 0 579 10 590 0 l 756 0 b 786 31 776 0 786 10 l 786 132 l 899 132 b 1288 450 1176 132 1288 225 l 1288 536 b 899 854 1288 761 1176 854 l 786 854 l 786 942 b 756 972 786 963 776 972 z m 293 526 b 478 664 293 631 335 664 l 579 664 l 579 322 l 478 322 b 293 460 335 322 293 356 z m 786 664 l 890 664 b 1075 526 1035 664 1075 631 l 1075 460 b 890 322 1075 356 1035 322 l 786 322 z "},"Χ":{"ha":1239,"x_min":0,"x_max":0,"o":"m 981 972 b 936 953 958 972 947 965 l 635 639 l 338 953 b 293 972 326 965 315 972 l 90 972 b 76 936 65 972 64 949 l 485 507 l 32 36 b 44 0 19 24 19 0 l 239 0 b 283 19 261 0 271 7 l 615 369 l 946 19 b 992 0 958 7 969 0 l 1193 0 b 1207 36 1218 0 1219 24 l 765 501 l 1188 936 b 1174 972 1200 949 1199 972 z "},"Ψ":{"ha":1347,"x_min":0,"x_max":0,"o":"m 597 972 b 567 942 576 972 567 963 l 567 414 l 481 414 b 296 597 335 414 296 454 l 296 942 b 265 972 296 963 286 972 l 115 972 b 85 942 94 972 85 963 l 85 589 b 474 222 85 322 192 222 l 567 222 l 567 31 b 597 0 567 10 576 0 l 749 0 b 779 31 768 0 779 10 l 779 222 l 872 222 b 1261 589 1154 222 1261 322 l 1261 942 b 1231 972 1261 963 1251 972 l 1079 972 b 1049 942 1060 972 1049 963 l 1049 597 b 865 414 1049 454 1011 414 l 779 414 l 779 942 b 749 972 779 963 768 972 z "},"Ω":{"ha":1369,"x_min":0,"x_max":0,"o":"m 408 972 b 82 668 179 972 82 876 l 82 568 b 250 315 82 453 136 376 l 394 240 b 407 221 404 235 407 231 l 407 207 b 394 196 407 200 403 196 l 121 196 b 90 165 100 196 90 185 l 90 31 b 121 0 90 10 100 0 l 565 0 b 625 56 608 0 625 15 l 625 210 b 567 319 625 271 611 294 l 374 422 b 293 536 314 454 293 479 l 293 640 b 439 776 293 739 332 776 l 929 776 b 1075 640 1036 776 1075 739 l 1075 536 b 996 422 1075 479 1054 454 l 801 319 b 743 210 757 294 743 271 l 743 56 b 803 0 743 15 760 0 l 1249 0 b 1279 31 1269 0 1279 10 l 1279 165 b 1249 196 1279 185 1269 196 l 975 196 b 961 207 967 196 961 200 l 961 221 b 975 240 961 231 964 235 l 1118 315 b 1288 568 1232 376 1288 454 l 1288 668 b 960 972 1288 876 1189 972 z "},"Ϊ":{"ha":529,"x_min":0,"x_max":0,"o":"m 189 972 b 158 942 168 972 158 963 l 158 31 b 189 0 158 10 168 0 l 339 0 b 369 31 360 0 369 10 l 369 942 b 339 972 369 963 360 972 z m 33 1229 b 3 1204 14 1229 3 1221 l 3 1072 b 33 1047 3 1056 14 1047 l 169 1047 b 201 1072 190 1047 201 1056 l 201 1204 b 169 1229 201 1221 190 1229 z m 360 1229 b 329 1204 340 1229 329 1221 l 329 1072 b 360 1047 329 1056 340 1047 l 496 1047 b 528 1072 517 1047 528 1056 l 528 1204 b 496 1229 528 1221 517 1229 z "},"Ϋ":{"ha":1246,"x_min":0,"x_max":0,"o":"m 33 972 b 19 944 17 972 10 958 l 514 297 l 514 31 b 546 0 514 11 525 0 l 694 0 b 726 31 715 0 726 11 l 726 297 l 1225 944 b 1213 972 1235 958 1229 972 l 1026 972 b 993 956 1011 972 1003 968 l 626 471 l 261 956 b 228 972 253 968 244 972 z m 360 1229 b 329 1204 340 1229 329 1221 l 329 1072 b 360 1047 329 1056 340 1047 l 496 1047 b 528 1072 517 1047 528 1056 l 528 1204 b 496 1229 528 1221 517 1229 z m 747 1229 b 717 1204 728 1229 717 1221 l 717 1072 b 747 1047 717 1056 728 1047 l 885 1047 b 915 1072 904 1047 915 1056 l 915 1204 b 885 1229 915 1221 904 1229 z "},"ά":{"ha":1271,"x_min":0,"x_max":0,"o":"m 406 763 b 76 482 161 763 76 686 l 76 281 b 406 0 76 75 161 0 l 735 0 b 958 71 831 0 906 26 b 1149 0 1003 26 1067 0 l 1247 0 b 1272 25 1264 0 1272 8 l 1272 146 b 1247 171 1272 163 1264 171 l 1182 171 b 1065 278 1093 171 1065 199 l 1065 658 b 951 763 1065 728 1025 763 z m 656 1133 b 611 1101 635 1133 621 1121 l 494 846 b 515 813 485 825 494 813 l 621 813 b 663 844 642 813 651 824 l 797 1100 b 778 1133 808 1122 797 1133 z m 274 447 b 425 592 274 563 304 592 l 821 592 b 868 550 857 592 868 581 l 868 315 b 725 169 868 197 844 169 l 425 169 b 274 315 304 169 274 200 z "},"έ":{"ha":1006,"x_min":0,"x_max":0,"o":"m 294 763 b 61 582 129 763 61 707 l 61 531 b 131 392 61 471 85 424 b 54 251 79 363 54 315 l 54 188 b 271 0 54 65 117 0 l 932 0 b 961 29 951 0 961 8 l 961 139 b 932 168 961 160 951 168 l 331 168 b 249 221 269 168 249 182 l 249 251 b 332 310 249 294 269 310 l 897 310 b 925 339 917 310 925 319 l 925 428 b 897 457 925 447 917 457 l 332 457 b 251 510 272 457 251 471 l 251 540 b 332 593 251 581 269 593 l 932 593 b 961 622 951 593 961 603 l 961 733 b 932 763 961 753 951 763 z m 579 1133 b 535 1101 558 1133 544 1121 l 418 846 b 439 813 408 825 418 813 l 544 813 b 586 844 565 813 575 824 l 721 1100 b 701 1133 732 1122 721 1133 z "},"ή":{"ha":1339,"x_min":0,"x_max":0,"o":"m 414 763 b 85 482 169 763 85 686 l 85 31 b 115 0 85 10 94 0 l 251 0 b 282 31 272 0 282 10 l 282 433 b 433 586 282 551 314 586 l 803 586 b 946 433 918 586 946 557 l 946 -276 b 976 -307 946 -297 957 -307 l 1113 -307 b 1143 -276 1133 -307 1143 -297 l 1143 482 b 813 763 1143 686 1058 763 z m 749 1133 b 704 1101 728 1133 714 1121 l 588 846 b 608 813 578 825 588 813 l 714 813 b 756 844 735 813 744 824 l 890 1100 b 871 1133 901 1122 890 1133 z "},"ί":{"ha":567,"x_min":0,"x_max":0,"o":"m 115 763 b 85 732 94 763 85 751 l 85 276 b 365 0 85 72 151 0 l 518 0 b 543 25 535 0 543 8 l 543 146 b 518 171 543 163 535 171 l 399 171 b 282 276 310 171 282 199 l 282 732 b 251 763 282 751 272 763 z m 275 1133 b 231 1101 254 1133 240 1121 l 114 846 b 135 813 104 825 114 813 l 240 813 b 282 844 261 813 271 824 l 417 1100 b 397 1133 428 1122 417 1133 z "},"ΰ":{"ha":1217,"x_min":0,"x_max":0,"o":"m 115 763 b 100 760 110 763 104 761 b 85 732 90 756 85 747 l 85 281 b 85 261 85 274 85 267 b 85 251 85 257 85 254 b 85 242 85 247 85 244 b 88 214 86 232 88 222 b 89 206 89 211 89 208 b 101 150 92 185 96 167 b 104 143 103 147 103 146 b 192 40 121 96 150 63 b 199 36 194 39 197 38 b 235 22 210 31 222 26 b 243 19 238 21 240 21 b 251 17 246 18 249 18 b 260 15 254 17 257 15 b 296 8 271 13 283 10 b 304 7 299 7 301 7 b 368 1 324 4 344 1 b 403 0 379 0 390 0 b 414 0 406 0 410 0 l 801 0 b 881 3 831 0 857 1 b 892 4 885 4 888 4 b 911 7 899 6 906 6 b 957 15 922 7 947 13 b 974 19 963 17 968 18 b 989 25 979 21 983 22 b 996 28 992 25 994 26 b 1004 31 999 28 1001 29 b 1017 36 1008 32 1013 35 b 1053 58 1029 43 1042 49 b 1068 72 1058 64 1064 68 b 1074 78 1071 74 1072 76 b 1082 88 1076 81 1079 85 b 1097 111 1088 94 1093 103 b 1101 117 1099 113 1100 114 b 1104 124 1101 118 1103 121 b 1113 143 1107 129 1110 136 b 1115 150 1114 146 1114 147 b 1121 172 1117 157 1119 165 b 1125 189 1122 178 1124 183 b 1128 206 1125 194 1126 200 b 1131 232 1128 214 1129 222 b 1131 242 1131 235 1131 238 b 1132 251 1131 244 1131 247 b 1132 261 1132 254 1132 257 b 1132 271 1132 264 1132 267 b 1132 281 1132 274 1132 278 l 1132 732 b 1132 736 1132 735 1132 736 l 1132 738 b 1131 744 1132 739 1132 740 b 1126 751 1131 744 1129 746 l 1126 753 l 1125 753 b 1122 757 1125 754 1124 756 l 1121 757 b 1113 761 1119 758 1118 760 b 1107 761 1111 761 1110 761 b 1103 763 1106 763 1104 763 l 965 763 b 956 761 963 763 961 763 b 951 760 954 761 953 761 b 944 756 950 760 949 758 l 943 756 b 939 750 942 754 942 754 b 936 746 939 750 938 749 l 936 743 b 935 736 935 742 935 740 b 935 732 935 735 935 735 l 935 328 b 935 322 935 326 935 325 b 935 317 935 321 935 318 b 933 311 935 315 935 313 b 933 290 933 304 933 297 b 932 285 933 289 932 288 b 932 281 932 283 932 282 b 928 258 931 272 929 265 b 928 254 928 257 928 256 b 922 240 926 250 925 244 b 918 229 921 236 919 233 b 914 221 917 226 915 224 b 907 213 911 218 910 215 b 906 210 907 213 906 211 b 903 208 904 210 904 208 b 901 206 903 207 901 207 b 899 204 900 206 899 204 b 893 200 897 203 894 201 b 890 197 892 199 892 199 b 888 196 889 197 889 196 b 885 194 886 196 886 194 b 861 185 878 190 869 188 b 844 181 856 183 850 182 b 835 179 842 181 839 179 b 811 178 828 178 819 178 b 800 176 807 176 803 176 b 794 176 797 176 796 176 b 782 176 790 176 786 176 l 425 176 b 414 176 421 176 418 176 b 408 176 413 176 410 176 b 403 176 407 176 404 176 b 397 176 401 176 400 176 b 393 178 396 178 394 178 b 383 178 389 178 386 178 b 379 179 382 178 381 178 b 369 179 375 179 372 179 b 357 182 368 181 358 182 b 354 183 357 182 356 182 b 336 189 347 185 342 186 b 333 190 335 189 335 189 b 306 211 322 194 313 201 b 303 217 304 213 303 214 b 282 328 288 239 282 275 l 282 732 b 276 751 282 739 281 744 l 276 753 b 272 757 274 754 274 756 b 251 763 267 760 260 763 z m 638 1133 b 593 1101 617 1133 603 1121 l 476 846 b 497 813 467 825 476 813 l 603 813 b 644 844 624 813 633 824 l 779 1100 b 760 1133 790 1122 779 1133 z m 263 1044 b 232 1014 242 1044 232 1035 l 232 882 b 263 850 232 861 242 850 l 399 850 b 429 882 419 850 429 861 l 429 1014 b 399 1044 429 1035 419 1044 z m 835 1044 b 804 1014 814 1044 804 1035 l 804 882 b 835 850 804 861 814 850 l 971 850 b 1001 882 992 850 1001 861 l 1001 1014 b 971 1044 1001 1035 992 1044 z "},"α":{"ha":1303,"x_min":0,"x_max":0,"o":"m 406 763 b 76 482 161 763 76 686 l 76 281 b 406 0 76 75 161 0 l 735 0 b 958 71 831 0 906 26 b 1149 0 1003 26 1067 0 l 1247 0 b 1272 25 1264 0 1272 8 l 1272 146 b 1247 171 1272 163 1264 171 l 1182 171 b 1065 278 1093 171 1065 199 l 1065 658 b 951 763 1065 728 1025 763 z m 274 447 b 425 592 274 563 304 592 l 821 592 b 868 550 857 592 868 581 l 868 315 b 725 169 868 197 844 169 l 425 169 b 274 315 304 169 274 200 z "},"β":{"ha":1136,"x_min":0,"x_max":0,"o":"m 364 1042 b 89 797 157 1042 89 974 l 89 -276 b 119 -307 89 -297 99 -307 l 256 -307 b 286 -276 276 -307 286 -297 l 286 0 l 825 0 b 1060 206 992 0 1060 71 l 1060 388 b 981 543 1060 456 1033 508 b 1054 697 1028 579 1054 632 l 1054 844 b 801 1042 1054 981 981 1042 z m 286 168 l 286 779 b 399 871 286 846 315 871 l 763 871 b 863 799 835 871 863 851 l 863 676 b 746 611 863 626 836 611 l 446 611 b 418 583 426 611 418 603 l 418 486 b 446 457 418 467 426 457 l 746 457 b 864 388 836 457 864 440 l 864 238 b 764 168 864 186 839 168 z "},"γ":{"ha":1153,"x_min":0,"x_max":0,"o":"m 42 763 b 25 728 24 763 13 746 l 478 18 l 478 -276 b 508 -307 478 -297 489 -307 l 646 -307 b 676 -276 665 -307 676 -297 l 676 18 l 1131 728 b 1113 763 1142 746 1131 763 l 956 763 b 922 743 939 763 929 757 l 579 189 l 240 743 b 208 763 233 757 225 763 z "},"δ":{"ha":1206,"x_min":0,"x_max":0,"o":"m 204 1042 b 113 953 143 1042 113 1008 l 113 858 b 243 690 113 760 144 718 l 318 668 l 228 622 b 76 364 101 558 76 514 l 76 289 b 406 0 76 78 161 0 l 799 0 b 1129 289 1044 0 1129 78 l 1129 381 b 876 679 1129 551 1067 628 l 364 817 b 343 842 350 821 343 829 l 343 854 b 364 871 343 865 350 871 l 1043 871 b 1071 900 1063 871 1071 879 l 1071 1013 b 1043 1042 1071 1033 1063 1042 z m 511 614 l 824 526 b 932 388 904 503 932 469 l 932 306 b 779 169 932 200 899 169 l 425 169 b 274 311 306 169 274 200 l 274 393 b 365 532 274 463 293 490 z "},"ε":{"ha":1006,"x_min":0,"x_max":0,"o":"m 294 763 b 61 582 129 763 61 707 l 61 531 b 131 392 61 471 85 424 b 54 251 79 363 54 315 l 54 188 b 271 0 54 65 117 0 l 932 0 b 961 29 951 0 961 8 l 961 139 b 932 168 961 160 951 168 l 331 168 b 249 221 269 168 249 182 l 249 251 b 332 310 249 294 269 310 l 897 310 b 925 339 917 310 925 319 l 925 428 b 897 457 925 447 917 457 l 332 457 b 251 510 272 457 251 471 l 251 540 b 332 593 251 581 269 593 l 932 593 b 961 622 951 593 961 603 l 961 733 b 932 763 961 753 951 763 z "},"ζ":{"ha":1044,"x_min":0,"x_max":0,"o":"m 119 1042 b 94 1017 103 1042 94 1033 l 94 896 b 119 871 94 879 103 871 l 765 871 b 776 861 774 871 776 868 l 776 851 b 765 832 776 839 775 835 l 324 636 b 88 324 150 560 88 476 l 88 281 b 417 0 88 74 174 0 l 678 0 b 779 -121 758 0 779 -25 l 779 -276 b 810 -307 779 -297 790 -307 l 947 -307 b 978 -276 967 -307 978 -297 l 978 -83 b 697 172 978 103 901 172 l 436 172 b 285 289 318 172 285 199 l 285 338 b 388 492 285 419 310 457 l 918 731 b 983 829 971 754 983 774 l 983 956 b 886 1042 983 1015 953 1042 z "},"η":{"ha":1228,"x_min":0,"x_max":0,"o":"m 414 763 b 85 482 169 763 85 686 l 85 31 b 115 0 85 10 94 0 l 251 0 b 282 31 272 0 282 10 l 282 433 b 433 586 282 551 314 586 l 803 586 b 946 433 918 586 946 557 l 946 -276 b 976 -307 946 -297 957 -307 l 1113 -307 b 1143 -276 1133 -307 1143 -297 l 1143 482 b 813 763 1143 686 1058 763 z "}}}
